<?xml version="1.0" encoding="UTF-8" standalone="no"?>
<!DOCTYPE svg PUBLIC "-//W3C//DTD SVG 1.1//EN"
 "http://www.w3.org/Graphics/SVG/1.1/DTD/svg11.dtd">
<!-- Generated by graphviz version 2.40.1 (20161225.0304)
 -->
<!-- Title: TetrisRenderer::render Pages: 1 -->
<svg width="468pt" height="180pt"
 viewBox="0.00 0.00 468.00 180.00" xmlns="http://www.w3.org/2000/svg" xmlns:xlink="http://www.w3.org/1999/xlink">
<g id="graph0" class="graph" transform="scale(1 1) rotate(0) translate(4 176)">
<title>TetrisRenderer::render</title>
<polygon fill="#ffffff" stroke="transparent" points="-4,4 -4,-176 464,-176 464,4 -4,4"/>
<!-- Node6 -->
<g id="node1" class="node">
<title>Node6</title>
<polygon fill="#bfbfbf" stroke="#000000" points="0,-76.5 0,-95.5 114,-95.5 114,-76.5 0,-76.5"/>
<text text-anchor="middle" x="57" y="-83.5" font-family="Helvetica,sans-Serif" font-size="10.00" fill="#000000">TetrisRenderer::render</text>
</g>
<!-- Node7 -->
<g id="node2" class="node">
<title>Node7</title>
<g id="a_node2"><a xlink:href="classTetrisModel.html#af5e86770c46ef2669e26babca6b08e8c" target="_top" xlink:title="TetrisModel::grid">
<polygon fill="#ffffff" stroke="#000000" points="168,-152.5 168,-171.5 257,-171.5 257,-152.5 168,-152.5"/>
<text text-anchor="middle" x="212.5" y="-159.5" font-family="Helvetica,sans-Serif" font-size="10.00" fill="#000000">TetrisModel::grid</text>
</a>
</g>
</g>
<!-- Node6&#45;&gt;Node7 -->
<g id="edge1" class="edge">
<title>Node6&#45;&gt;Node7</title>
<path fill="none" stroke="#191970" d="M72.4371,-95.5344C90.6017,-106.5391 121.8595,-124.8126 150,-138 158.1822,-141.8344 167.1588,-145.5533 175.6926,-148.8732"/>
<polygon fill="#191970" stroke="#191970" points="174.4823,-152.1574 185.0735,-152.4368 176.9682,-145.6136 174.4823,-152.1574"/>
</g>
<!-- Node8 -->
<g id="node3" class="node">
<title>Node8</title>
<g id="a_node3"><a xlink:href="classGrid.html#a35b4576216863c321adb15e38ed2804b" target="_top" xlink:title="Grid::height">
<polygon fill="#ffffff" stroke="#000000" points="352,-114.5 352,-133.5 419,-133.5 419,-114.5 352,-114.5"/>
<text text-anchor="middle" x="385.5" y="-121.5" font-family="Helvetica,sans-Serif" font-size="10.00" fill="#000000">Grid::height</text>
</a>
</g>
</g>
<!-- Node6&#45;&gt;Node8 -->
<g id="edge2" class="edge">
<title>Node6&#45;&gt;Node8</title>
<path fill="none" stroke="#191970" d="M114.488,-95.0935C126.2231,-96.8261 138.4985,-98.5491 150,-100 216.7165,-108.4163 294.3557,-115.8785 341.6996,-120.168"/>
<polygon fill="#191970" stroke="#191970" points="341.6304,-123.6758 351.9037,-121.0858 342.2575,-116.7039 341.6304,-123.6758"/>
</g>
<!-- Node9 -->
<g id="node4" class="node">
<title>Node9</title>
<g id="a_node4"><a xlink:href="classGrid.html#a48a0cbb4dee8eb8e1c56f4d85d1f971b" target="_top" xlink:title="Grid::width">
<polygon fill="#ffffff" stroke="#000000" points="353.5,-76.5 353.5,-95.5 417.5,-95.5 417.5,-76.5 353.5,-76.5"/>
<text text-anchor="middle" x="385.5" y="-83.5" font-family="Helvetica,sans-Serif" font-size="10.00" fill="#000000">Grid::width</text>
</a>
</g>
</g>
<!-- Node6&#45;&gt;Node9 -->
<g id="edge3" class="edge">
<title>Node6&#45;&gt;Node9</title>
<path fill="none" stroke="#191970" d="M114.2203,-86C179.461,-86 284.6051,-86 342.9833,-86"/>
<polygon fill="#191970" stroke="#191970" points="343.3195,-89.5001 353.3194,-86 343.3194,-82.5001 343.3195,-89.5001"/>
</g>
<!-- Node10 -->
<g id="node5" class="node">
<title>Node10</title>
<g id="a_node5"><a xlink:href="classShadowBrush.html#ac72107dffb3b70f5f997d0708025b799" target="_top" xlink:title="ShadowBrush::drawRectangle">
<polygon fill="#ffffff" stroke="#000000" points="311,-.5 311,-19.5 460,-19.5 460,-.5 311,-.5"/>
<text text-anchor="middle" x="385.5" y="-7.5" font-family="Helvetica,sans-Serif" font-size="10.00" fill="#000000">ShadowBrush::drawRectangle</text>
</a>
</g>
</g>
<!-- Node6&#45;&gt;Node10 -->
<g id="edge4" class="edge">
<title>Node6&#45;&gt;Node10</title>
<path fill="none" stroke="#191970" d="M68.4327,-76.4837C85.1447,-63.1888 117.7723,-39.5078 150,-29 198.3107,-13.2484 255.0121,-8.2923 300.6706,-7.3721"/>
<polygon fill="#191970" stroke="#191970" points="300.8823,-10.8696 310.8322,-7.2297 300.7841,-3.8703 300.8823,-10.8696"/>
</g>
<!-- Node11 -->
<g id="node6" class="node">
<title>Node11</title>
<g id="a_node6"><a xlink:href="classGridRenderer.html#a0febcbbb5a20019d0afdca8c98f1a485" target="_top" xlink:title="GridRenderer::renderGrid">
<polygon fill="#ffffff" stroke="#000000" points="150,-38.5 150,-57.5 275,-57.5 275,-38.5 150,-38.5"/>
<text text-anchor="middle" x="212.5" y="-45.5" font-family="Helvetica,sans-Serif" font-size="10.00" fill="#000000">GridRenderer::renderGrid</text>
</a>
</g>
</g>
<!-- Node6&#45;&gt;Node11 -->
<g id="edge5" class="edge">
<title>Node6&#45;&gt;Node11</title>
<path fill="none" stroke="#191970" d="M96.2392,-76.411C116.7591,-71.3965 142.067,-65.2119 163.8255,-59.8947"/>
<polygon fill="#191970" stroke="#191970" points="164.6597,-63.294 173.543,-57.5201 162.9979,-56.494 164.6597,-63.294"/>
</g>
<!-- Node11&#45;&gt;Node8 -->
<g id="edge7" class="edge">
<title>Node11&#45;&gt;Node8</title>
<path fill="none" stroke="#191970" d="M226.2273,-57.5875C244.7103,-70.103 278.9833,-91.9458 311,-105 320.835,-109.01 331.7536,-112.3628 342.132,-115.0796"/>
<polygon fill="#191970" stroke="#191970" points="341.3157,-118.4831 351.8639,-117.4901 342.9987,-111.6884 341.3157,-118.4831"/>
</g>
<!-- Node11&#45;&gt;Node9 -->
<g id="edge6" class="edge">
<title>Node11&#45;&gt;Node9</title>
<path fill="none" stroke="#191970" d="M256.1552,-57.589C282.8421,-63.4509 316.8081,-70.9116 343.2362,-76.7166"/>
<polygon fill="#191970" stroke="#191970" points="342.8095,-80.2063 353.3275,-78.9332 344.3113,-73.3692 342.8095,-80.2063"/>
</g>
<!-- Node11&#45;&gt;Node10 -->
<g id="edge9" class="edge">
<title>Node11&#45;&gt;Node10</title>
<path fill="none" stroke="#191970" d="M256.1552,-38.411C279.2929,-33.3287 307.9024,-27.0446 332.3268,-21.6797"/>
<polygon fill="#191970" stroke="#191970" points="333.1425,-25.084 342.1587,-19.5201 331.6406,-18.247 333.1425,-25.084"/>
</g>
<!-- Node12 -->
<g id="node7" class="node">
<title>Node12</title>
<g id="a_node7"><a xlink:href="classGrid.html#a947680e656b1eeb07e1c140437cfd3fb" target="_top" xlink:title="Grid::cell">
<polygon fill="#ffffff" stroke="#000000" points="357.5,-38.5 357.5,-57.5 413.5,-57.5 413.5,-38.5 357.5,-38.5"/>
<text text-anchor="middle" x="385.5" y="-45.5" font-family="Helvetica,sans-Serif" font-size="10.00" fill="#000000">Grid::cell</text>
</a>
</g>
</g>
<!-- Node11&#45;&gt;Node12 -->
<g id="edge8" class="edge">
<title>Node11&#45;&gt;Node12</title>
<path fill="none" stroke="#191970" d="M275.4464,-48C299.4143,-48 325.9938,-48 347.0268,-48"/>
<polygon fill="#191970" stroke="#191970" points="347.1732,-51.5001 357.1731,-48 347.1731,-44.5001 347.1732,-51.5001"/>
</g>
</g>
</svg>
