<?xml version="1.0" encoding="UTF-8" standalone="no"?>
<!DOCTYPE svg PUBLIC "-//W3C//DTD SVG 1.1//EN"
 "http://www.w3.org/Graphics/SVG/1.1/DTD/svg11.dtd">
<!-- Generated by graphviz version 2.40.1 (20161225.0304)
 -->
<!-- Title: GameLoop::loop Pages: 1 -->
<svg width="242pt" height="66pt"
 viewBox="0.00 0.00 242.00 66.00" xmlns="http://www.w3.org/2000/svg" xmlns:xlink="http://www.w3.org/1999/xlink">
<g id="graph0" class="graph" transform="scale(1 1) rotate(0) translate(4 62)">
<title>GameLoop::loop</title>
<polygon fill="#ffffff" stroke="transparent" points="-4,4 -4,-62 238,-62 238,4 -4,4"/>
<!-- Node0 -->
<g id="node1" class="node">
<title>Node0</title>
<polygon fill="#bfbfbf" stroke="#000000" points="0,-19.5 0,-38.5 88,-38.5 88,-19.5 0,-19.5"/>
<text text-anchor="middle" x="44" y="-26.5" font-family="Helvetica,sans-Serif" font-size="10.00" fill="#000000">GameLoop::loop</text>
</g>
<!-- Node1 -->
<g id="node2" class="node">
<title>Node1</title>
<g id="a_node2"><a xlink:href="classWindow.html#aa4eac1720fdf40186bb2fce061c95c78" target="_top" xlink:title="Window::getWindow">
<polygon fill="#ffffff" stroke="#000000" points="125.5,-38.5 125.5,-57.5 232.5,-57.5 232.5,-38.5 125.5,-38.5"/>
<text text-anchor="middle" x="179" y="-45.5" font-family="Helvetica,sans-Serif" font-size="10.00" fill="#000000">Window::getWindow</text>
</a>
</g>
</g>
<!-- Node0&#45;&gt;Node1 -->
<g id="edge1" class="edge">
<title>Node0&#45;&gt;Node1</title>
<path fill="none" stroke="#191970" d="M88.204,-35.2213C96.8082,-36.4323 105.988,-37.7242 115.0808,-39.004"/>
<polygon fill="#191970" stroke="#191970" points="114.8845,-42.5108 125.2747,-40.4387 115.8601,-35.5791 114.8845,-42.5108"/>
</g>
<!-- Node2 -->
<g id="node3" class="node">
<title>Node2</title>
<g id="a_node3"><a xlink:href="classWindow.html#ad5a68f06a9693beaec0e8f7d9acc367f" target="_top" xlink:title="Window::sdlRenderer">
<polygon fill="#ffffff" stroke="#000000" points="124,-.5 124,-19.5 234,-19.5 234,-.5 124,-.5"/>
<text text-anchor="middle" x="179" y="-7.5" font-family="Helvetica,sans-Serif" font-size="10.00" fill="#000000">Window::sdlRenderer</text>
</a>
</g>
</g>
<!-- Node0&#45;&gt;Node2 -->
<g id="edge2" class="edge">
<title>Node0&#45;&gt;Node2</title>
<path fill="none" stroke="#191970" d="M88.204,-22.7787C96.3841,-21.6274 105.0843,-20.4029 113.7356,-19.1854"/>
<polygon fill="#191970" stroke="#191970" points="114.4202,-22.6236 123.8348,-17.764 113.4445,-15.6919 114.4202,-22.6236"/>
</g>
</g>
</svg>
