<?xml version="1.0" encoding="UTF-8" standalone="no"?>
<!DOCTYPE svg PUBLIC "-//W3C//DTD SVG 1.1//EN"
 "http://www.w3.org/Graphics/SVG/1.1/DTD/svg11.dtd">
<!-- Generated by graphviz version 2.40.1 (20161225.0304)
 -->
<!-- Title: PauseMenuModel::firstStart Pages: 1 -->
<svg width="310pt" height="78pt"
 viewBox="0.00 0.00 310.00 77.50" xmlns="http://www.w3.org/2000/svg" xmlns:xlink="http://www.w3.org/1999/xlink">
<g id="graph0" class="graph" transform="scale(1 1) rotate(0) translate(4 73.5)">
<title>PauseMenuModel::firstStart</title>
<polygon fill="#ffffff" stroke="transparent" points="-4,4 -4,-73.5 306,-73.5 306,4 -4,4"/>
<!-- Node3 -->
<g id="node1" class="node">
<title>Node3</title>
<polygon fill="#bfbfbf" stroke="#000000" points="0,-22.5 0,-41.5 138,-41.5 138,-22.5 0,-22.5"/>
<text text-anchor="middle" x="69" y="-29.5" font-family="Helvetica,sans-Serif" font-size="10.00" fill="#000000">PauseMenuModel::firstStart</text>
</g>
<!-- Node4 -->
<g id="node2" class="node">
<title>Node4</title>
<g id="a_node2"><a xlink:href="classPauseMenuRenderer.html#ac01a84b10b42bce394419ebe02175065" target="_top" xlink:title="PauseMenuRenderer::\lrender">
<polygon fill="#ffffff" stroke="#000000" points="181,-39 181,-69 295,-69 295,-39 181,-39"/>
<text text-anchor="start" x="189" y="-57" font-family="Helvetica,sans-Serif" font-size="10.00" fill="#000000">PauseMenuRenderer::</text>
<text text-anchor="middle" x="238" y="-46" font-family="Helvetica,sans-Serif" font-size="10.00" fill="#000000">render</text>
</a>
</g>
</g>
<!-- Node3&#45;&gt;Node4 -->
<g id="edge1" class="edge">
<title>Node3&#45;&gt;Node4</title>
<path fill="none" stroke="#191970" d="M148.3017,-42.3233C159.3325,-43.7593 170.4819,-45.2107 180.9942,-46.5791"/>
<polygon fill="#191970" stroke="#191970" points="148.5946,-38.832 138.2264,-41.0117 147.6909,-45.7734 148.5946,-38.832"/>
</g>
<!-- Node5 -->
<g id="node3" class="node">
<title>Node5</title>
<g id="a_node3"><a xlink:href="classPauseMenuAudio.html#a3cf3964a33c1fac2c7dc0f37a78a0acb" target="_top" xlink:title="PauseMenuAudio::update">
<polygon fill="#ffffff" stroke="#000000" points="174,-.5 174,-19.5 302,-19.5 302,-.5 174,-.5"/>
<text text-anchor="middle" x="238" y="-7.5" font-family="Helvetica,sans-Serif" font-size="10.00" fill="#000000">PauseMenuAudio::update</text>
</a>
</g>
</g>
<!-- Node3&#45;&gt;Node5 -->
<g id="edge2" class="edge">
<title>Node3&#45;&gt;Node5</title>
<path fill="none" stroke="#191970" d="M148.2238,-21.6868C156.7865,-20.5722 165.4218,-19.4481 173.776,-18.3605"/>
<polygon fill="#191970" stroke="#191970" points="147.6909,-18.2266 138.2264,-22.9883 148.5946,-25.168 147.6909,-18.2266"/>
</g>
</g>
</svg>
