<?xml version="1.0" encoding="UTF-8" standalone="no"?>
<!DOCTYPE svg PUBLIC "-//W3C//DTD SVG 1.1//EN"
 "http://www.w3.org/Graphics/SVG/1.1/DTD/svg11.dtd">
<!-- Generated by graphviz version 2.40.1 (20161225.0304)
 -->
<!-- Title: PauseMenuRenderer::PauseMenuRenderer Pages: 1 -->
<svg width="277pt" height="104pt"
 viewBox="0.00 0.00 277.00 104.00" xmlns="http://www.w3.org/2000/svg" xmlns:xlink="http://www.w3.org/1999/xlink">
<g id="graph0" class="graph" transform="scale(1 1) rotate(0) translate(4 100)">
<title>PauseMenuRenderer::PauseMenuRenderer</title>
<polygon fill="#ffffff" stroke="transparent" points="-4,4 -4,-100 273,-100 273,4 -4,4"/>
<!-- Node0 -->
<g id="node1" class="node">
<title>Node0</title>
<polygon fill="#bfbfbf" stroke="#000000" points="0,-33 0,-63 114,-63 114,-33 0,-33"/>
<text text-anchor="start" x="8" y="-51" font-family="Helvetica,sans-Serif" font-size="10.00" fill="#000000">PauseMenuRenderer::</text>
<text text-anchor="middle" x="57" y="-40" font-family="Helvetica,sans-Serif" font-size="10.00" fill="#000000">PauseMenuRenderer</text>
</g>
<!-- Node1 -->
<g id="node2" class="node">
<title>Node1</title>
<g id="a_node2"><a xlink:href="classLerpSeries.html#ab71a987cab3a686c827358a1a59658c6" target="_top" xlink:title="LerpSeries::add">
<polygon fill="#ffffff" stroke="#000000" points="167,-76.5 167,-95.5 252,-95.5 252,-76.5 167,-76.5"/>
<text text-anchor="middle" x="209.5" y="-83.5" font-family="Helvetica,sans-Serif" font-size="10.00" fill="#000000">LerpSeries::add</text>
</a>
</g>
</g>
<!-- Node0&#45;&gt;Node1 -->
<g id="edge1" class="edge">
<title>Node0&#45;&gt;Node1</title>
<path fill="none" stroke="#191970" d="M114.2192,-62.2579C129.6013,-66.0908 146.0871,-70.1988 160.9484,-73.9019"/>
<polygon fill="#191970" stroke="#191970" points="160.3943,-77.3708 170.9439,-76.3926 162.0869,-70.5785 160.3943,-77.3708"/>
</g>
<!-- Node2 -->
<g id="node3" class="node">
<title>Node2</title>
<g id="a_node3"><a xlink:href="classLerpSeries.html#ae1be96eb3254687785d059a50c7ccae3" target="_top" xlink:title="LerpSeries::setLooping">
<polygon fill="#ffffff" stroke="#000000" points="151.5,-38.5 151.5,-57.5 267.5,-57.5 267.5,-38.5 151.5,-38.5"/>
<text text-anchor="middle" x="209.5" y="-45.5" font-family="Helvetica,sans-Serif" font-size="10.00" fill="#000000">LerpSeries::setLooping</text>
</a>
</g>
</g>
<!-- Node0&#45;&gt;Node2 -->
<g id="edge2" class="edge">
<title>Node0&#45;&gt;Node2</title>
<path fill="none" stroke="#191970" d="M114.2192,-48C123.0618,-48 132.2691,-48 141.3229,-48"/>
<polygon fill="#191970" stroke="#191970" points="141.4521,-51.5001 151.4521,-48 141.452,-44.5001 141.4521,-51.5001"/>
</g>
<!-- Node3 -->
<g id="node4" class="node">
<title>Node3</title>
<g id="a_node4"><a xlink:href="classTextureFactory.html#abac5ce46bbe0bde09755704f2eca2330" target="_top" xlink:title="TextureFactory::texture">
<polygon fill="#ffffff" stroke="#000000" points="150,-.5 150,-19.5 269,-19.5 269,-.5 150,-.5"/>
<text text-anchor="middle" x="209.5" y="-7.5" font-family="Helvetica,sans-Serif" font-size="10.00" fill="#000000">TextureFactory::texture</text>
</a>
</g>
</g>
<!-- Node0&#45;&gt;Node3 -->
<g id="edge3" class="edge">
<title>Node0&#45;&gt;Node3</title>
<path fill="none" stroke="#191970" d="M114.2192,-33.7421C129.6013,-29.9092 146.0871,-25.8012 160.9484,-22.0981"/>
<polygon fill="#191970" stroke="#191970" points="162.0869,-25.4215 170.9439,-19.6074 160.3943,-18.6292 162.0869,-25.4215"/>
</g>
</g>
</svg>
