<?xml version="1.0" encoding="UTF-8" standalone="no"?>
<!DOCTYPE svg PUBLIC "-//W3C//DTD SVG 1.1//EN"
 "http://www.w3.org/Graphics/SVG/1.1/DTD/svg11.dtd">
<!-- Generated by graphviz version 2.40.1 (20161225.0304)
 -->
<!-- Title: LevelAudio Pages: 1 -->
<svg width="88pt" height="171pt"
 viewBox="0.00 0.00 88.00 171.00" xmlns="http://www.w3.org/2000/svg" xmlns:xlink="http://www.w3.org/1999/xlink">
<g id="graph0" class="graph" transform="scale(1 1) rotate(0) translate(4 167)">
<title>LevelAudio</title>
<polygon fill="#ffffff" stroke="transparent" points="-4,4 -4,-167 84,-167 84,4 -4,4"/>
<!-- Node0 -->
<g id="node1" class="node">
<title>Node0</title>
<polygon fill="#bfbfbf" stroke="#000000" points="0,-.5 0,-68.5 80,-68.5 80,-.5 0,-.5"/>
<text text-anchor="middle" x="40" y="-56.5" font-family="Helvetica,sans-Serif" font-size="10.00" fill="#000000">LevelAudio</text>
<polyline fill="none" stroke="#000000" points="0,-49.5 80,-49.5 "/>
<text text-anchor="middle" x="40" y="-37.5" font-family="Helvetica,sans-Serif" font-size="10.00" fill="#000000"> </text>
<polyline fill="none" stroke="#000000" points="0,-30.5 80,-30.5 "/>
<text text-anchor="start" x="8" y="-18.5" font-family="Helvetica,sans-Serif" font-size="10.00" fill="#000000">+ LevelAudio()</text>
<text text-anchor="start" x="8" y="-7.5" font-family="Helvetica,sans-Serif" font-size="10.00" fill="#000000">+ update()</text>
</g>
<!-- Node1 -->
<g id="node2" class="node">
<title>Node1</title>
<g id="a_node2"><a xlink:href="classGameAudio.html" target="_top" xlink:title="{GameAudio\n||+ update()\l}">
<polygon fill="#ffffff" stroke="#000000" points="6,-105.5 6,-162.5 74,-162.5 74,-105.5 6,-105.5"/>
<text text-anchor="middle" x="40" y="-150.5" font-family="Helvetica,sans-Serif" font-size="10.00" fill="#000000">GameAudio</text>
<polyline fill="none" stroke="#000000" points="6,-143.5 74,-143.5 "/>
<text text-anchor="middle" x="40" y="-131.5" font-family="Helvetica,sans-Serif" font-size="10.00" fill="#000000"> </text>
<polyline fill="none" stroke="#000000" points="6,-124.5 74,-124.5 "/>
<text text-anchor="start" x="14" y="-112.5" font-family="Helvetica,sans-Serif" font-size="10.00" fill="#000000">+ update()</text>
</a>
</g>
</g>
<!-- Node1&#45;&gt;Node0 -->
<g id="edge1" class="edge">
<title>Node1&#45;&gt;Node0</title>
<path fill="none" stroke="#191970" d="M40,-95.4268C40,-86.6025 40,-77.2834 40,-68.6596"/>
<polygon fill="none" stroke="#191970" points="36.5001,-95.4873 40,-105.4873 43.5001,-95.4873 36.5001,-95.4873"/>
</g>
</g>
</svg>
