<?xml version="1.0" encoding="UTF-8" standalone="no"?>
<!DOCTYPE svg PUBLIC "-//W3C//DTD SVG 1.1//EN"
 "http://www.w3.org/Graphics/SVG/1.1/DTD/svg11.dtd">
<!-- Generated by graphviz version 2.40.1 (20161225.0304)
 -->
<!-- Title: BlockModel::gameOver Pages: 1 -->
<svg width="641pt" height="154pt"
 viewBox="0.00 0.00 641.00 154.00" xmlns="http://www.w3.org/2000/svg" xmlns:xlink="http://www.w3.org/1999/xlink">
<g id="graph0" class="graph" transform="scale(1 1) rotate(0) translate(4 150)">
<title>BlockModel::gameOver</title>
<polygon fill="#ffffff" stroke="transparent" points="-4,4 -4,-150 637,-150 637,4 -4,4"/>
<!-- Node16 -->
<g id="node1" class="node">
<title>Node16</title>
<polygon fill="#bfbfbf" stroke="#000000" points="0,-60.5 0,-79.5 119,-79.5 119,-60.5 0,-60.5"/>
<text text-anchor="middle" x="59.5" y="-67.5" font-family="Helvetica,sans-Serif" font-size="10.00" fill="#000000">BlockModel::gameOver</text>
</g>
<!-- Node17 -->
<g id="node2" class="node">
<title>Node17</title>
<g id="a_node2"><a xlink:href="classGameOverModel.html#ae35b062d76b100f5646a1a68f696f34a" target="_top" xlink:title="GameOverModel::gameOver">
<polygon fill="#ffffff" stroke="#000000" points="155,-60.5 155,-79.5 296,-79.5 296,-60.5 155,-60.5"/>
<text text-anchor="middle" x="225.5" y="-67.5" font-family="Helvetica,sans-Serif" font-size="10.00" fill="#000000">GameOverModel::gameOver</text>
</a>
</g>
</g>
<!-- Node16&#45;&gt;Node17 -->
<g id="edge1" class="edge">
<title>Node16&#45;&gt;Node17</title>
<path fill="none" stroke="#191970" d="M129.5536,-70C137.9464,-70 146.5203,-70 154.9205,-70"/>
<polygon fill="#191970" stroke="#191970" points="129.4298,-66.5001 119.4298,-70 129.4298,-73.5001 129.4298,-66.5001"/>
</g>
<!-- Node18 -->
<g id="node3" class="node">
<title>Node18</title>
<g id="a_node3"><a xlink:href="classGameOverRenderer.html#a4da5ed1252530ed382d3a5e2cda26c38" target="_top" xlink:title="GameOverRenderer::render">
<polygon fill="#ffffff" stroke="#000000" points="336.5,-126.5 336.5,-145.5 473.5,-145.5 473.5,-126.5 336.5,-126.5"/>
<text text-anchor="middle" x="405" y="-133.5" font-family="Helvetica,sans-Serif" font-size="10.00" fill="#000000">GameOverRenderer::render</text>
</a>
</g>
</g>
<!-- Node17&#45;&gt;Node18 -->
<g id="edge2" class="edge">
<title>Node17&#45;&gt;Node18</title>
<path fill="none" stroke="#191970" d="M253.8276,-83.9984C275.0029,-94.0918 304.8564,-107.5472 332,-117 342.1412,-120.5317 353.2755,-123.7503 363.7263,-126.494"/>
<polygon fill="#191970" stroke="#191970" points="255.278,-80.8122 244.75,-79.6239 252.2391,-87.1182 255.278,-80.8122"/>
</g>
<!-- Node19 -->
<g id="node4" class="node">
<title>Node19</title>
<g id="a_node4"><a xlink:href="classGameOverInputParser.html#afaef411b5b3382381e4698c9bbac4e7b" target="_top" xlink:title="GameOverInputParser\l::parse">
<polygon fill="#ffffff" stroke="#000000" points="348,-77 348,-107 462,-107 462,-77 348,-77"/>
<text text-anchor="start" x="356" y="-95" font-family="Helvetica,sans-Serif" font-size="10.00" fill="#000000">GameOverInputParser</text>
<text text-anchor="middle" x="405" y="-84" font-family="Helvetica,sans-Serif" font-size="10.00" fill="#000000">::parse</text>
</a>
</g>
</g>
<!-- Node17&#45;&gt;Node19 -->
<g id="edge3" class="edge">
<title>Node17&#45;&gt;Node19</title>
<path fill="none" stroke="#191970" d="M306.3371,-79.9076C320.3772,-81.6284 334.7112,-83.3852 347.9464,-85.0074"/>
<polygon fill="#191970" stroke="#191970" points="306.537,-76.406 296.1855,-78.6634 305.6854,-83.354 306.537,-76.406"/>
</g>
<!-- Node20 -->
<g id="node5" class="node">
<title>Node20</title>
<g id="a_node5"><a xlink:href="classPauseMenuModel.html#a6b533ca64f6b618111d88dd3484f6298" target="_top" xlink:title="PauseMenuModel::gameOver">
<polygon fill="#ffffff" stroke="#000000" points="332,-38.5 332,-57.5 478,-57.5 478,-38.5 332,-38.5"/>
<text text-anchor="middle" x="405" y="-45.5" font-family="Helvetica,sans-Serif" font-size="10.00" fill="#000000">PauseMenuModel::gameOver</text>
</a>
</g>
</g>
<!-- Node17&#45;&gt;Node20 -->
<g id="edge4" class="edge">
<title>Node17&#45;&gt;Node20</title>
<path fill="none" stroke="#191970" d="M306.1244,-60.1185C314.6503,-59.0735 323.2872,-58.0149 331.723,-56.981"/>
<polygon fill="#191970" stroke="#191970" points="305.6854,-56.646 296.1855,-61.3366 306.537,-63.594 305.6854,-56.646"/>
</g>
<!-- Node22 -->
<g id="node7" class="node">
<title>Node22</title>
<g id="a_node7"><a xlink:href="classGameOverModel.html#a4c603c7fff5db4853ef9beee3cc8cc2a" target="_top" xlink:title="GameOverModel::step">
<polygon fill="#ffffff" stroke="#000000" points="347.5,-.5 347.5,-19.5 462.5,-19.5 462.5,-.5 347.5,-.5"/>
<text text-anchor="middle" x="405" y="-7.5" font-family="Helvetica,sans-Serif" font-size="10.00" fill="#000000">GameOverModel::step</text>
</a>
</g>
</g>
<!-- Node17&#45;&gt;Node22 -->
<g id="edge6" class="edge">
<title>Node17&#45;&gt;Node22</title>
<path fill="none" stroke="#191970" d="M257.4737,-56.6043C278.4498,-48.0871 306.5987,-37.1663 332,-29 342.5973,-25.5931 354.2052,-22.3539 364.9843,-19.5467"/>
<polygon fill="#191970" stroke="#191970" points="256.0137,-53.42 248.0867,-60.4496 258.6672,-59.8976 256.0137,-53.42"/>
</g>
<!-- Node21 -->
<g id="node6" class="node">
<title>Node21</title>
<g id="a_node6"><a xlink:href="classPauseMenuInputParser.html#a2a68ecf1eee0e2c24ce0968299639e4e" target="_top" xlink:title="PauseMenuInputParser\l::parse">
<polygon fill="#ffffff" stroke="#000000" points="514,-33 514,-63 633,-63 633,-33 514,-33"/>
<text text-anchor="start" x="522" y="-51" font-family="Helvetica,sans-Serif" font-size="10.00" fill="#000000">PauseMenuInputParser</text>
<text text-anchor="middle" x="573.5" y="-40" font-family="Helvetica,sans-Serif" font-size="10.00" fill="#000000">::parse</text>
</a>
</g>
</g>
<!-- Node20&#45;&gt;Node21 -->
<g id="edge5" class="edge">
<title>Node20&#45;&gt;Node21</title>
<path fill="none" stroke="#191970" d="M488.4913,-48C497.0962,-48 505.7115,-48 513.9784,-48"/>
<polygon fill="#191970" stroke="#191970" points="488.4164,-44.5001 478.4164,-48 488.4163,-51.5001 488.4164,-44.5001"/>
</g>
</g>
</svg>
