<?xml version="1.0" encoding="UTF-8" standalone="no"?>
<!DOCTYPE svg PUBLIC "-//W3C//DTD SVG 1.1//EN"
 "http://www.w3.org/Graphics/SVG/1.1/DTD/svg11.dtd">
<!-- Generated by graphviz version 2.40.1 (20161225.0304)
 -->
<!-- Title: GameRenderer Pages: 1 -->
<svg width="500pt" height="309pt"
 viewBox="0.00 0.00 500.00 309.00" xmlns="http://www.w3.org/2000/svg" xmlns:xlink="http://www.w3.org/1999/xlink">
<g id="graph0" class="graph" transform="scale(1 1) rotate(0) translate(4 305)">
<title>GameRenderer</title>
<polygon fill="#ffffff" stroke="transparent" points="-4,4 -4,-305 496,-305 496,4 -4,4"/>
<!-- Node0 -->
<g id="node1" class="node">
<title>Node0</title>
<polygon fill="#bfbfbf" stroke="#000000" points="199,-243.5 199,-300.5 282,-300.5 282,-243.5 199,-243.5"/>
<text text-anchor="middle" x="240.5" y="-288.5" font-family="Helvetica,sans-Serif" font-size="10.00" fill="#000000">GameRenderer</text>
<polyline fill="none" stroke="#000000" points="199,-281.5 282,-281.5 "/>
<text text-anchor="middle" x="240.5" y="-269.5" font-family="Helvetica,sans-Serif" font-size="10.00" fill="#000000"> </text>
<polyline fill="none" stroke="#000000" points="199,-262.5 282,-262.5 "/>
<text text-anchor="start" x="207" y="-250.5" font-family="Helvetica,sans-Serif" font-size="10.00" fill="#000000">+ render()</text>
</g>
<!-- Node1 -->
<g id="node2" class="node">
<title>Node1</title>
<g id="a_node2"><a xlink:href="classGameOverRenderer.html" target="_top" xlink:title="{GameOverRenderer\n||+ GameOverRenderer()\l+ render()\l}">
<polygon fill="#ffffff" stroke="#000000" points="0,-127.5 0,-195.5 119,-195.5 119,-127.5 0,-127.5"/>
<text text-anchor="middle" x="59.5" y="-183.5" font-family="Helvetica,sans-Serif" font-size="10.00" fill="#000000">GameOverRenderer</text>
<polyline fill="none" stroke="#000000" points="0,-176.5 119,-176.5 "/>
<text text-anchor="middle" x="59.5" y="-164.5" font-family="Helvetica,sans-Serif" font-size="10.00" fill="#000000"> </text>
<polyline fill="none" stroke="#000000" points="0,-157.5 119,-157.5 "/>
<text text-anchor="start" x="8" y="-145.5" font-family="Helvetica,sans-Serif" font-size="10.00" fill="#000000">+ GameOverRenderer()</text>
<text text-anchor="start" x="8" y="-134.5" font-family="Helvetica,sans-Serif" font-size="10.00" fill="#000000">+ render()</text>
</a>
</g>
</g>
<!-- Node0&#45;&gt;Node1 -->
<g id="edge1" class="edge">
<title>Node0&#45;&gt;Node1</title>
<path fill="none" stroke="#191970" d="M190.2358,-243.6438C170.8025,-232.4686 148.4737,-219.3675 128.5,-207 122.6441,-203.3741 116.5583,-199.5083 110.5348,-195.62"/>
<polygon fill="none" stroke="#191970" points="188.5254,-246.6976 198.942,-248.6332 192.006,-240.6242 188.5254,-246.6976"/>
</g>
<!-- Node2 -->
<g id="node3" class="node">
<title>Node2</title>
<g id="a_node3"><a xlink:href="classGridRenderer.html" target="_top" xlink:title="{GridRenderer\n|# d_cellTextures\l|+ GridRenderer()\l+ ~GridRenderer()\l+ render()\l# renderGrid()\l}">
<polygon fill="#ffffff" stroke="#000000" points="137,-116.5 137,-206.5 232,-206.5 232,-116.5 137,-116.5"/>
<text text-anchor="middle" x="184.5" y="-194.5" font-family="Helvetica,sans-Serif" font-size="10.00" fill="#000000">GridRenderer</text>
<polyline fill="none" stroke="#000000" points="137,-187.5 232,-187.5 "/>
<text text-anchor="start" x="145" y="-175.5" font-family="Helvetica,sans-Serif" font-size="10.00" fill="#000000"># d_cellTextures</text>
<polyline fill="none" stroke="#000000" points="137,-168.5 232,-168.5 "/>
<text text-anchor="start" x="145" y="-156.5" font-family="Helvetica,sans-Serif" font-size="10.00" fill="#000000">+ GridRenderer()</text>
<text text-anchor="start" x="145" y="-145.5" font-family="Helvetica,sans-Serif" font-size="10.00" fill="#000000">+ ~GridRenderer()</text>
<text text-anchor="start" x="145" y="-134.5" font-family="Helvetica,sans-Serif" font-size="10.00" fill="#000000">+ render()</text>
<text text-anchor="start" x="145" y="-123.5" font-family="Helvetica,sans-Serif" font-size="10.00" fill="#000000"># renderGrid()</text>
</a>
</g>
</g>
<!-- Node0&#45;&gt;Node2 -->
<g id="edge2" class="edge">
<title>Node0&#45;&gt;Node2</title>
<path fill="none" stroke="#191970" d="M221.4038,-234.3192C216.9183,-225.4682 212.0924,-215.9458 207.4572,-206.7995"/>
<polygon fill="none" stroke="#191970" points="218.2903,-235.9181 225.9328,-243.2559 224.5343,-232.7538 218.2903,-235.9181"/>
</g>
<!-- Node5 -->
<g id="node6" class="node">
<title>Node5</title>
<g id="a_node6"><a xlink:href="classLevelRenderer.html" target="_top" xlink:title="{LevelRenderer\n||+ LevelRenderer()\l+ render()\l}">
<polygon fill="#ffffff" stroke="#000000" points="250,-127.5 250,-195.5 345,-195.5 345,-127.5 250,-127.5"/>
<text text-anchor="middle" x="297.5" y="-183.5" font-family="Helvetica,sans-Serif" font-size="10.00" fill="#000000">LevelRenderer</text>
<polyline fill="none" stroke="#000000" points="250,-176.5 345,-176.5 "/>
<text text-anchor="middle" x="297.5" y="-164.5" font-family="Helvetica,sans-Serif" font-size="10.00" fill="#000000"> </text>
<polyline fill="none" stroke="#000000" points="250,-157.5 345,-157.5 "/>
<text text-anchor="start" x="258" y="-145.5" font-family="Helvetica,sans-Serif" font-size="10.00" fill="#000000">+ LevelRenderer()</text>
<text text-anchor="start" x="258" y="-134.5" font-family="Helvetica,sans-Serif" font-size="10.00" fill="#000000">+ render()</text>
</a>
</g>
</g>
<!-- Node0&#45;&gt;Node5 -->
<g id="edge5" class="edge">
<title>Node0&#45;&gt;Node5</title>
<path fill="none" stroke="#191970" d="M260.0914,-234.0202C266.5257,-221.5466 273.6335,-207.7675 279.9099,-195.6001"/>
<polygon fill="none" stroke="#191970" points="256.8012,-232.7641 255.3273,-243.2559 263.0223,-235.9732 256.8012,-232.7641"/>
</g>
<!-- Node6 -->
<g id="node7" class="node">
<title>Node6</title>
<g id="a_node7"><a xlink:href="classPauseMenuRenderer.html" target="_top" xlink:title="{PauseMenuRenderer\n||+ PauseMenuRenderer()\l+ ~PauseMenuRenderer()\l+ render()\l}">
<polygon fill="#ffffff" stroke="#000000" points="363,-122 363,-201 492,-201 492,-122 363,-122"/>
<text text-anchor="middle" x="427.5" y="-189" font-family="Helvetica,sans-Serif" font-size="10.00" fill="#000000">PauseMenuRenderer</text>
<polyline fill="none" stroke="#000000" points="363,-182 492,-182 "/>
<text text-anchor="middle" x="427.5" y="-170" font-family="Helvetica,sans-Serif" font-size="10.00" fill="#000000"> </text>
<polyline fill="none" stroke="#000000" points="363,-163 492,-163 "/>
<text text-anchor="start" x="371" y="-151" font-family="Helvetica,sans-Serif" font-size="10.00" fill="#000000">+ PauseMenuRenderer()</text>
<text text-anchor="start" x="371" y="-140" font-family="Helvetica,sans-Serif" font-size="10.00" fill="#000000">+ ~PauseMenuRenderer()</text>
<text text-anchor="start" x="371" y="-129" font-family="Helvetica,sans-Serif" font-size="10.00" fill="#000000">+ render()</text>
</a>
</g>
</g>
<!-- Node0&#45;&gt;Node6 -->
<g id="edge6" class="edge">
<title>Node0&#45;&gt;Node6</title>
<path fill="none" stroke="#191970" d="M291.0482,-243.7407C310.9267,-232.4812 333.8837,-219.296 354.5,-207 357.7065,-205.0876 360.9829,-203.1148 364.2849,-201.1116"/>
<polygon fill="none" stroke="#191970" points="289.1351,-240.8015 282.1509,-248.7684 292.5789,-246.8959 289.1351,-240.8015"/>
</g>
<!-- Node3 -->
<g id="node4" class="node">
<title>Node3</title>
<g id="a_node4"><a xlink:href="classBlockRenderer.html" target="_top" xlink:title="{BlockRenderer\n||+ BlockRenderer()\l+ render()\l}">
<polygon fill="#ffffff" stroke="#000000" points="77.5,-6 77.5,-74 173.5,-74 173.5,-6 77.5,-6"/>
<text text-anchor="middle" x="125.5" y="-62" font-family="Helvetica,sans-Serif" font-size="10.00" fill="#000000">BlockRenderer</text>
<polyline fill="none" stroke="#000000" points="77.5,-55 173.5,-55 "/>
<text text-anchor="middle" x="125.5" y="-43" font-family="Helvetica,sans-Serif" font-size="10.00" fill="#000000"> </text>
<polyline fill="none" stroke="#000000" points="77.5,-36 173.5,-36 "/>
<text text-anchor="start" x="85.5" y="-24" font-family="Helvetica,sans-Serif" font-size="10.00" fill="#000000">+ BlockRenderer()</text>
<text text-anchor="start" x="85.5" y="-13" font-family="Helvetica,sans-Serif" font-size="10.00" fill="#000000">+ render()</text>
</a>
</g>
</g>
<!-- Node2&#45;&gt;Node3 -->
<g id="edge3" class="edge">
<title>Node2&#45;&gt;Node3</title>
<path fill="none" stroke="#191970" d="M158.0367,-107.0036C152.6291,-95.8677 147.084,-84.4484 142.1385,-74.264"/>
<polygon fill="none" stroke="#191970" points="155.0139,-108.7913 162.5306,-116.2579 161.3108,-105.7335 155.0139,-108.7913"/>
</g>
<!-- Node4 -->
<g id="node5" class="node">
<title>Node4</title>
<g id="a_node5"><a xlink:href="classTetrisRenderer.html" target="_top" xlink:title="{TetrisRenderer\n||+ TetrisRenderer()\l+ ~TetrisRenderer()\l+ render()\l}">
<polygon fill="#ffffff" stroke="#000000" points="191.5,-.5 191.5,-79.5 293.5,-79.5 293.5,-.5 191.5,-.5"/>
<text text-anchor="middle" x="242.5" y="-67.5" font-family="Helvetica,sans-Serif" font-size="10.00" fill="#000000">TetrisRenderer</text>
<polyline fill="none" stroke="#000000" points="191.5,-60.5 293.5,-60.5 "/>
<text text-anchor="middle" x="242.5" y="-48.5" font-family="Helvetica,sans-Serif" font-size="10.00" fill="#000000"> </text>
<polyline fill="none" stroke="#000000" points="191.5,-41.5 293.5,-41.5 "/>
<text text-anchor="start" x="199.5" y="-29.5" font-family="Helvetica,sans-Serif" font-size="10.00" fill="#000000">+ TetrisRenderer()</text>
<text text-anchor="start" x="199.5" y="-18.5" font-family="Helvetica,sans-Serif" font-size="10.00" fill="#000000">+ ~TetrisRenderer()</text>
<text text-anchor="start" x="199.5" y="-7.5" font-family="Helvetica,sans-Serif" font-size="10.00" fill="#000000">+ render()</text>
</a>
</g>
</g>
<!-- Node2&#45;&gt;Node4 -->
<g id="edge4" class="edge">
<title>Node2&#45;&gt;Node4</title>
<path fill="none" stroke="#191970" d="M210.459,-107.1204C214.8679,-97.8846 219.3715,-88.4502 223.5563,-79.6838"/>
<polygon fill="none" stroke="#191970" points="207.2465,-105.7256 206.0971,-116.2579 213.5637,-108.7412 207.2465,-105.7256"/>
</g>
</g>
</svg>
