<?xml version="1.0" encoding="UTF-8" standalone="no"?>
<!DOCTYPE svg PUBLIC "-//W3C//DTD SVG 1.1//EN"
 "http://www.w3.org/Graphics/SVG/1.1/DTD/svg11.dtd">
<!-- Generated by graphviz version 2.40.1 (20161225.0304)
 -->
<!-- Title: Model Pages: 1 -->
<svg width="585pt" height="424pt"
 viewBox="0.00 0.00 584.50 424.00" xmlns="http://www.w3.org/2000/svg" xmlns:xlink="http://www.w3.org/1999/xlink">
<g id="graph0" class="graph" transform="scale(1 1) rotate(0) translate(4 420)">
<title>Model</title>
<polygon fill="#ffffff" stroke="transparent" points="-4,4 -4,-420 580.5,-420 580.5,4 -4,4"/>
<!-- Node0 -->
<g id="node1" class="node">
<title>Node0</title>
<polygon fill="#bfbfbf" stroke="#000000" points="256,-336.5 256,-415.5 308,-415.5 308,-336.5 256,-336.5"/>
<text text-anchor="middle" x="282" y="-403.5" font-family="Helvetica,sans-Serif" font-size="10.00" fill="#000000">Model</text>
<polyline fill="none" stroke="#000000" points="256,-396.5 308,-396.5 "/>
<text text-anchor="middle" x="282" y="-384.5" font-family="Helvetica,sans-Serif" font-size="10.00" fill="#000000"> </text>
<polyline fill="none" stroke="#000000" points="256,-377.5 308,-377.5 "/>
<text text-anchor="start" x="264" y="-365.5" font-family="Helvetica,sans-Serif" font-size="10.00" fill="#000000">+ step()</text>
<text text-anchor="start" x="264" y="-354.5" font-family="Helvetica,sans-Serif" font-size="10.00" fill="#000000">+ alive()</text>
<text text-anchor="start" x="264" y="-343.5" font-family="Helvetica,sans-Serif" font-size="10.00" fill="#000000">+ kill()</text>
</g>
<!-- Node1 -->
<g id="node2" class="node">
<title>Node1</title>
<g id="a_node2"><a xlink:href="classBlockModel.html" target="_top" xlink:title="{BlockModel\n||+ BlockModel()\l+ move()\l+ rotate()\l+ speedup()\l+ position()\l+ currentBlock()\l+ nextBlock()\l+ gameOver()\l+ placed()\l+ step()\l+ reset()\l+ grid()\l}">
<polygon fill="#ffffff" stroke="#000000" points="0,-61 0,-239 86,-239 86,-61 0,-61"/>
<text text-anchor="middle" x="43" y="-227" font-family="Helvetica,sans-Serif" font-size="10.00" fill="#000000">BlockModel</text>
<polyline fill="none" stroke="#000000" points="0,-220 86,-220 "/>
<text text-anchor="middle" x="43" y="-208" font-family="Helvetica,sans-Serif" font-size="10.00" fill="#000000"> </text>
<polyline fill="none" stroke="#000000" points="0,-201 86,-201 "/>
<text text-anchor="start" x="8" y="-189" font-family="Helvetica,sans-Serif" font-size="10.00" fill="#000000">+ BlockModel()</text>
<text text-anchor="start" x="8" y="-178" font-family="Helvetica,sans-Serif" font-size="10.00" fill="#000000">+ move()</text>
<text text-anchor="start" x="8" y="-167" font-family="Helvetica,sans-Serif" font-size="10.00" fill="#000000">+ rotate()</text>
<text text-anchor="start" x="8" y="-156" font-family="Helvetica,sans-Serif" font-size="10.00" fill="#000000">+ speedup()</text>
<text text-anchor="start" x="8" y="-145" font-family="Helvetica,sans-Serif" font-size="10.00" fill="#000000">+ position()</text>
<text text-anchor="start" x="8" y="-134" font-family="Helvetica,sans-Serif" font-size="10.00" fill="#000000">+ currentBlock()</text>
<text text-anchor="start" x="8" y="-123" font-family="Helvetica,sans-Serif" font-size="10.00" fill="#000000">+ nextBlock()</text>
<text text-anchor="start" x="8" y="-112" font-family="Helvetica,sans-Serif" font-size="10.00" fill="#000000">+ gameOver()</text>
<text text-anchor="start" x="8" y="-101" font-family="Helvetica,sans-Serif" font-size="10.00" fill="#000000">+ placed()</text>
<text text-anchor="start" x="8" y="-90" font-family="Helvetica,sans-Serif" font-size="10.00" fill="#000000">+ step()</text>
<text text-anchor="start" x="8" y="-79" font-family="Helvetica,sans-Serif" font-size="10.00" fill="#000000">+ reset()</text>
<text text-anchor="start" x="8" y="-68" font-family="Helvetica,sans-Serif" font-size="10.00" fill="#000000">+ grid()</text>
</a>
</g>
</g>
<!-- Node0&#45;&gt;Node1 -->
<g id="edge1" class="edge">
<title>Node0&#45;&gt;Node1</title>
<path fill="none" stroke="#191970" d="M245.7923,-370.4746C203.9651,-362.252 135.6966,-342.8837 95,-300 78.9679,-283.1063 67.8541,-261.0224 60.1583,-239.0152"/>
<polygon fill="none" stroke="#191970" points="245.3536,-373.9528 255.8238,-372.3325 246.6284,-367.0699 245.3536,-373.9528"/>
</g>
<!-- Node2 -->
<g id="node3" class="node">
<title>Node2</title>
<g id="a_node3"><a xlink:href="classGameOverModel.html" target="_top" xlink:title="{GameOverModel\n||+ GameOverModel()\l+ step()\l+ gameOver()\l+ reset()\l+ gameOverTransition()\l}">
<polygon fill="#ffffff" stroke="#000000" points="104.5,-99.5 104.5,-200.5 223.5,-200.5 223.5,-99.5 104.5,-99.5"/>
<text text-anchor="middle" x="164" y="-188.5" font-family="Helvetica,sans-Serif" font-size="10.00" fill="#000000">GameOverModel</text>
<polyline fill="none" stroke="#000000" points="104.5,-181.5 223.5,-181.5 "/>
<text text-anchor="middle" x="164" y="-169.5" font-family="Helvetica,sans-Serif" font-size="10.00" fill="#000000"> </text>
<polyline fill="none" stroke="#000000" points="104.5,-162.5 223.5,-162.5 "/>
<text text-anchor="start" x="112.5" y="-150.5" font-family="Helvetica,sans-Serif" font-size="10.00" fill="#000000">+ GameOverModel()</text>
<text text-anchor="start" x="112.5" y="-139.5" font-family="Helvetica,sans-Serif" font-size="10.00" fill="#000000">+ step()</text>
<text text-anchor="start" x="112.5" y="-128.5" font-family="Helvetica,sans-Serif" font-size="10.00" fill="#000000">+ gameOver()</text>
<text text-anchor="start" x="112.5" y="-117.5" font-family="Helvetica,sans-Serif" font-size="10.00" fill="#000000">+ reset()</text>
<text text-anchor="start" x="112.5" y="-106.5" font-family="Helvetica,sans-Serif" font-size="10.00" fill="#000000">+ gameOverTransition()</text>
</a>
</g>
</g>
<!-- Node0&#45;&gt;Node2 -->
<g id="edge2" class="edge">
<title>Node0&#45;&gt;Node2</title>
<path fill="none" stroke="#191970" d="M250.3325,-330.3737C243.9702,-320.5302 237.5429,-310.0562 232,-300 214.2639,-267.8228 197.2001,-230.1549 184.6024,-200.6158"/>
<polygon fill="none" stroke="#191970" points="247.4715,-332.3934 255.883,-338.8354 253.3247,-328.554 247.4715,-332.3934"/>
</g>
<!-- Node3 -->
<g id="node4" class="node">
<title>Node3</title>
<g id="a_node4"><a xlink:href="classLevelModel.html" target="_top" xlink:title="{LevelModel\n||+ LevelModel()\l+ step()\l+ level()\l}">
<polygon fill="#ffffff" stroke="#000000" points="241.5,-110.5 241.5,-189.5 322.5,-189.5 322.5,-110.5 241.5,-110.5"/>
<text text-anchor="middle" x="282" y="-177.5" font-family="Helvetica,sans-Serif" font-size="10.00" fill="#000000">LevelModel</text>
<polyline fill="none" stroke="#000000" points="241.5,-170.5 322.5,-170.5 "/>
<text text-anchor="middle" x="282" y="-158.5" font-family="Helvetica,sans-Serif" font-size="10.00" fill="#000000"> </text>
<polyline fill="none" stroke="#000000" points="241.5,-151.5 322.5,-151.5 "/>
<text text-anchor="start" x="249.5" y="-139.5" font-family="Helvetica,sans-Serif" font-size="10.00" fill="#000000">+ LevelModel()</text>
<text text-anchor="start" x="249.5" y="-128.5" font-family="Helvetica,sans-Serif" font-size="10.00" fill="#000000">+ step()</text>
<text text-anchor="start" x="249.5" y="-117.5" font-family="Helvetica,sans-Serif" font-size="10.00" fill="#000000">+ level()</text>
</a>
</g>
</g>
<!-- Node0&#45;&gt;Node3 -->
<g id="edge3" class="edge">
<title>Node0&#45;&gt;Node3</title>
<path fill="none" stroke="#191970" d="M282,-326.3034C282,-285.2034 282,-227.609 282,-189.5793"/>
<polygon fill="none" stroke="#191970" points="278.5001,-326.3752 282,-336.3752 285.5001,-326.3752 278.5001,-326.3752"/>
</g>
<!-- Node4 -->
<g id="node5" class="node">
<title>Node4</title>
<g id="a_node5"><a xlink:href="classPauseMenuModel.html" target="_top" xlink:title="{PauseMenuModel\n||+ PauseMenuModel()\l+ step()\l+ paused()\l+ firstStart()\l+ gameOver()\l+ toggle()\l}">
<polygon fill="#ffffff" stroke="#000000" points="341,-94 341,-206 451,-206 451,-94 341,-94"/>
<text text-anchor="middle" x="396" y="-194" font-family="Helvetica,sans-Serif" font-size="10.00" fill="#000000">PauseMenuModel</text>
<polyline fill="none" stroke="#000000" points="341,-187 451,-187 "/>
<text text-anchor="middle" x="396" y="-175" font-family="Helvetica,sans-Serif" font-size="10.00" fill="#000000"> </text>
<polyline fill="none" stroke="#000000" points="341,-168 451,-168 "/>
<text text-anchor="start" x="349" y="-156" font-family="Helvetica,sans-Serif" font-size="10.00" fill="#000000">+ PauseMenuModel()</text>
<text text-anchor="start" x="349" y="-145" font-family="Helvetica,sans-Serif" font-size="10.00" fill="#000000">+ step()</text>
<text text-anchor="start" x="349" y="-134" font-family="Helvetica,sans-Serif" font-size="10.00" fill="#000000">+ paused()</text>
<text text-anchor="start" x="349" y="-123" font-family="Helvetica,sans-Serif" font-size="10.00" fill="#000000">+ firstStart()</text>
<text text-anchor="start" x="349" y="-112" font-family="Helvetica,sans-Serif" font-size="10.00" fill="#000000">+ gameOver()</text>
<text text-anchor="start" x="349" y="-101" font-family="Helvetica,sans-Serif" font-size="10.00" fill="#000000">+ toggle()</text>
</a>
</g>
</g>
<!-- Node0&#45;&gt;Node4 -->
<g id="edge4" class="edge">
<title>Node0&#45;&gt;Node4</title>
<path fill="none" stroke="#191970" d="M313.6381,-330.7821C320.0553,-320.8414 326.512,-310.2251 332,-300 348.1344,-269.9391 363.2597,-234.9435 374.7511,-206.3191"/>
<polygon fill="none" stroke="#191970" points="310.597,-329.0368 308.0343,-339.3171 316.4485,-332.8788 310.597,-329.0368"/>
</g>
<!-- Node5 -->
<g id="node6" class="node">
<title>Node5</title>
<g id="a_node6"><a xlink:href="classTetrisModel.html" target="_top" xlink:title="{TetrisModel\n|+ AIR\l+ SAND\l+ STONE\l+ DIAMOND\l+ PLANT\l+ COAL\l+ LAVA\l+ GLASS\l+ COAL_FIRE\l+ ICE\l+ NUM_CELLS\l+ NUM_LEVELS\l|+ TetrisModel()\l+ ~TetrisModel()\l+ score()\l+ highScore()\l+ value()\l+ updateHighScore()\l+ level()\l+ timeToWait()\l+ step()\l+ grid()\l+ reset()\l+ stamp()\l}">
<polygon fill="#ffffff" stroke="#000000" points="469.5,-.5 469.5,-299.5 576.5,-299.5 576.5,-.5 469.5,-.5"/>
<text text-anchor="middle" x="523" y="-287.5" font-family="Helvetica,sans-Serif" font-size="10.00" fill="#000000">TetrisModel</text>
<polyline fill="none" stroke="#000000" points="469.5,-280.5 576.5,-280.5 "/>
<text text-anchor="start" x="477.5" y="-268.5" font-family="Helvetica,sans-Serif" font-size="10.00" fill="#000000">+ AIR</text>
<text text-anchor="start" x="477.5" y="-257.5" font-family="Helvetica,sans-Serif" font-size="10.00" fill="#000000">+ SAND</text>
<text text-anchor="start" x="477.5" y="-246.5" font-family="Helvetica,sans-Serif" font-size="10.00" fill="#000000">+ STONE</text>
<text text-anchor="start" x="477.5" y="-235.5" font-family="Helvetica,sans-Serif" font-size="10.00" fill="#000000">+ DIAMOND</text>
<text text-anchor="start" x="477.5" y="-224.5" font-family="Helvetica,sans-Serif" font-size="10.00" fill="#000000">+ PLANT</text>
<text text-anchor="start" x="477.5" y="-213.5" font-family="Helvetica,sans-Serif" font-size="10.00" fill="#000000">+ COAL</text>
<text text-anchor="start" x="477.5" y="-202.5" font-family="Helvetica,sans-Serif" font-size="10.00" fill="#000000">+ LAVA</text>
<text text-anchor="start" x="477.5" y="-191.5" font-family="Helvetica,sans-Serif" font-size="10.00" fill="#000000">+ GLASS</text>
<text text-anchor="start" x="477.5" y="-180.5" font-family="Helvetica,sans-Serif" font-size="10.00" fill="#000000">+ COAL_FIRE</text>
<text text-anchor="start" x="477.5" y="-169.5" font-family="Helvetica,sans-Serif" font-size="10.00" fill="#000000">+ ICE</text>
<text text-anchor="start" x="477.5" y="-158.5" font-family="Helvetica,sans-Serif" font-size="10.00" fill="#000000">+ NUM_CELLS</text>
<text text-anchor="start" x="477.5" y="-147.5" font-family="Helvetica,sans-Serif" font-size="10.00" fill="#000000">+ NUM_LEVELS</text>
<polyline fill="none" stroke="#000000" points="469.5,-140.5 576.5,-140.5 "/>
<text text-anchor="start" x="477.5" y="-128.5" font-family="Helvetica,sans-Serif" font-size="10.00" fill="#000000">+ TetrisModel()</text>
<text text-anchor="start" x="477.5" y="-117.5" font-family="Helvetica,sans-Serif" font-size="10.00" fill="#000000">+ ~TetrisModel()</text>
<text text-anchor="start" x="477.5" y="-106.5" font-family="Helvetica,sans-Serif" font-size="10.00" fill="#000000">+ score()</text>
<text text-anchor="start" x="477.5" y="-95.5" font-family="Helvetica,sans-Serif" font-size="10.00" fill="#000000">+ highScore()</text>
<text text-anchor="start" x="477.5" y="-84.5" font-family="Helvetica,sans-Serif" font-size="10.00" fill="#000000">+ value()</text>
<text text-anchor="start" x="477.5" y="-73.5" font-family="Helvetica,sans-Serif" font-size="10.00" fill="#000000">+ updateHighScore()</text>
<text text-anchor="start" x="477.5" y="-62.5" font-family="Helvetica,sans-Serif" font-size="10.00" fill="#000000">+ level()</text>
<text text-anchor="start" x="477.5" y="-51.5" font-family="Helvetica,sans-Serif" font-size="10.00" fill="#000000">+ timeToWait()</text>
<text text-anchor="start" x="477.5" y="-40.5" font-family="Helvetica,sans-Serif" font-size="10.00" fill="#000000">+ step()</text>
<text text-anchor="start" x="477.5" y="-29.5" font-family="Helvetica,sans-Serif" font-size="10.00" fill="#000000">+ grid()</text>
<text text-anchor="start" x="477.5" y="-18.5" font-family="Helvetica,sans-Serif" font-size="10.00" fill="#000000">+ reset()</text>
<text text-anchor="start" x="477.5" y="-7.5" font-family="Helvetica,sans-Serif" font-size="10.00" fill="#000000">+ stamp()</text>
</a>
</g>
</g>
<!-- Node0&#45;&gt;Node5 -->
<g id="edge5" class="edge">
<title>Node0&#45;&gt;Node5</title>
<path fill="none" stroke="#191970" d="M317.9175,-369.1001C357.4708,-359.7811 420.6642,-339.5689 460,-300 463.2857,-296.6948 466.4096,-293.1926 469.3788,-289.5324"/>
<polygon fill="none" stroke="#191970" points="317.1473,-365.6858 308.157,-371.2917 318.6809,-372.5158 317.1473,-365.6858"/>
</g>
</g>
</svg>
