<?xml version="1.0" encoding="UTF-8" standalone="no"?>
<!DOCTYPE svg PUBLIC "-//W3C//DTD SVG 1.1//EN"
 "http://www.w3.org/Graphics/SVG/1.1/DTD/svg11.dtd">
<!-- Generated by graphviz version 2.40.1 (20161225.0304)
 -->
<!-- Title: PauseMenuRenderer::render Pages: 1 -->
<svg width="296pt" height="104pt"
 viewBox="0.00 0.00 296.00 104.00" xmlns="http://www.w3.org/2000/svg" xmlns:xlink="http://www.w3.org/1999/xlink">
<g id="graph0" class="graph" transform="scale(1 1) rotate(0) translate(4 100)">
<title>PauseMenuRenderer::render</title>
<polygon fill="#ffffff" stroke="transparent" points="-4,4 -4,-100 292,-100 292,4 -4,4"/>
<!-- Node7 -->
<g id="node1" class="node">
<title>Node7</title>
<polygon fill="#bfbfbf" stroke="#000000" points="0,-33 0,-63 114,-63 114,-33 0,-33"/>
<text text-anchor="start" x="8" y="-51" font-family="Helvetica,sans-Serif" font-size="10.00" fill="#000000">PauseMenuRenderer::</text>
<text text-anchor="middle" x="57" y="-40" font-family="Helvetica,sans-Serif" font-size="10.00" fill="#000000">render</text>
</g>
<!-- Node8 -->
<g id="node2" class="node">
<title>Node8</title>
<g id="a_node2"><a xlink:href="classPauseMenuModel.html#a782b2f4f78ab15cb521c634340068308" target="_top" xlink:title="PauseMenuModel::firstStart">
<polygon fill="#ffffff" stroke="#000000" points="150,-76.5 150,-95.5 288,-95.5 288,-76.5 150,-76.5"/>
<text text-anchor="middle" x="219" y="-83.5" font-family="Helvetica,sans-Serif" font-size="10.00" fill="#000000">PauseMenuModel::firstStart</text>
</a>
</g>
</g>
<!-- Node7&#45;&gt;Node8 -->
<g id="edge1" class="edge">
<title>Node7&#45;&gt;Node8</title>
<path fill="none" stroke="#191970" d="M114.1151,-61.3974C131.7819,-65.5414 151.1135,-70.076 168.3139,-74.1107"/>
<polygon fill="#191970" stroke="#191970" points="167.6313,-77.5455 178.1663,-76.4217 169.2299,-70.7304 167.6313,-77.5455"/>
</g>
<!-- Node9 -->
<g id="node3" class="node">
<title>Node9</title>
<g id="a_node3"><a xlink:href="classPauseMenuModel.html#a95d680e91f951dac1ceb51d3ecb6a691" target="_top" xlink:title="PauseMenuModel::paused">
<polygon fill="#ffffff" stroke="#000000" points="153,-38.5 153,-57.5 285,-57.5 285,-38.5 153,-38.5"/>
<text text-anchor="middle" x="219" y="-45.5" font-family="Helvetica,sans-Serif" font-size="10.00" fill="#000000">PauseMenuModel::paused</text>
</a>
</g>
</g>
<!-- Node7&#45;&gt;Node9 -->
<g id="edge2" class="edge">
<title>Node7&#45;&gt;Node9</title>
<path fill="none" stroke="#191970" d="M114.1151,-48C123.4453,-48 133.2398,-48 142.9394,-48"/>
<polygon fill="#191970" stroke="#191970" points="142.9898,-51.5001 152.9898,-48 142.9897,-44.5001 142.9898,-51.5001"/>
</g>
<!-- Node10 -->
<g id="node4" class="node">
<title>Node10</title>
<g id="a_node4"><a xlink:href="classLerpSeries.html#abda894bcb71c16d3a658955b24fbe4c2" target="_top" xlink:title="LerpSeries::reset">
<polygon fill="#ffffff" stroke="#000000" points="173.5,-.5 173.5,-19.5 264.5,-19.5 264.5,-.5 173.5,-.5"/>
<text text-anchor="middle" x="219" y="-7.5" font-family="Helvetica,sans-Serif" font-size="10.00" fill="#000000">LerpSeries::reset</text>
</a>
</g>
</g>
<!-- Node7&#45;&gt;Node10 -->
<g id="edge3" class="edge">
<title>Node7&#45;&gt;Node10</title>
<path fill="none" stroke="#191970" d="M114.1151,-34.6026C131.7819,-30.4586 151.1135,-25.924 168.3139,-21.8893"/>
<polygon fill="#191970" stroke="#191970" points="169.2299,-25.2696 178.1663,-19.5783 167.6313,-18.4545 169.2299,-25.2696"/>
</g>
</g>
</svg>
