<?xml version="1.0" encoding="UTF-8" standalone="no"?>
<!DOCTYPE svg PUBLIC "-//W3C//DTD SVG 1.1//EN"
 "http://www.w3.org/Graphics/SVG/1.1/DTD/svg11.dtd">
<!-- Generated by graphviz version 2.40.1 (20161225.0304)
 -->
<!-- Title: TetrisRenderer::TetrisRenderer Pages: 1 -->
<svg width="345pt" height="66pt"
 viewBox="0.00 0.00 345.00 66.00" xmlns="http://www.w3.org/2000/svg" xmlns:xlink="http://www.w3.org/1999/xlink">
<g id="graph0" class="graph" transform="scale(1 1) rotate(0) translate(4 62)">
<title>TetrisRenderer::TetrisRenderer</title>
<polygon fill="#ffffff" stroke="transparent" points="-4,4 -4,-62 341,-62 341,4 -4,4"/>
<!-- Node0 -->
<g id="node1" class="node">
<title>Node0</title>
<polygon fill="#bfbfbf" stroke="#000000" points="0,-19.5 0,-38.5 152,-38.5 152,-19.5 0,-19.5"/>
<text text-anchor="middle" x="76" y="-26.5" font-family="Helvetica,sans-Serif" font-size="10.00" fill="#000000">TetrisRenderer::TetrisRenderer</text>
</g>
<!-- Node1 -->
<g id="node2" class="node">
<title>Node1</title>
<g id="a_node2"><a xlink:href="classTextureFactory.html#afe688b4ebcc1d6ffec0f6a791e8ba957" target="_top" xlink:title="TextureFactory::renderTexture">
<polygon fill="#ffffff" stroke="#000000" points="188,-38.5 188,-57.5 337,-57.5 337,-38.5 188,-38.5"/>
<text text-anchor="middle" x="262.5" y="-45.5" font-family="Helvetica,sans-Serif" font-size="10.00" fill="#000000">TextureFactory::renderTexture</text>
</a>
</g>
</g>
<!-- Node0&#45;&gt;Node1 -->
<g id="edge1" class="edge">
<title>Node0&#45;&gt;Node1</title>
<path fill="none" stroke="#191970" d="M152.1257,-36.7554C160.5957,-37.6183 169.2609,-38.5011 177.8287,-39.374"/>
<polygon fill="#191970" stroke="#191970" points="177.521,-42.8607 187.8243,-40.3923 178.2306,-35.8967 177.521,-42.8607"/>
</g>
<!-- Node2 -->
<g id="node3" class="node">
<title>Node2</title>
<g id="a_node3"><a xlink:href="classTextureFactory.html#abac5ce46bbe0bde09755704f2eca2330" target="_top" xlink:title="TextureFactory::texture">
<polygon fill="#ffffff" stroke="#000000" points="203,-.5 203,-19.5 322,-19.5 322,-.5 203,-.5"/>
<text text-anchor="middle" x="262.5" y="-7.5" font-family="Helvetica,sans-Serif" font-size="10.00" fill="#000000">TextureFactory::texture</text>
</a>
</g>
</g>
<!-- Node0&#45;&gt;Node2 -->
<g id="edge2" class="edge">
<title>Node0&#45;&gt;Node2</title>
<path fill="none" stroke="#191970" d="M152.1257,-21.2446C165.6097,-19.8709 179.5885,-18.4467 192.8814,-17.0925"/>
<polygon fill="#191970" stroke="#191970" points="193.2995,-20.5681 202.8932,-16.0725 192.59,-13.6042 193.2995,-20.5681"/>
</g>
</g>
</svg>
