<?xml version="1.0" encoding="UTF-8" standalone="no"?>
<!DOCTYPE svg PUBLIC "-//W3C//DTD SVG 1.1//EN"
 "http://www.w3.org/Graphics/SVG/1.1/DTD/svg11.dtd">
<!-- Generated by graphviz version 2.40.1 (20161225.0304)
 -->
<!-- Title: PauseMenuAudio Pages: 1 -->
<svg width="116pt" height="171pt"
 viewBox="0.00 0.00 116.00 171.00" xmlns="http://www.w3.org/2000/svg" xmlns:xlink="http://www.w3.org/1999/xlink">
<g id="graph0" class="graph" transform="scale(1 1) rotate(0) translate(4 167)">
<title>PauseMenuAudio</title>
<polygon fill="#ffffff" stroke="transparent" points="-4,4 -4,-167 112,-167 112,4 -4,4"/>
<!-- Node2 -->
<g id="node1" class="node">
<title>Node2</title>
<polygon fill="#bfbfbf" stroke="#000000" points="0,-.5 0,-68.5 108,-68.5 108,-.5 0,-.5"/>
<text text-anchor="middle" x="54" y="-56.5" font-family="Helvetica,sans-Serif" font-size="10.00" fill="#000000">PauseMenuAudio</text>
<polyline fill="none" stroke="#000000" points="0,-49.5 108,-49.5 "/>
<text text-anchor="middle" x="54" y="-37.5" font-family="Helvetica,sans-Serif" font-size="10.00" fill="#000000"> </text>
<polyline fill="none" stroke="#000000" points="0,-30.5 108,-30.5 "/>
<text text-anchor="start" x="8" y="-18.5" font-family="Helvetica,sans-Serif" font-size="10.00" fill="#000000">+ PauseMenuAudio()</text>
<text text-anchor="start" x="8" y="-7.5" font-family="Helvetica,sans-Serif" font-size="10.00" fill="#000000">+ update()</text>
</g>
<!-- Node3 -->
<g id="node2" class="node">
<title>Node3</title>
<g id="a_node2"><a xlink:href="classGameAudio.html" target="_top" xlink:title="{GameAudio\n||+ update()\l}">
<polygon fill="#ffffff" stroke="#000000" points="20,-105.5 20,-162.5 88,-162.5 88,-105.5 20,-105.5"/>
<text text-anchor="middle" x="54" y="-150.5" font-family="Helvetica,sans-Serif" font-size="10.00" fill="#000000">GameAudio</text>
<polyline fill="none" stroke="#000000" points="20,-143.5 88,-143.5 "/>
<text text-anchor="middle" x="54" y="-131.5" font-family="Helvetica,sans-Serif" font-size="10.00" fill="#000000"> </text>
<polyline fill="none" stroke="#000000" points="20,-124.5 88,-124.5 "/>
<text text-anchor="start" x="28" y="-112.5" font-family="Helvetica,sans-Serif" font-size="10.00" fill="#000000">+ update()</text>
</a>
</g>
</g>
<!-- Node3&#45;&gt;Node2 -->
<g id="edge1" class="edge">
<title>Node3&#45;&gt;Node2</title>
<path fill="none" stroke="#191970" d="M54,-95.4268C54,-86.6025 54,-77.2834 54,-68.6596"/>
<polygon fill="none" stroke="#191970" points="50.5001,-95.4873 54,-105.4873 57.5001,-95.4873 50.5001,-95.4873"/>
</g>
</g>
</svg>
