<?xml version="1.0" encoding="UTF-8" standalone="no"?>
<!DOCTYPE svg PUBLIC "-//W3C//DTD SVG 1.1//EN"
 "http://www.w3.org/Graphics/SVG/1.1/DTD/svg11.dtd">
<!-- Generated by graphviz version 2.40.1 (20161225.0304)
 -->
<!-- Title: PauseMenuInputParser::parse Pages: 1 -->
<svg width="641pt" height="104pt"
 viewBox="0.00 0.00 641.00 104.00" xmlns="http://www.w3.org/2000/svg" xmlns:xlink="http://www.w3.org/1999/xlink">
<g id="graph0" class="graph" transform="scale(1 1) rotate(0) translate(4 100)">
<title>PauseMenuInputParser::parse</title>
<polygon fill="#ffffff" stroke="transparent" points="-4,4 -4,-100 637,-100 637,4 -4,4"/>
<!-- Node2 -->
<g id="node1" class="node">
<title>Node2</title>
<polygon fill="#bfbfbf" stroke="#000000" points="0,-33 0,-63 119,-63 119,-33 0,-33"/>
<text text-anchor="start" x="8" y="-51" font-family="Helvetica,sans-Serif" font-size="10.00" fill="#000000">PauseMenuInputParser</text>
<text text-anchor="middle" x="59.5" y="-40" font-family="Helvetica,sans-Serif" font-size="10.00" fill="#000000">::parse</text>
</g>
<!-- Node3 -->
<g id="node2" class="node">
<title>Node3</title>
<g id="a_node2"><a xlink:href="classPauseMenuModel.html#a6b533ca64f6b618111d88dd3484f6298" target="_top" xlink:title="PauseMenuModel::gameOver">
<polygon fill="#ffffff" stroke="#000000" points="155,-76.5 155,-95.5 301,-95.5 301,-76.5 155,-76.5"/>
<text text-anchor="middle" x="228" y="-83.5" font-family="Helvetica,sans-Serif" font-size="10.00" fill="#000000">PauseMenuModel::gameOver</text>
</a>
</g>
</g>
<!-- Node2&#45;&gt;Node3 -->
<g id="edge1" class="edge">
<title>Node2&#45;&gt;Node3</title>
<path fill="none" stroke="#191970" d="M119.3812,-61.5044C137.7264,-65.6416 157.7582,-70.1591 175.5668,-74.1753"/>
<polygon fill="#191970" stroke="#191970" points="175.2407,-77.6896 185.7657,-76.4754 176.7807,-70.8611 175.2407,-77.6896"/>
</g>
<!-- Node6 -->
<g id="node5" class="node">
<title>Node6</title>
<g id="a_node5"><a xlink:href="classPauseMenuModel.html#a8930d68e7a825e1fe1e186a066eea10e" target="_top" xlink:title="PauseMenuModel::toggle">
<polygon fill="#ffffff" stroke="#000000" points="164.5,-38.5 164.5,-57.5 291.5,-57.5 291.5,-38.5 164.5,-38.5"/>
<text text-anchor="middle" x="228" y="-45.5" font-family="Helvetica,sans-Serif" font-size="10.00" fill="#000000">PauseMenuModel::toggle</text>
</a>
</g>
</g>
<!-- Node2&#45;&gt;Node6 -->
<g id="edge4" class="edge">
<title>Node2&#45;&gt;Node6</title>
<path fill="none" stroke="#191970" d="M119.3812,-48C130.6482,-48 142.5513,-48 154.1849,-48"/>
<polygon fill="#191970" stroke="#191970" points="154.3162,-51.5001 164.3161,-48 154.3161,-44.5001 154.3162,-51.5001"/>
</g>
<!-- Node7 -->
<g id="node6" class="node">
<title>Node7</title>
<g id="a_node6"><a xlink:href="classModel.html#a8394addc603eaafa83019ce2d18406b1" target="_top" xlink:title="Model::kill">
<polygon fill="#ffffff" stroke="#000000" points="197.5,-.5 197.5,-19.5 258.5,-19.5 258.5,-.5 197.5,-.5"/>
<text text-anchor="middle" x="228" y="-7.5" font-family="Helvetica,sans-Serif" font-size="10.00" fill="#000000">Model::kill</text>
</a>
</g>
</g>
<!-- Node2&#45;&gt;Node7 -->
<g id="edge5" class="edge">
<title>Node2&#45;&gt;Node7</title>
<path fill="none" stroke="#191970" d="M119.3812,-34.4956C141.8774,-29.4223 166.9099,-23.777 187.2688,-19.1857"/>
<polygon fill="#191970" stroke="#191970" points="188.1677,-22.5709 197.1527,-16.9567 186.6277,-15.7424 188.1677,-22.5709"/>
</g>
<!-- Node4 -->
<g id="node3" class="node">
<title>Node4</title>
<g id="a_node3"><a xlink:href="classGameOverModel.html#ae35b062d76b100f5646a1a68f696f34a" target="_top" xlink:title="GameOverModel::gameOver">
<polygon fill="#ffffff" stroke="#000000" points="337,-76.5 337,-95.5 478,-95.5 478,-76.5 337,-76.5"/>
<text text-anchor="middle" x="407.5" y="-83.5" font-family="Helvetica,sans-Serif" font-size="10.00" fill="#000000">GameOverModel::gameOver</text>
</a>
</g>
</g>
<!-- Node3&#45;&gt;Node4 -->
<g id="edge2" class="edge">
<title>Node3&#45;&gt;Node4</title>
<path fill="none" stroke="#191970" d="M301.0095,-86C309.5206,-86 318.2399,-86 326.8465,-86"/>
<polygon fill="#191970" stroke="#191970" points="326.8789,-89.5001 336.8789,-86 326.8789,-82.5001 326.8789,-89.5001"/>
</g>
<!-- Node5 -->
<g id="node4" class="node">
<title>Node5</title>
<g id="a_node4"><a xlink:href="classBlockModel.html#aef547dbab9302cd2263f847386044bc5" target="_top" xlink:title="BlockModel::gameOver">
<polygon fill="#ffffff" stroke="#000000" points="514,-76.5 514,-95.5 633,-95.5 633,-76.5 514,-76.5"/>
<text text-anchor="middle" x="573.5" y="-83.5" font-family="Helvetica,sans-Serif" font-size="10.00" fill="#000000">BlockModel::gameOver</text>
</a>
</g>
</g>
<!-- Node4&#45;&gt;Node5 -->
<g id="edge3" class="edge">
<title>Node4&#45;&gt;Node5</title>
<path fill="none" stroke="#191970" d="M478.3804,-86C486.7754,-86 495.3394,-86 503.719,-86"/>
<polygon fill="#191970" stroke="#191970" points="503.8249,-89.5001 513.8249,-86 503.8248,-82.5001 503.8249,-89.5001"/>
</g>
</g>
</svg>
