<?xml version="1.0" encoding="UTF-8" standalone="no"?>
<!DOCTYPE svg PUBLIC "-//W3C//DTD SVG 1.1//EN"
 "http://www.w3.org/Graphics/SVG/1.1/DTD/svg11.dtd">
<!-- Generated by graphviz version 2.40.1 (20161225.0304)
 -->
<!-- Title: InputParser Pages: 1 -->
<svg width="653pt" height="171pt"
 viewBox="0.00 0.00 653.00 171.00" xmlns="http://www.w3.org/2000/svg" xmlns:xlink="http://www.w3.org/1999/xlink">
<g id="graph0" class="graph" transform="scale(1 1) rotate(0) translate(4 167)">
<title>InputParser</title>
<polygon fill="#ffffff" stroke="transparent" points="-4,4 -4,-167 649,-167 649,4 -4,4"/>
<!-- Node0 -->
<g id="node1" class="node">
<title>Node0</title>
<polygon fill="#bfbfbf" stroke="#000000" points="286,-105.5 286,-162.5 353,-162.5 353,-105.5 286,-105.5"/>
<text text-anchor="middle" x="319.5" y="-150.5" font-family="Helvetica,sans-Serif" font-size="10.00" fill="#000000">InputParser</text>
<polyline fill="none" stroke="#000000" points="286,-143.5 353,-143.5 "/>
<text text-anchor="middle" x="319.5" y="-131.5" font-family="Helvetica,sans-Serif" font-size="10.00" fill="#000000"> </text>
<polyline fill="none" stroke="#000000" points="286,-124.5 353,-124.5 "/>
<text text-anchor="start" x="294" y="-112.5" font-family="Helvetica,sans-Serif" font-size="10.00" fill="#000000">+ parse()</text>
</g>
<!-- Node1 -->
<g id="node2" class="node">
<title>Node1</title>
<g id="a_node2"><a xlink:href="classBlockInputParser.html" target="_top" xlink:title="{BlockInputParser\n||+ BlockInputParser()\l+ parse()\l}">
<polygon fill="#ffffff" stroke="#000000" points="0,-.5 0,-68.5 107,-68.5 107,-.5 0,-.5"/>
<text text-anchor="middle" x="53.5" y="-56.5" font-family="Helvetica,sans-Serif" font-size="10.00" fill="#000000">BlockInputParser</text>
<polyline fill="none" stroke="#000000" points="0,-49.5 107,-49.5 "/>
<text text-anchor="middle" x="53.5" y="-37.5" font-family="Helvetica,sans-Serif" font-size="10.00" fill="#000000"> </text>
<polyline fill="none" stroke="#000000" points="0,-30.5 107,-30.5 "/>
<text text-anchor="start" x="8" y="-18.5" font-family="Helvetica,sans-Serif" font-size="10.00" fill="#000000">+ BlockInputParser()</text>
<text text-anchor="start" x="8" y="-7.5" font-family="Helvetica,sans-Serif" font-size="10.00" fill="#000000">+ parse()</text>
</a>
</g>
</g>
<!-- Node0&#45;&gt;Node1 -->
<g id="edge1" class="edge">
<title>Node0&#45;&gt;Node1</title>
<path fill="none" stroke="#191970" d="M276.0135,-122.8588C234.0787,-111.4868 169.2404,-92.2372 115.5,-69 112.7865,-67.8267 110.0368,-66.5701 107.2816,-65.2563"/>
<polygon fill="none" stroke="#191970" points="275.335,-126.3004 285.9002,-125.5089 277.1474,-119.5391 275.335,-126.3004"/>
</g>
<!-- Node2 -->
<g id="node3" class="node">
<title>Node2</title>
<g id="a_node3"><a xlink:href="classGameOverInputParser.html" target="_top" xlink:title="{GameOverInputParser\n||+ GameOverInputParser()\l+ parse()\l}">
<polygon fill="#ffffff" stroke="#000000" points="125,-.5 125,-68.5 254,-68.5 254,-.5 125,-.5"/>
<text text-anchor="middle" x="189.5" y="-56.5" font-family="Helvetica,sans-Serif" font-size="10.00" fill="#000000">GameOverInputParser</text>
<polyline fill="none" stroke="#000000" points="125,-49.5 254,-49.5 "/>
<text text-anchor="middle" x="189.5" y="-37.5" font-family="Helvetica,sans-Serif" font-size="10.00" fill="#000000"> </text>
<polyline fill="none" stroke="#000000" points="125,-30.5 254,-30.5 "/>
<text text-anchor="start" x="133" y="-18.5" font-family="Helvetica,sans-Serif" font-size="10.00" fill="#000000">+ GameOverInputParser()</text>
<text text-anchor="start" x="133" y="-7.5" font-family="Helvetica,sans-Serif" font-size="10.00" fill="#000000">+ parse()</text>
</a>
</g>
</g>
<!-- Node0&#45;&gt;Node2 -->
<g id="edge2" class="edge">
<title>Node0&#45;&gt;Node2</title>
<path fill="none" stroke="#191970" d="M277.6708,-101.9846C263.7,-91.2915 248.086,-79.3408 233.9247,-68.502"/>
<polygon fill="none" stroke="#191970" points="275.6151,-104.8187 285.6834,-108.1173 279.8697,-99.26 275.6151,-104.8187"/>
</g>
<!-- Node3 -->
<g id="node4" class="node">
<title>Node3</title>
<g id="a_node4"><a xlink:href="classKillInputParser.html" target="_top" xlink:title="{KillInputParser\n||+ KillInputParser()\l+ parse()\l}">
<polygon fill="#ffffff" stroke="#000000" points="272,-.5 272,-68.5 367,-68.5 367,-.5 272,-.5"/>
<text text-anchor="middle" x="319.5" y="-56.5" font-family="Helvetica,sans-Serif" font-size="10.00" fill="#000000">KillInputParser</text>
<polyline fill="none" stroke="#000000" points="272,-49.5 367,-49.5 "/>
<text text-anchor="middle" x="319.5" y="-37.5" font-family="Helvetica,sans-Serif" font-size="10.00" fill="#000000"> </text>
<polyline fill="none" stroke="#000000" points="272,-30.5 367,-30.5 "/>
<text text-anchor="start" x="280" y="-18.5" font-family="Helvetica,sans-Serif" font-size="10.00" fill="#000000">+ KillInputParser()</text>
<text text-anchor="start" x="280" y="-7.5" font-family="Helvetica,sans-Serif" font-size="10.00" fill="#000000">+ parse()</text>
</a>
</g>
</g>
<!-- Node0&#45;&gt;Node3 -->
<g id="edge3" class="edge">
<title>Node0&#45;&gt;Node3</title>
<path fill="none" stroke="#191970" d="M319.5,-95.4268C319.5,-86.6025 319.5,-77.2834 319.5,-68.6596"/>
<polygon fill="none" stroke="#191970" points="316.0001,-95.4873 319.5,-105.4873 323.0001,-95.4873 316.0001,-95.4873"/>
</g>
<!-- Node4 -->
<g id="node5" class="node">
<title>Node4</title>
<g id="a_node5"><a xlink:href="classPauseMenuInputParser.html" target="_top" xlink:title="{PauseMenuInputParser\n||+ PauseMenuInputParser()\l+ parse()\l}">
<polygon fill="#ffffff" stroke="#000000" points="385.5,-.5 385.5,-68.5 519.5,-68.5 519.5,-.5 385.5,-.5"/>
<text text-anchor="middle" x="452.5" y="-56.5" font-family="Helvetica,sans-Serif" font-size="10.00" fill="#000000">PauseMenuInputParser</text>
<polyline fill="none" stroke="#000000" points="385.5,-49.5 519.5,-49.5 "/>
<text text-anchor="middle" x="452.5" y="-37.5" font-family="Helvetica,sans-Serif" font-size="10.00" fill="#000000"> </text>
<polyline fill="none" stroke="#000000" points="385.5,-30.5 519.5,-30.5 "/>
<text text-anchor="start" x="393.5" y="-18.5" font-family="Helvetica,sans-Serif" font-size="10.00" fill="#000000">+ PauseMenuInputParser()</text>
<text text-anchor="start" x="393.5" y="-7.5" font-family="Helvetica,sans-Serif" font-size="10.00" fill="#000000">+ parse()</text>
</a>
</g>
</g>
<!-- Node0&#45;&gt;Node4 -->
<g id="edge4" class="edge">
<title>Node0&#45;&gt;Node4</title>
<path fill="none" stroke="#191970" d="M361.3516,-102.69C375.8308,-91.8578 392.1261,-79.667 406.8918,-68.6204"/>
<polygon fill="none" stroke="#191970" points="358.9721,-100.099 353.0615,-108.8919 363.1654,-105.7041 358.9721,-100.099"/>
</g>
<!-- Node5 -->
<g id="node6" class="node">
<title>Node5</title>
<g id="a_node6"><a xlink:href="classTetrisInputParser.html" target="_top" xlink:title="{TetrisInputParser\n||+ TetrisInputParser()\l+ parse()\l}">
<polygon fill="#ffffff" stroke="#000000" points="538,-.5 538,-68.5 645,-68.5 645,-.5 538,-.5"/>
<text text-anchor="middle" x="591.5" y="-56.5" font-family="Helvetica,sans-Serif" font-size="10.00" fill="#000000">TetrisInputParser</text>
<polyline fill="none" stroke="#000000" points="538,-49.5 645,-49.5 "/>
<text text-anchor="middle" x="591.5" y="-37.5" font-family="Helvetica,sans-Serif" font-size="10.00" fill="#000000"> </text>
<polyline fill="none" stroke="#000000" points="538,-30.5 645,-30.5 "/>
<text text-anchor="start" x="546" y="-18.5" font-family="Helvetica,sans-Serif" font-size="10.00" fill="#000000">+ TetrisInputParser()</text>
<text text-anchor="start" x="546" y="-7.5" font-family="Helvetica,sans-Serif" font-size="10.00" fill="#000000">+ parse()</text>
</a>
</g>
</g>
<!-- Node0&#45;&gt;Node5 -->
<g id="edge5" class="edge">
<title>Node0&#45;&gt;Node5</title>
<path fill="none" stroke="#191970" d="M363.0087,-123.1912C405.9208,-111.9019 472.9607,-92.5647 528.5,-69 531.5995,-67.6849 534.746,-66.2635 537.895,-64.7727"/>
<polygon fill="none" stroke="#191970" points="361.969,-119.8452 353.1717,-125.7493 363.7307,-126.6198 361.969,-119.8452"/>
</g>
</g>
</svg>
