<?xml version="1.0" encoding="UTF-8" standalone="no"?>
<!DOCTYPE svg PUBLIC "-//W3C//DTD SVG 1.1//EN"
 "http://www.w3.org/Graphics/SVG/1.1/DTD/svg11.dtd">
<!-- Generated by graphviz version 2.40.1 (20161225.0304)
 -->
<!-- Title: BlockInputParser::parse Pages: 1 -->
<svg width="276pt" height="142pt"
 viewBox="0.00 0.00 276.00 142.00" xmlns="http://www.w3.org/2000/svg" xmlns:xlink="http://www.w3.org/1999/xlink">
<g id="graph0" class="graph" transform="scale(1 1) rotate(0) translate(4 138)">
<title>BlockInputParser::parse</title>
<polygon fill="#ffffff" stroke="transparent" points="-4,4 -4,-138 272,-138 272,4 -4,4"/>
<!-- Node2 -->
<g id="node1" class="node">
<title>Node2</title>
<polygon fill="#bfbfbf" stroke="#000000" points="0,-57.5 0,-76.5 122,-76.5 122,-57.5 0,-57.5"/>
<text text-anchor="middle" x="61" y="-64.5" font-family="Helvetica,sans-Serif" font-size="10.00" fill="#000000">BlockInputParser::parse</text>
</g>
<!-- Node3 -->
<g id="node2" class="node">
<title>Node3</title>
<g id="a_node2"><a xlink:href="classBlockModel.html#a9804f024e10e66af77ebb6935f064d83" target="_top" xlink:title="BlockModel::rotate">
<polygon fill="#ffffff" stroke="#000000" points="164,-114.5 164,-133.5 262,-133.5 262,-114.5 164,-114.5"/>
<text text-anchor="middle" x="213" y="-121.5" font-family="Helvetica,sans-Serif" font-size="10.00" fill="#000000">BlockModel::rotate</text>
</a>
</g>
</g>
<!-- Node2&#45;&gt;Node3 -->
<g id="edge1" class="edge">
<title>Node2&#45;&gt;Node3</title>
<path fill="none" stroke="#191970" d="M84.8142,-76.6421C104.387,-84.4913 132.8826,-95.746 158,-105 163.5262,-107.036 169.3877,-109.13 175.1452,-111.15"/>
<polygon fill="#191970" stroke="#191970" points="174.064,-114.4796 184.6589,-114.4564 176.362,-107.8675 174.064,-114.4796"/>
</g>
<!-- Node4 -->
<g id="node3" class="node">
<title>Node4</title>
<g id="a_node3"><a xlink:href="classBlockModel.html#a8abe5dd720b5625155a72416562950a1" target="_top" xlink:title="BlockModel::speedup">
<polygon fill="#ffffff" stroke="#000000" points="158,-76.5 158,-95.5 268,-95.5 268,-76.5 158,-76.5"/>
<text text-anchor="middle" x="213" y="-83.5" font-family="Helvetica,sans-Serif" font-size="10.00" fill="#000000">BlockModel::speedup</text>
</a>
</g>
</g>
<!-- Node2&#45;&gt;Node4 -->
<g id="edge2" class="edge">
<title>Node2&#45;&gt;Node4</title>
<path fill="none" stroke="#191970" d="M122.3861,-74.6733C130.704,-75.713 139.2646,-76.7831 147.6488,-77.8311"/>
<polygon fill="#191970" stroke="#191970" points="147.4031,-81.3275 157.7601,-79.095 148.2714,-74.3816 147.4031,-81.3275"/>
</g>
<!-- Node5 -->
<g id="node4" class="node">
<title>Node5</title>
<g id="a_node4"><a xlink:href="classBlockModel.html#ac337155dcfa5a7805efed55228631167" target="_top" xlink:title="BlockModel::move">
<polygon fill="#ffffff" stroke="#000000" points="164,-38.5 164,-57.5 262,-57.5 262,-38.5 164,-38.5"/>
<text text-anchor="middle" x="213" y="-45.5" font-family="Helvetica,sans-Serif" font-size="10.00" fill="#000000">BlockModel::move</text>
</a>
</g>
</g>
<!-- Node2&#45;&gt;Node5 -->
<g id="edge3" class="edge">
<title>Node2&#45;&gt;Node5</title>
<path fill="none" stroke="#191970" d="M122.3861,-59.3267C132.7677,-58.029 143.5274,-56.6841 153.8503,-55.3937"/>
<polygon fill="#191970" stroke="#191970" points="154.5089,-58.8387 163.9975,-54.1253 153.6406,-51.8928 154.5089,-58.8387"/>
</g>
<!-- Node6 -->
<g id="node5" class="node">
<title>Node6</title>
<g id="a_node5"><a xlink:href="classModel.html#a8394addc603eaafa83019ce2d18406b1" target="_top" xlink:title="Model::kill">
<polygon fill="#ffffff" stroke="#000000" points="182.5,-.5 182.5,-19.5 243.5,-19.5 243.5,-.5 182.5,-.5"/>
<text text-anchor="middle" x="213" y="-7.5" font-family="Helvetica,sans-Serif" font-size="10.00" fill="#000000">Model::kill</text>
</a>
</g>
</g>
<!-- Node2&#45;&gt;Node6 -->
<g id="edge4" class="edge">
<title>Node2&#45;&gt;Node6</title>
<path fill="none" stroke="#191970" d="M84.8142,-57.3579C104.387,-49.5087 132.8826,-38.254 158,-29 163.5262,-26.964 169.3877,-24.87 175.1452,-22.85"/>
<polygon fill="#191970" stroke="#191970" points="176.362,-26.1325 184.6589,-19.5436 174.064,-19.5204 176.362,-26.1325"/>
</g>
</g>
</svg>
