<?xml version="1.0" encoding="UTF-8" standalone="no"?>
<!DOCTYPE svg PUBLIC "-//W3C//DTD SVG 1.1//EN"
 "http://www.w3.org/Graphics/SVG/1.1/DTD/svg11.dtd">
<!-- Generated by graphviz version 2.40.1 (20161225.0304)
 -->
<!-- Title: Model::kill Pages: 1 -->
<svg width="227pt" height="215pt"
 viewBox="0.00 0.00 227.00 214.50" xmlns="http://www.w3.org/2000/svg" xmlns:xlink="http://www.w3.org/1999/xlink">
<g id="graph0" class="graph" transform="scale(1 1) rotate(0) translate(4 210.5)">
<title>Model::kill</title>
<polygon fill="#ffffff" stroke="transparent" points="-4,4 -4,-210.5 223,-210.5 223,4 -4,4"/>
<!-- Node3 -->
<g id="node1" class="node">
<title>Node3</title>
<polygon fill="#bfbfbf" stroke="#000000" points="0,-99 0,-118 61,-118 61,-99 0,-99"/>
<text text-anchor="middle" x="30.5" y="-106" font-family="Helvetica,sans-Serif" font-size="10.00" fill="#000000">Model::kill</text>
</g>
<!-- Node4 -->
<g id="node2" class="node">
<title>Node4</title>
<g id="a_node2"><a xlink:href="classBlockInputParser.html#a1ae18d287b5460ccae28290f3a8a072b" target="_top" xlink:title="BlockInputParser::parse">
<polygon fill="#ffffff" stroke="#000000" points="97,-187 97,-206 219,-206 219,-187 97,-187"/>
<text text-anchor="middle" x="158" y="-194" font-family="Helvetica,sans-Serif" font-size="10.00" fill="#000000">BlockInputParser::parse</text>
</a>
</g>
</g>
<!-- Node3&#45;&gt;Node4 -->
<g id="edge1" class="edge">
<title>Node3&#45;&gt;Node4</title>
<path fill="none" stroke="#191970" d="M43.819,-126.7921C56.0349,-142.3442 75.4596,-164.2074 97,-177.5 103.23,-181.3446 110.3022,-184.4696 117.3682,-186.9907"/>
<polygon fill="#191970" stroke="#191970" points="46.3361,-124.3199 37.498,-118.4772 40.7635,-128.5562 46.3361,-124.3199"/>
</g>
<!-- Node5 -->
<g id="node3" class="node">
<title>Node5</title>
<g id="a_node3"><a xlink:href="classGameOverInputParser.html#afaef411b5b3382381e4698c9bbac4e7b" target="_top" xlink:title="GameOverInputParser\l::parse">
<polygon fill="#ffffff" stroke="#000000" points="101,-137.5 101,-167.5 215,-167.5 215,-137.5 101,-137.5"/>
<text text-anchor="start" x="109" y="-155.5" font-family="Helvetica,sans-Serif" font-size="10.00" fill="#000000">GameOverInputParser</text>
<text text-anchor="middle" x="158" y="-144.5" font-family="Helvetica,sans-Serif" font-size="10.00" fill="#000000">::parse</text>
</a>
</g>
</g>
<!-- Node3&#45;&gt;Node5 -->
<g id="edge2" class="edge">
<title>Node3&#45;&gt;Node5</title>
<path fill="none" stroke="#191970" d="M67.8471,-121.3884C82.4167,-126.4163 99.221,-132.2155 114.3447,-137.4346"/>
<polygon fill="#191970" stroke="#191970" points="68.7603,-118.0011 58.1656,-118.0473 66.4768,-124.6181 68.7603,-118.0011"/>
</g>
<!-- Node6 -->
<g id="node4" class="node">
<title>Node6</title>
<g id="a_node4"><a xlink:href="classKillInputParser.html#aa32412d6f3236c797d98a8ec28606fd0" target="_top" xlink:title="KillInputParser::parse">
<polygon fill="#ffffff" stroke="#000000" points="103,-99 103,-118 213,-118 213,-99 103,-99"/>
<text text-anchor="middle" x="158" y="-106" font-family="Helvetica,sans-Serif" font-size="10.00" fill="#000000">KillInputParser::parse</text>
</a>
</g>
</g>
<!-- Node3&#45;&gt;Node6 -->
<g id="edge3" class="edge">
<title>Node3&#45;&gt;Node6</title>
<path fill="none" stroke="#191970" d="M71.1485,-108.5C81.2059,-108.5 92.1504,-108.5 102.7733,-108.5"/>
<polygon fill="#191970" stroke="#191970" points="71.0395,-105.0001 61.0394,-108.5 71.0394,-112.0001 71.0395,-105.0001"/>
</g>
<!-- Node7 -->
<g id="node5" class="node">
<title>Node7</title>
<g id="a_node5"><a xlink:href="classPauseMenuInputParser.html#a2a68ecf1eee0e2c24ce0968299639e4e" target="_top" xlink:title="PauseMenuInputParser\l::parse">
<polygon fill="#ffffff" stroke="#000000" points="98.5,-49.5 98.5,-79.5 217.5,-79.5 217.5,-49.5 98.5,-49.5"/>
<text text-anchor="start" x="106.5" y="-67.5" font-family="Helvetica,sans-Serif" font-size="10.00" fill="#000000">PauseMenuInputParser</text>
<text text-anchor="middle" x="158" y="-56.5" font-family="Helvetica,sans-Serif" font-size="10.00" fill="#000000">::parse</text>
</a>
</g>
</g>
<!-- Node3&#45;&gt;Node7 -->
<g id="edge4" class="edge">
<title>Node3&#45;&gt;Node7</title>
<path fill="none" stroke="#191970" d="M67.8471,-95.6116C82.4167,-90.5837 99.221,-84.7845 114.3447,-79.5654"/>
<polygon fill="#191970" stroke="#191970" points="66.4768,-92.3819 58.1656,-98.9527 68.7603,-98.9989 66.4768,-92.3819"/>
</g>
<!-- Node8 -->
<g id="node6" class="node">
<title>Node8</title>
<g id="a_node6"><a xlink:href="classTetrisInputParser.html#abe4d2d11dfe73ad231086d9abde86ab0" target="_top" xlink:title="TetrisInputParser::\lparse">
<polygon fill="#ffffff" stroke="#000000" points="109,-.5 109,-30.5 207,-30.5 207,-.5 109,-.5"/>
<text text-anchor="start" x="117" y="-18.5" font-family="Helvetica,sans-Serif" font-size="10.00" fill="#000000">TetrisInputParser::</text>
<text text-anchor="middle" x="158" y="-7.5" font-family="Helvetica,sans-Serif" font-size="10.00" fill="#000000">parse</text>
</a>
</g>
</g>
<!-- Node3&#45;&gt;Node8 -->
<g id="edge5" class="edge">
<title>Node3&#45;&gt;Node8</title>
<path fill="none" stroke="#191970" d="M44.1666,-90.9344C56.606,-75.9046 76.1635,-54.5344 97,-40.5 102.5058,-36.7916 108.6479,-33.4803 114.8554,-30.5765"/>
<polygon fill="#191970" stroke="#191970" points="41.2585,-88.9651 37.7091,-98.9477 46.709,-93.3574 41.2585,-88.9651"/>
</g>
</g>
</svg>
