<?xml version="1.0" encoding="UTF-8" standalone="no"?>
<!DOCTYPE svg PUBLIC "-//W3C//DTD SVG 1.1//EN"
 "http://www.w3.org/Graphics/SVG/1.1/DTD/svg11.dtd">
<!-- Generated by graphviz version 2.40.1 (20161225.0304)
 -->
<!-- Title: TetrisModel::reset Pages: 1 -->
<svg width="407pt" height="39pt"
 viewBox="0.00 0.00 407.00 39.00" xmlns="http://www.w3.org/2000/svg" xmlns:xlink="http://www.w3.org/1999/xlink">
<g id="graph0" class="graph" transform="scale(1 1) rotate(0) translate(4 35)">
<title>TetrisModel::reset</title>
<polygon fill="#ffffff" stroke="transparent" points="-4,4 -4,-35 403,-35 403,4 -4,4"/>
<!-- Node21 -->
<g id="node1" class="node">
<title>Node21</title>
<polygon fill="#bfbfbf" stroke="#000000" points="0,-6 0,-25 95,-25 95,-6 0,-6"/>
<text text-anchor="middle" x="47.5" y="-13" font-family="Helvetica,sans-Serif" font-size="10.00" fill="#000000">TetrisModel::reset</text>
</g>
<!-- Node22 -->
<g id="node2" class="node">
<title>Node22</title>
<g id="a_node2"><a xlink:href="classGameOverModel.html#a8bb33eb63f79b3f729c9479f109850fc" target="_top" xlink:title="GameOverModel::reset">
<polygon fill="#ffffff" stroke="#000000" points="131,-6 131,-25 249,-25 249,-6 131,-6"/>
<text text-anchor="middle" x="190" y="-13" font-family="Helvetica,sans-Serif" font-size="10.00" fill="#000000">GameOverModel::reset</text>
</a>
</g>
</g>
<!-- Node21&#45;&gt;Node22 -->
<g id="edge1" class="edge">
<title>Node21&#45;&gt;Node22</title>
<path fill="none" stroke="#191970" d="M105.4258,-15.5C113.8198,-15.5 122.4695,-15.5 130.8864,-15.5"/>
<polygon fill="#191970" stroke="#191970" points="105.3469,-12.0001 95.3469,-15.5 105.3468,-19.0001 105.3469,-12.0001"/>
</g>
<!-- Node23 -->
<g id="node3" class="node">
<title>Node23</title>
<g id="a_node3"><a xlink:href="classGameOverInputParser.html#afaef411b5b3382381e4698c9bbac4e7b" target="_top" xlink:title="GameOverInputParser\l::parse">
<polygon fill="#ffffff" stroke="#000000" points="285,-.5 285,-30.5 399,-30.5 399,-.5 285,-.5"/>
<text text-anchor="start" x="293" y="-18.5" font-family="Helvetica,sans-Serif" font-size="10.00" fill="#000000">GameOverInputParser</text>
<text text-anchor="middle" x="342" y="-7.5" font-family="Helvetica,sans-Serif" font-size="10.00" fill="#000000">::parse</text>
</a>
</g>
</g>
<!-- Node22&#45;&gt;Node23 -->
<g id="edge2" class="edge">
<title>Node22&#45;&gt;Node23</title>
<path fill="none" stroke="#191970" d="M259.4335,-15.5C267.8889,-15.5 276.4536,-15.5 284.7045,-15.5"/>
<polygon fill="#191970" stroke="#191970" points="259.2024,-12.0001 249.2024,-15.5 259.2024,-19.0001 259.2024,-12.0001"/>
</g>
</g>
</svg>
