<?xml version="1.0" encoding="UTF-8" standalone="no"?>
<!DOCTYPE svg PUBLIC "-//W3C//DTD SVG 1.1//EN"
 "http://www.w3.org/Graphics/SVG/1.1/DTD/svg11.dtd">
<!-- Generated by graphviz version 2.40.1 (20161225.0304)
 -->
<!-- Title: BlockRenderer::render Pages: 1 -->
<svg width="498pt" height="294pt"
 viewBox="0.00 0.00 498.00 294.00" xmlns="http://www.w3.org/2000/svg" xmlns:xlink="http://www.w3.org/1999/xlink">
<g id="graph0" class="graph" transform="scale(1 1) rotate(0) translate(4 290)">
<title>BlockRenderer::render</title>
<polygon fill="#ffffff" stroke="transparent" points="-4,4 -4,-290 494,-290 494,4 -4,4"/>
<!-- Node3 -->
<g id="node1" class="node">
<title>Node3</title>
<polygon fill="#bfbfbf" stroke="#000000" points="0,-133.5 0,-152.5 114,-152.5 114,-133.5 0,-133.5"/>
<text text-anchor="middle" x="57" y="-140.5" font-family="Helvetica,sans-Serif" font-size="10.00" fill="#000000">BlockRenderer::render</text>
</g>
<!-- Node4 -->
<g id="node2" class="node">
<title>Node4</title>
<g id="a_node2"><a xlink:href="classBlockModel.html#aa74c33064430c5f566d009c6bab1c848" target="_top" xlink:title="BlockModel::grid">
<polygon fill="#ffffff" stroke="#000000" points="183,-266.5 183,-285.5 272,-285.5 272,-266.5 183,-266.5"/>
<text text-anchor="middle" x="227.5" y="-273.5" font-family="Helvetica,sans-Serif" font-size="10.00" fill="#000000">BlockModel::grid</text>
</a>
</g>
</g>
<!-- Node3&#45;&gt;Node4 -->
<g id="edge1" class="edge">
<title>Node3&#45;&gt;Node4</title>
<path fill="none" stroke="#191970" d="M62.6298,-152.7556C75.3933,-174.0109 108.6578,-224.7733 150,-252 157.1022,-256.6773 165.165,-260.4833 173.3403,-263.5688"/>
<polygon fill="#191970" stroke="#191970" points="172.3435,-266.9271 182.9382,-266.869 174.6197,-260.3075 172.3435,-266.9271"/>
</g>
<!-- Node6 -->
<g id="node4" class="node">
<title>Node6</title>
<g id="a_node4"><a xlink:href="classGrid.html#a35b4576216863c321adb15e38ed2804b" target="_top" xlink:title="Grid::height">
<polygon fill="#ffffff" stroke="#000000" points="382,-228.5 382,-247.5 449,-247.5 449,-228.5 382,-228.5"/>
<text text-anchor="middle" x="415.5" y="-235.5" font-family="Helvetica,sans-Serif" font-size="10.00" fill="#000000">Grid::height</text>
</a>
</g>
</g>
<!-- Node3&#45;&gt;Node6 -->
<g id="edge3" class="edge">
<title>Node3&#45;&gt;Node6</title>
<path fill="none" stroke="#191970" d="M67.8283,-152.5201C84.3011,-166.4088 117.2169,-191.8865 150,-204 224.3748,-231.4818 317.5498,-237.4339 371.4249,-238.3474"/>
<polygon fill="#191970" stroke="#191970" points="371.6181,-241.8498 381.6587,-238.4678 371.7006,-234.8503 371.6181,-241.8498"/>
</g>
<!-- Node7 -->
<g id="node5" class="node">
<title>Node7</title>
<g id="a_node5"><a xlink:href="classScreenNormalizer.html#a0631886083c361cad341c70ea4b6af68" target="_top" xlink:title="ScreenNormalizer::ratio">
<polygon fill="#ffffff" stroke="#000000" points="168,-114.5 168,-133.5 287,-133.5 287,-114.5 168,-114.5"/>
<text text-anchor="middle" x="227.5" y="-121.5" font-family="Helvetica,sans-Serif" font-size="10.00" fill="#000000">ScreenNormalizer::ratio</text>
</a>
</g>
</g>
<!-- Node3&#45;&gt;Node7 -->
<g id="edge4" class="edge">
<title>Node3&#45;&gt;Node7</title>
<path fill="none" stroke="#191970" d="M114.2483,-136.6204C128.1052,-135.0763 143.0723,-133.4084 157.4441,-131.8068"/>
<polygon fill="#191970" stroke="#191970" points="158.2286,-135.2411 167.7794,-130.6551 157.4533,-128.2842 158.2286,-135.2411"/>
</g>
<!-- Node8 -->
<g id="node6" class="node">
<title>Node8</title>
<g id="a_node6"><a xlink:href="classGrid.html#a48a0cbb4dee8eb8e1c56f4d85d1f971b" target="_top" xlink:title="Grid::width">
<polygon fill="#ffffff" stroke="#000000" points="383.5,-190.5 383.5,-209.5 447.5,-209.5 447.5,-190.5 383.5,-190.5"/>
<text text-anchor="middle" x="415.5" y="-197.5" font-family="Helvetica,sans-Serif" font-size="10.00" fill="#000000">Grid::width</text>
</a>
</g>
</g>
<!-- Node3&#45;&gt;Node8 -->
<g id="edge5" class="edge">
<title>Node3&#45;&gt;Node8</title>
<path fill="none" stroke="#191970" d="M75.3068,-152.5134C93.6606,-161.5568 122.996,-174.6866 150,-181 227.2,-199.049 320.1684,-201.4397 373.098,-201.0532"/>
<polygon fill="#191970" stroke="#191970" points="373.1728,-204.5527 383.1336,-200.9427 373.0956,-197.5531 373.1728,-204.5527"/>
</g>
<!-- Node9 -->
<g id="node7" class="node">
<title>Node9</title>
<g id="a_node7"><a xlink:href="classBlockModel.html#af908d87b67d152ceb5a65696a02cea54" target="_top" xlink:title="BlockModel::currentBlock">
<polygon fill="#ffffff" stroke="#000000" points="163.5,-76.5 163.5,-95.5 291.5,-95.5 291.5,-76.5 163.5,-76.5"/>
<text text-anchor="middle" x="227.5" y="-83.5" font-family="Helvetica,sans-Serif" font-size="10.00" fill="#000000">BlockModel::currentBlock</text>
</a>
</g>
</g>
<!-- Node3&#45;&gt;Node9 -->
<g id="edge6" class="edge">
<title>Node3&#45;&gt;Node9</title>
<path fill="none" stroke="#191970" d="M78.0914,-133.3374C96.7277,-125.0529 124.7862,-113.1925 150,-105 157.6808,-102.5044 165.8823,-100.1601 173.9692,-98.0276"/>
<polygon fill="#191970" stroke="#191970" points="174.9098,-101.3998 183.7337,-95.5355 173.1788,-94.6172 174.9098,-101.3998"/>
</g>
<!-- Node10 -->
<g id="node8" class="node">
<title>Node10</title>
<g id="a_node8"><a xlink:href="classBlockModel.html#a5ebb7f6466041430a42c07b936866a9f" target="_top" xlink:title="BlockModel::position">
<polygon fill="#ffffff" stroke="#000000" points="174,-38.5 174,-57.5 281,-57.5 281,-38.5 174,-38.5"/>
<text text-anchor="middle" x="227.5" y="-45.5" font-family="Helvetica,sans-Serif" font-size="10.00" fill="#000000">BlockModel::position</text>
</a>
</g>
</g>
<!-- Node3&#45;&gt;Node10 -->
<g id="edge7" class="edge">
<title>Node3&#45;&gt;Node10</title>
<path fill="none" stroke="#191970" d="M65.7746,-133.4662C81.2097,-117.2845 114.9227,-84.5007 150,-67 154.6834,-64.6634 159.6725,-62.6026 164.7749,-60.7871"/>
<polygon fill="#191970" stroke="#191970" points="166.2355,-63.9935 174.6765,-57.5903 164.0848,-57.3321 166.2355,-63.9935"/>
</g>
<!-- Node11 -->
<g id="node9" class="node">
<title>Node11</title>
<g id="a_node9"><a xlink:href="classScreenNormalizer.html#a0a54874b29eb58cf1be8251ca2525c60" target="_top" xlink:title="ScreenNormalizer::deNormalize">
<polygon fill="#ffffff" stroke="#000000" points="150,-.5 150,-19.5 305,-19.5 305,-.5 150,-.5"/>
<text text-anchor="middle" x="227.5" y="-7.5" font-family="Helvetica,sans-Serif" font-size="10.00" fill="#000000">ScreenNormalizer::deNormalize</text>
</a>
</g>
</g>
<!-- Node3&#45;&gt;Node11 -->
<g id="edge8" class="edge">
<title>Node3&#45;&gt;Node11</title>
<path fill="none" stroke="#191970" d="M62.0233,-133.2721C74.0185,-111.0602 106.5969,-56.4212 150,-29 153.3305,-26.8958 156.8774,-25.0247 160.5516,-23.3608"/>
<polygon fill="#191970" stroke="#191970" points="161.902,-26.5904 169.8957,-19.6368 159.3105,-20.0877 161.902,-26.5904"/>
</g>
<!-- Node12 -->
<g id="node10" class="node">
<title>Node12</title>
<g id="a_node10"><a xlink:href="classGridRenderer.html#a0febcbbb5a20019d0afdca8c98f1a485" target="_top" xlink:title="GridRenderer::renderGrid">
<polygon fill="#ffffff" stroke="#000000" points="165,-152.5 165,-171.5 290,-171.5 290,-152.5 165,-152.5"/>
<text text-anchor="middle" x="227.5" y="-159.5" font-family="Helvetica,sans-Serif" font-size="10.00" fill="#000000">GridRenderer::renderGrid</text>
</a>
</g>
</g>
<!-- Node3&#45;&gt;Node12 -->
<g id="edge9" class="edge">
<title>Node3&#45;&gt;Node12</title>
<path fill="none" stroke="#191970" d="M114.2483,-149.3796C127.1997,-150.8228 141.1211,-152.3742 154.6197,-153.8784"/>
<polygon fill="#191970" stroke="#191970" points="154.5106,-157.3879 164.8367,-155.017 155.2859,-150.4309 154.5106,-157.3879"/>
</g>
<!-- Node5 -->
<g id="node3" class="node">
<title>Node5</title>
<g id="a_node3"><a xlink:href="classTetrisModel.html#af5e86770c46ef2669e26babca6b08e8c" target="_top" xlink:title="TetrisModel::grid">
<polygon fill="#ffffff" stroke="#000000" points="371,-266.5 371,-285.5 460,-285.5 460,-266.5 371,-266.5"/>
<text text-anchor="middle" x="415.5" y="-273.5" font-family="Helvetica,sans-Serif" font-size="10.00" fill="#000000">TetrisModel::grid</text>
</a>
</g>
</g>
<!-- Node4&#45;&gt;Node5 -->
<g id="edge2" class="edge">
<title>Node4&#45;&gt;Node5</title>
<path fill="none" stroke="#191970" d="M272.0534,-276C298.6476,-276 332.6235,-276 360.8332,-276"/>
<polygon fill="#191970" stroke="#191970" points="360.9411,-279.5001 370.941,-276 360.941,-272.5001 360.9411,-279.5001"/>
</g>
<!-- Node12&#45;&gt;Node6 -->
<g id="edge11" class="edge">
<title>Node12&#45;&gt;Node6</title>
<path fill="none" stroke="#191970" d="M243.9126,-171.6649C265.5413,-184.065 305.0593,-205.5719 341,-219 350.753,-222.6439 361.4789,-225.8311 371.6795,-228.5017"/>
<polygon fill="#191970" stroke="#191970" points="371.0988,-231.9643 381.6494,-230.9979 372.7989,-225.1739 371.0988,-231.9643"/>
</g>
<!-- Node12&#45;&gt;Node8 -->
<g id="edge10" class="edge">
<title>Node12&#45;&gt;Node8</title>
<path fill="none" stroke="#191970" d="M274.9403,-171.589C305.2991,-177.7254 344.3263,-185.6138 373.5507,-191.5209"/>
<polygon fill="#191970" stroke="#191970" points="372.9534,-194.9709 383.4486,-193.5215 374.3403,-188.1096 372.9534,-194.9709"/>
</g>
<!-- Node13 -->
<g id="node11" class="node">
<title>Node13</title>
<g id="a_node11"><a xlink:href="classGrid.html#a947680e656b1eeb07e1c140437cfd3fb" target="_top" xlink:title="Grid::cell">
<polygon fill="#ffffff" stroke="#000000" points="387.5,-114.5 387.5,-133.5 443.5,-133.5 443.5,-114.5 387.5,-114.5"/>
<text text-anchor="middle" x="415.5" y="-121.5" font-family="Helvetica,sans-Serif" font-size="10.00" fill="#000000">Grid::cell</text>
</a>
</g>
</g>
<!-- Node12&#45;&gt;Node13 -->
<g id="edge12" class="edge">
<title>Node12&#45;&gt;Node13</title>
<path fill="none" stroke="#191970" d="M274.9403,-152.411C306.6614,-145.9993 347.8462,-137.6747 377.4238,-131.6962"/>
<polygon fill="#191970" stroke="#191970" points="378.2589,-135.0983 387.3672,-129.6864 376.872,-128.2371 378.2589,-135.0983"/>
</g>
<!-- Node14 -->
<g id="node12" class="node">
<title>Node14</title>
<g id="a_node12"><a xlink:href="classShadowBrush.html#ac72107dffb3b70f5f997d0708025b799" target="_top" xlink:title="ShadowBrush::drawRectangle">
<polygon fill="#ffffff" stroke="#000000" points="341,-152.5 341,-171.5 490,-171.5 490,-152.5 341,-152.5"/>
<text text-anchor="middle" x="415.5" y="-159.5" font-family="Helvetica,sans-Serif" font-size="10.00" fill="#000000">ShadowBrush::drawRectangle</text>
</a>
</g>
</g>
<!-- Node12&#45;&gt;Node14 -->
<g id="edge13" class="edge">
<title>Node12&#45;&gt;Node14</title>
<path fill="none" stroke="#191970" d="M290.1013,-162C303.0393,-162 316.8738,-162 330.4567,-162"/>
<polygon fill="#191970" stroke="#191970" points="330.7755,-165.5001 340.7755,-162 330.7754,-158.5001 330.7755,-165.5001"/>
</g>
</g>
</svg>
