<?xml version="1.0" encoding="UTF-8" standalone="no"?>
<!DOCTYPE svg PUBLIC "-//W3C//DTD SVG 1.1//EN"
 "http://www.w3.org/Graphics/SVG/1.1/DTD/svg11.dtd">
<!-- Generated by graphviz version 2.40.1 (20161225.0304)
 -->
<!-- Title: BlockModel::reset Pages: 1 -->
<svg width="392pt" height="104pt"
 viewBox="0.00 0.00 392.00 104.00" xmlns="http://www.w3.org/2000/svg" xmlns:xlink="http://www.w3.org/1999/xlink">
<g id="graph0" class="graph" transform="scale(1 1) rotate(0) translate(4 100)">
<title>BlockModel::reset</title>
<polygon fill="#ffffff" stroke="transparent" points="-4,4 -4,-100 388,-100 388,4 -4,4"/>
<!-- Node43 -->
<g id="node1" class="node">
<title>Node43</title>
<polygon fill="#bfbfbf" stroke="#000000" points="0,-38.5 0,-57.5 95,-57.5 95,-38.5 0,-38.5"/>
<text text-anchor="middle" x="47.5" y="-45.5" font-family="Helvetica,sans-Serif" font-size="10.00" fill="#000000">BlockModel::reset</text>
</g>
<!-- Node44 -->
<g id="node2" class="node">
<title>Node44</title>
<g id="a_node2"><a xlink:href="classBlockModel.html#af908d87b67d152ceb5a65696a02cea54" target="_top" xlink:title="BlockModel::currentBlock">
<polygon fill="#ffffff" stroke="#000000" points="131,-76.5 131,-95.5 259,-95.5 259,-76.5 131,-76.5"/>
<text text-anchor="middle" x="195" y="-83.5" font-family="Helvetica,sans-Serif" font-size="10.00" fill="#000000">BlockModel::currentBlock</text>
</a>
</g>
</g>
<!-- Node43&#45;&gt;Node44 -->
<g id="edge1" class="edge">
<title>Node43&#45;&gt;Node44</title>
<path fill="none" stroke="#191970" d="M84.7205,-57.589C104.0093,-62.5583 127.7584,-68.6767 148.271,-73.9613"/>
<polygon fill="#191970" stroke="#191970" points="147.4902,-77.3744 158.0472,-76.4799 149.2366,-70.5957 147.4902,-77.3744"/>
</g>
<!-- Node45 -->
<g id="node3" class="node">
<title>Node45</title>
<g id="a_node3"><a xlink:href="classGrid.html#a48a0cbb4dee8eb8e1c56f4d85d1f971b" target="_top" xlink:title="Grid::width">
<polygon fill="#ffffff" stroke="#000000" points="163,-38.5 163,-57.5 227,-57.5 227,-38.5 163,-38.5"/>
<text text-anchor="middle" x="195" y="-45.5" font-family="Helvetica,sans-Serif" font-size="10.00" fill="#000000">Grid::width</text>
</a>
</g>
</g>
<!-- Node43&#45;&gt;Node45 -->
<g id="edge2" class="edge">
<title>Node43&#45;&gt;Node45</title>
<path fill="none" stroke="#191970" d="M95.389,-48C113.8124,-48 134.7012,-48 152.5749,-48"/>
<polygon fill="#191970" stroke="#191970" points="152.7089,-51.5001 162.7089,-48 152.7088,-44.5001 152.7089,-51.5001"/>
</g>
<!-- Node46 -->
<g id="node4" class="node">
<title>Node46</title>
<g id="a_node4"><a xlink:href="classBlockModel.html#aa74c33064430c5f566d009c6bab1c848" target="_top" xlink:title="BlockModel::grid">
<polygon fill="#ffffff" stroke="#000000" points="150.5,-.5 150.5,-19.5 239.5,-19.5 239.5,-.5 150.5,-.5"/>
<text text-anchor="middle" x="195" y="-7.5" font-family="Helvetica,sans-Serif" font-size="10.00" fill="#000000">BlockModel::grid</text>
</a>
</g>
</g>
<!-- Node43&#45;&gt;Node46 -->
<g id="edge3" class="edge">
<title>Node43&#45;&gt;Node46</title>
<path fill="none" stroke="#191970" d="M84.7205,-38.411C104.0093,-33.4417 127.7584,-27.3233 148.271,-22.0387"/>
<polygon fill="#191970" stroke="#191970" points="149.2366,-25.4043 158.0472,-19.5201 147.4902,-18.6256 149.2366,-25.4043"/>
</g>
<!-- Node47 -->
<g id="node5" class="node">
<title>Node47</title>
<g id="a_node5"><a xlink:href="classTetrisModel.html#af5e86770c46ef2669e26babca6b08e8c" target="_top" xlink:title="TetrisModel::grid">
<polygon fill="#ffffff" stroke="#000000" points="295,-.5 295,-19.5 384,-19.5 384,-.5 295,-.5"/>
<text text-anchor="middle" x="339.5" y="-7.5" font-family="Helvetica,sans-Serif" font-size="10.00" fill="#000000">TetrisModel::grid</text>
</a>
</g>
</g>
<!-- Node46&#45;&gt;Node47 -->
<g id="edge4" class="edge">
<title>Node46&#45;&gt;Node47</title>
<path fill="none" stroke="#191970" d="M239.5338,-10C253.8176,-10 269.805,-10 284.7329,-10"/>
<polygon fill="#191970" stroke="#191970" points="284.8645,-13.5001 294.8645,-10 284.8644,-6.5001 284.8645,-13.5001"/>
</g>
</g>
</svg>
