<?xml version="1.0" encoding="UTF-8" standalone="no"?>
<!DOCTYPE svg PUBLIC "-//W3C//DTD SVG 1.1//EN"
 "http://www.w3.org/Graphics/SVG/1.1/DTD/svg11.dtd">
<!-- Generated by graphviz version 2.40.1 (20161225.0304)
 -->
<!-- Title: GameOverModel::gameOver Pages: 1 -->
<svg width="486pt" height="154pt"
 viewBox="0.00 0.00 486.00 154.00" xmlns="http://www.w3.org/2000/svg" xmlns:xlink="http://www.w3.org/1999/xlink">
<g id="graph0" class="graph" transform="scale(1 1) rotate(0) translate(4 150)">
<title>GameOverModel::gameOver</title>
<polygon fill="#ffffff" stroke="transparent" points="-4,4 -4,-150 482,-150 482,4 -4,4"/>
<!-- Node4 -->
<g id="node1" class="node">
<title>Node4</title>
<polygon fill="#bfbfbf" stroke="#000000" points="0,-60.5 0,-79.5 141,-79.5 141,-60.5 0,-60.5"/>
<text text-anchor="middle" x="70.5" y="-67.5" font-family="Helvetica,sans-Serif" font-size="10.00" fill="#000000">GameOverModel::gameOver</text>
</g>
<!-- Node5 -->
<g id="node2" class="node">
<title>Node5</title>
<g id="a_node2"><a xlink:href="classGameOverRenderer.html#a4da5ed1252530ed382d3a5e2cda26c38" target="_top" xlink:title="GameOverRenderer::render">
<polygon fill="#ffffff" stroke="#000000" points="181.5,-126.5 181.5,-145.5 318.5,-145.5 318.5,-126.5 181.5,-126.5"/>
<text text-anchor="middle" x="250" y="-133.5" font-family="Helvetica,sans-Serif" font-size="10.00" fill="#000000">GameOverRenderer::render</text>
</a>
</g>
</g>
<!-- Node4&#45;&gt;Node5 -->
<g id="edge1" class="edge">
<title>Node4&#45;&gt;Node5</title>
<path fill="none" stroke="#191970" d="M98.8276,-83.9984C120.0029,-94.0918 149.8564,-107.5472 177,-117 187.1412,-120.5317 198.2755,-123.7503 208.7263,-126.494"/>
<polygon fill="#191970" stroke="#191970" points="100.278,-80.8122 89.75,-79.6239 97.2391,-87.1182 100.278,-80.8122"/>
</g>
<!-- Node6 -->
<g id="node3" class="node">
<title>Node6</title>
<g id="a_node3"><a xlink:href="classGameOverInputParser.html#afaef411b5b3382381e4698c9bbac4e7b" target="_top" xlink:title="GameOverInputParser\l::parse">
<polygon fill="#ffffff" stroke="#000000" points="193,-77 193,-107 307,-107 307,-77 193,-77"/>
<text text-anchor="start" x="201" y="-95" font-family="Helvetica,sans-Serif" font-size="10.00" fill="#000000">GameOverInputParser</text>
<text text-anchor="middle" x="250" y="-84" font-family="Helvetica,sans-Serif" font-size="10.00" fill="#000000">::parse</text>
</a>
</g>
</g>
<!-- Node4&#45;&gt;Node6 -->
<g id="edge2" class="edge">
<title>Node4&#45;&gt;Node6</title>
<path fill="none" stroke="#191970" d="M151.3371,-79.9076C165.3772,-81.6284 179.7112,-83.3852 192.9464,-85.0074"/>
<polygon fill="#191970" stroke="#191970" points="151.537,-76.406 141.1855,-78.6634 150.6854,-83.354 151.537,-76.406"/>
</g>
<!-- Node7 -->
<g id="node4" class="node">
<title>Node7</title>
<g id="a_node4"><a xlink:href="classPauseMenuModel.html#a6b533ca64f6b618111d88dd3484f6298" target="_top" xlink:title="PauseMenuModel::gameOver">
<polygon fill="#ffffff" stroke="#000000" points="177,-38.5 177,-57.5 323,-57.5 323,-38.5 177,-38.5"/>
<text text-anchor="middle" x="250" y="-45.5" font-family="Helvetica,sans-Serif" font-size="10.00" fill="#000000">PauseMenuModel::gameOver</text>
</a>
</g>
</g>
<!-- Node4&#45;&gt;Node7 -->
<g id="edge3" class="edge">
<title>Node4&#45;&gt;Node7</title>
<path fill="none" stroke="#191970" d="M151.1244,-60.1185C159.6503,-59.0735 168.2872,-58.0149 176.723,-56.981"/>
<polygon fill="#191970" stroke="#191970" points="150.6854,-56.646 141.1855,-61.3366 151.537,-63.594 150.6854,-56.646"/>
</g>
<!-- Node9 -->
<g id="node6" class="node">
<title>Node9</title>
<g id="a_node6"><a xlink:href="classGameOverModel.html#a4c603c7fff5db4853ef9beee3cc8cc2a" target="_top" xlink:title="GameOverModel::step">
<polygon fill="#ffffff" stroke="#000000" points="192.5,-.5 192.5,-19.5 307.5,-19.5 307.5,-.5 192.5,-.5"/>
<text text-anchor="middle" x="250" y="-7.5" font-family="Helvetica,sans-Serif" font-size="10.00" fill="#000000">GameOverModel::step</text>
</a>
</g>
</g>
<!-- Node4&#45;&gt;Node9 -->
<g id="edge5" class="edge">
<title>Node4&#45;&gt;Node9</title>
<path fill="none" stroke="#191970" d="M102.4737,-56.6043C123.4498,-48.0871 151.5987,-37.1663 177,-29 187.5973,-25.5931 199.2052,-22.3539 209.9843,-19.5467"/>
<polygon fill="#191970" stroke="#191970" points="101.0137,-53.42 93.0867,-60.4496 103.6672,-59.8976 101.0137,-53.42"/>
</g>
<!-- Node8 -->
<g id="node5" class="node">
<title>Node8</title>
<g id="a_node5"><a xlink:href="classPauseMenuInputParser.html#a2a68ecf1eee0e2c24ce0968299639e4e" target="_top" xlink:title="PauseMenuInputParser\l::parse">
<polygon fill="#ffffff" stroke="#000000" points="359,-33 359,-63 478,-63 478,-33 359,-33"/>
<text text-anchor="start" x="367" y="-51" font-family="Helvetica,sans-Serif" font-size="10.00" fill="#000000">PauseMenuInputParser</text>
<text text-anchor="middle" x="418.5" y="-40" font-family="Helvetica,sans-Serif" font-size="10.00" fill="#000000">::parse</text>
</a>
</g>
</g>
<!-- Node7&#45;&gt;Node8 -->
<g id="edge4" class="edge">
<title>Node7&#45;&gt;Node8</title>
<path fill="none" stroke="#191970" d="M333.4913,-48C342.0962,-48 350.7115,-48 358.9784,-48"/>
<polygon fill="#191970" stroke="#191970" points="333.4164,-44.5001 323.4164,-48 333.4163,-51.5001 333.4164,-44.5001"/>
</g>
</g>
</svg>
