<?xml version="1.0" encoding="UTF-8" standalone="no"?>
<!DOCTYPE svg PUBLIC "-//W3C//DTD SVG 1.1//EN"
 "http://www.w3.org/Graphics/SVG/1.1/DTD/svg11.dtd">
<!-- Generated by graphviz version 2.40.1 (20161225.0304)
 -->
<!-- Title: AudioFactory::sound Pages: 1 -->
<svg width="302pt" height="154pt"
 viewBox="0.00 0.00 302.00 154.00" xmlns="http://www.w3.org/2000/svg" xmlns:xlink="http://www.w3.org/1999/xlink">
<g id="graph0" class="graph" transform="scale(1 1) rotate(0) translate(4 150)">
<title>AudioFactory::sound</title>
<polygon fill="#ffffff" stroke="transparent" points="-4,4 -4,-150 298,-150 298,4 -4,4"/>
<!-- Node6 -->
<g id="node1" class="node">
<title>Node6</title>
<polygon fill="#bfbfbf" stroke="#000000" points="0,-66.5 0,-85.5 107,-85.5 107,-66.5 0,-66.5"/>
<text text-anchor="middle" x="53.5" y="-73.5" font-family="Helvetica,sans-Serif" font-size="10.00" fill="#000000">AudioFactory::sound</text>
</g>
<!-- Node7 -->
<g id="node2" class="node">
<title>Node7</title>
<g id="a_node2"><a xlink:href="classBlockAudio.html#ae66238dc85b0b0bf5611dfb6726eb748" target="_top" xlink:title="BlockAudio::BlockAudio">
<polygon fill="#ffffff" stroke="#000000" points="157.5,-126.5 157.5,-145.5 279.5,-145.5 279.5,-126.5 157.5,-126.5"/>
<text text-anchor="middle" x="218.5" y="-133.5" font-family="Helvetica,sans-Serif" font-size="10.00" fill="#000000">BlockAudio::BlockAudio</text>
</a>
</g>
</g>
<!-- Node6&#45;&gt;Node7 -->
<g id="edge1" class="edge">
<title>Node6&#45;&gt;Node7</title>
<path fill="none" stroke="#191970" d="M80.9873,-90.1817C98.4223,-98.7753 121.6412,-109.4913 143,-117 153.2011,-120.5862 164.3995,-123.7864 174.9758,-126.4918"/>
<polygon fill="#191970" stroke="#191970" points="82.4543,-87.0022 71.9449,-85.6598 79.3234,-93.2629 82.4543,-87.0022"/>
</g>
<!-- Node8 -->
<g id="node3" class="node">
<title>Node8</title>
<g id="a_node3"><a xlink:href="classLevelAudio.html#a42276c05ad1dd20e2baadc622124c5c6" target="_top" xlink:title="LevelAudio::LevelAudio">
<polygon fill="#ffffff" stroke="#000000" points="159,-88.5 159,-107.5 278,-107.5 278,-88.5 159,-88.5"/>
<text text-anchor="middle" x="218.5" y="-95.5" font-family="Helvetica,sans-Serif" font-size="10.00" fill="#000000">LevelAudio::LevelAudio</text>
</a>
</g>
</g>
<!-- Node6&#45;&gt;Node8 -->
<g id="edge2" class="edge">
<title>Node6&#45;&gt;Node8</title>
<path fill="none" stroke="#191970" d="M117.3567,-84.5142C131.0261,-86.3368 145.416,-88.2555 158.9166,-90.0556"/>
<polygon fill="#191970" stroke="#191970" points="117.4457,-80.9952 107.0708,-83.1428 116.5204,-87.9338 117.4457,-80.9952"/>
</g>
<!-- Node9 -->
<g id="node4" class="node">
<title>Node9</title>
<g id="a_node4"><a xlink:href="classPauseMenuAudio.html#ac0a7b4c034211c65c725ad5794ba9ee7" target="_top" xlink:title="PauseMenuAudio::PauseMenu\lAudio">
<polygon fill="#ffffff" stroke="#000000" points="143,-39 143,-69 294,-69 294,-39 143,-39"/>
<text text-anchor="start" x="151" y="-57" font-family="Helvetica,sans-Serif" font-size="10.00" fill="#000000">PauseMenuAudio::PauseMenu</text>
<text text-anchor="middle" x="218.5" y="-46" font-family="Helvetica,sans-Serif" font-size="10.00" fill="#000000">Audio</text>
</a>
</g>
</g>
<!-- Node6&#45;&gt;Node9 -->
<g id="edge3" class="edge">
<title>Node6&#45;&gt;Node9</title>
<path fill="none" stroke="#191970" d="M117.1306,-67.5159C125.51,-66.3987 134.1637,-65.2448 142.7204,-64.104"/>
<polygon fill="#191970" stroke="#191970" points="116.5204,-64.0662 107.0708,-68.8572 117.4457,-71.0048 116.5204,-64.0662"/>
</g>
<!-- Node10 -->
<g id="node5" class="node">
<title>Node10</title>
<g id="a_node5"><a xlink:href="classTetrisAudio.html#a077aefd3f7ec1371b005f3ed493477ff" target="_top" xlink:title="TetrisAudio::TetrisAudio">
<polygon fill="#ffffff" stroke="#000000" points="157.5,-.5 157.5,-19.5 279.5,-19.5 279.5,-.5 157.5,-.5"/>
<text text-anchor="middle" x="218.5" y="-7.5" font-family="Helvetica,sans-Serif" font-size="10.00" fill="#000000">TetrisAudio::TetrisAudio</text>
</a>
</g>
</g>
<!-- Node6&#45;&gt;Node10 -->
<g id="edge4" class="edge">
<title>Node6&#45;&gt;Node10</title>
<path fill="none" stroke="#191970" d="M78.529,-61.282C96.1139,-51.408 120.434,-38.671 143,-30 153.5057,-25.9632 165.1355,-22.4416 176.0562,-19.5256"/>
<polygon fill="#191970" stroke="#191970" points="76.4583,-58.4338 69.5065,-66.429 79.9269,-64.514 76.4583,-58.4338"/>
</g>
</g>
</svg>
