<?xml version="1.0" encoding="UTF-8" standalone="no"?>
<!DOCTYPE svg PUBLIC "-//W3C//DTD SVG 1.1//EN"
 "http://www.w3.org/Graphics/SVG/1.1/DTD/svg11.dtd">
<!-- Generated by graphviz version 2.40.1 (20161225.0304)
 -->
<!-- Title: GridRenderer::renderGrid Pages: 1 -->
<svg width="318pt" height="142pt"
 viewBox="0.00 0.00 318.00 142.00" xmlns="http://www.w3.org/2000/svg" xmlns:xlink="http://www.w3.org/1999/xlink">
<g id="graph0" class="graph" transform="scale(1 1) rotate(0) translate(4 138)">
<title>GridRenderer::renderGrid</title>
<polygon fill="#ffffff" stroke="transparent" points="-4,4 -4,-138 314,-138 314,4 -4,4"/>
<!-- Node6 -->
<g id="node1" class="node">
<title>Node6</title>
<polygon fill="#bfbfbf" stroke="#000000" points="0,-57.5 0,-76.5 125,-76.5 125,-57.5 0,-57.5"/>
<text text-anchor="middle" x="62.5" y="-64.5" font-family="Helvetica,sans-Serif" font-size="10.00" fill="#000000">GridRenderer::renderGrid</text>
</g>
<!-- Node7 -->
<g id="node2" class="node">
<title>Node7</title>
<g id="a_node2"><a xlink:href="classGrid.html#a48a0cbb4dee8eb8e1c56f4d85d1f971b" target="_top" xlink:title="Grid::width">
<polygon fill="#ffffff" stroke="#000000" points="203.5,-114.5 203.5,-133.5 267.5,-133.5 267.5,-114.5 203.5,-114.5"/>
<text text-anchor="middle" x="235.5" y="-121.5" font-family="Helvetica,sans-Serif" font-size="10.00" fill="#000000">Grid::width</text>
</a>
</g>
</g>
<!-- Node6&#45;&gt;Node7 -->
<g id="edge1" class="edge">
<title>Node6&#45;&gt;Node7</title>
<path fill="none" stroke="#191970" d="M84.9198,-76.5246C104.7102,-84.7207 134.4588,-96.5288 161,-105 171.4073,-108.3217 182.7747,-111.4615 193.4246,-114.1962"/>
<polygon fill="#191970" stroke="#191970" points="192.8099,-117.6503 203.3608,-116.6866 194.5118,-110.8603 192.8099,-117.6503"/>
</g>
<!-- Node8 -->
<g id="node3" class="node">
<title>Node8</title>
<g id="a_node3"><a xlink:href="classGrid.html#a35b4576216863c321adb15e38ed2804b" target="_top" xlink:title="Grid::height">
<polygon fill="#ffffff" stroke="#000000" points="202,-76.5 202,-95.5 269,-95.5 269,-76.5 202,-76.5"/>
<text text-anchor="middle" x="235.5" y="-83.5" font-family="Helvetica,sans-Serif" font-size="10.00" fill="#000000">Grid::height</text>
</a>
</g>
</g>
<!-- Node6&#45;&gt;Node8 -->
<g id="edge2" class="edge">
<title>Node6&#45;&gt;Node8</title>
<path fill="none" stroke="#191970" d="M125.4464,-73.9132C147.4949,-76.3347 171.7535,-78.9989 191.8712,-81.2084"/>
<polygon fill="#191970" stroke="#191970" points="191.6581,-84.706 201.9804,-82.3187 192.4223,-77.7478 191.6581,-84.706"/>
</g>
<!-- Node9 -->
<g id="node4" class="node">
<title>Node9</title>
<g id="a_node4"><a xlink:href="classGrid.html#a947680e656b1eeb07e1c140437cfd3fb" target="_top" xlink:title="Grid::cell">
<polygon fill="#ffffff" stroke="#000000" points="207.5,-38.5 207.5,-57.5 263.5,-57.5 263.5,-38.5 207.5,-38.5"/>
<text text-anchor="middle" x="235.5" y="-45.5" font-family="Helvetica,sans-Serif" font-size="10.00" fill="#000000">Grid::cell</text>
</a>
</g>
</g>
<!-- Node6&#45;&gt;Node9 -->
<g id="edge3" class="edge">
<title>Node6&#45;&gt;Node9</title>
<path fill="none" stroke="#191970" d="M125.4464,-60.0868C149.4143,-57.4545 175.9938,-54.5354 197.0268,-52.2254"/>
<polygon fill="#191970" stroke="#191970" points="197.615,-55.6819 207.1731,-51.111 196.8508,-48.7238 197.615,-55.6819"/>
</g>
<!-- Node10 -->
<g id="node5" class="node">
<title>Node10</title>
<g id="a_node5"><a xlink:href="classShadowBrush.html#ac72107dffb3b70f5f997d0708025b799" target="_top" xlink:title="ShadowBrush::drawRectangle">
<polygon fill="#ffffff" stroke="#000000" points="161,-.5 161,-19.5 310,-19.5 310,-.5 161,-.5"/>
<text text-anchor="middle" x="235.5" y="-7.5" font-family="Helvetica,sans-Serif" font-size="10.00" fill="#000000">ShadowBrush::drawRectangle</text>
</a>
</g>
</g>
<!-- Node6&#45;&gt;Node10 -->
<g id="edge4" class="edge">
<title>Node6&#45;&gt;Node10</title>
<path fill="none" stroke="#191970" d="M84.9198,-57.4754C104.7102,-49.2793 134.4588,-37.4712 161,-29 168.5104,-26.6029 176.5208,-24.3005 184.4008,-22.1768"/>
<polygon fill="#191970" stroke="#191970" points="185.4806,-25.512 194.2649,-19.5886 183.704,-18.7412 185.4806,-25.512"/>
</g>
</g>
</svg>
