<?xml version="1.0" encoding="UTF-8" standalone="no"?>
<!DOCTYPE svg PUBLIC "-//W3C//DTD SVG 1.1//EN"
 "http://www.w3.org/Graphics/SVG/1.1/DTD/svg11.dtd">
<!-- Generated by graphviz version 2.40.1 (20161225.0304)
 -->
<!-- Title: BlockModel Pages: 1 -->
<svg width="142pt" height="303pt"
 viewBox="0.00 0.00 141.50 303.00" xmlns="http://www.w3.org/2000/svg" xmlns:xlink="http://www.w3.org/1999/xlink">
<g id="graph0" class="graph" transform="scale(1 1) rotate(0) translate(4 299)">
<title>BlockModel</title>
<polygon fill="#ffffff" stroke="transparent" points="-4,4 -4,-299 137.5,-299 137.5,4 -4,4"/>
<!-- Node0 -->
<g id="node1" class="node">
<title>Node0</title>
<polygon fill="#bfbfbf" stroke="#000000" points="21,-.5 21,-178.5 107,-178.5 107,-.5 21,-.5"/>
<text text-anchor="middle" x="64" y="-166.5" font-family="Helvetica,sans-Serif" font-size="10.00" fill="#000000">BlockModel</text>
<polyline fill="none" stroke="#000000" points="21,-159.5 107,-159.5 "/>
<text text-anchor="middle" x="64" y="-147.5" font-family="Helvetica,sans-Serif" font-size="10.00" fill="#000000"> </text>
<polyline fill="none" stroke="#000000" points="21,-140.5 107,-140.5 "/>
<text text-anchor="start" x="29" y="-128.5" font-family="Helvetica,sans-Serif" font-size="10.00" fill="#000000">+ BlockModel()</text>
<text text-anchor="start" x="29" y="-117.5" font-family="Helvetica,sans-Serif" font-size="10.00" fill="#000000">+ move()</text>
<text text-anchor="start" x="29" y="-106.5" font-family="Helvetica,sans-Serif" font-size="10.00" fill="#000000">+ rotate()</text>
<text text-anchor="start" x="29" y="-95.5" font-family="Helvetica,sans-Serif" font-size="10.00" fill="#000000">+ speedup()</text>
<text text-anchor="start" x="29" y="-84.5" font-family="Helvetica,sans-Serif" font-size="10.00" fill="#000000">+ position()</text>
<text text-anchor="start" x="29" y="-73.5" font-family="Helvetica,sans-Serif" font-size="10.00" fill="#000000">+ currentBlock()</text>
<text text-anchor="start" x="29" y="-62.5" font-family="Helvetica,sans-Serif" font-size="10.00" fill="#000000">+ nextBlock()</text>
<text text-anchor="start" x="29" y="-51.5" font-family="Helvetica,sans-Serif" font-size="10.00" fill="#000000">+ gameOver()</text>
<text text-anchor="start" x="29" y="-40.5" font-family="Helvetica,sans-Serif" font-size="10.00" fill="#000000">+ placed()</text>
<text text-anchor="start" x="29" y="-29.5" font-family="Helvetica,sans-Serif" font-size="10.00" fill="#000000">+ step()</text>
<text text-anchor="start" x="29" y="-18.5" font-family="Helvetica,sans-Serif" font-size="10.00" fill="#000000">+ reset()</text>
<text text-anchor="start" x="29" y="-7.5" font-family="Helvetica,sans-Serif" font-size="10.00" fill="#000000">+ grid()</text>
</g>
<!-- Node1 -->
<g id="node2" class="node">
<title>Node1</title>
<g id="a_node2"><a xlink:href="classModel.html" target="_top" xlink:title="{Model\n||+ step()\l+ alive()\l+ kill()\l}">
<polygon fill="#ffffff" stroke="#000000" points="0,-215.5 0,-294.5 52,-294.5 52,-215.5 0,-215.5"/>
<text text-anchor="middle" x="26" y="-282.5" font-family="Helvetica,sans-Serif" font-size="10.00" fill="#000000">Model</text>
<polyline fill="none" stroke="#000000" points="0,-275.5 52,-275.5 "/>
<text text-anchor="middle" x="26" y="-263.5" font-family="Helvetica,sans-Serif" font-size="10.00" fill="#000000"> </text>
<polyline fill="none" stroke="#000000" points="0,-256.5 52,-256.5 "/>
<text text-anchor="start" x="8" y="-244.5" font-family="Helvetica,sans-Serif" font-size="10.00" fill="#000000">+ step()</text>
<text text-anchor="start" x="8" y="-233.5" font-family="Helvetica,sans-Serif" font-size="10.00" fill="#000000">+ alive()</text>
<text text-anchor="start" x="8" y="-222.5" font-family="Helvetica,sans-Serif" font-size="10.00" fill="#000000">+ kill()</text>
</a>
</g>
</g>
<!-- Node1&#45;&gt;Node0 -->
<g id="edge1" class="edge">
<title>Node1&#45;&gt;Node0</title>
<path fill="none" stroke="#191970" d="M37.3426,-205.6C39.3081,-197.0396 41.405,-187.9073 43.5264,-178.6678"/>
<polygon fill="none" stroke="#191970" points="33.9286,-204.829 35.1019,-215.3586 40.7511,-206.3955 33.9286,-204.829"/>
</g>
<!-- Node2 -->
<g id="node3" class="node">
<title>Node2</title>
<g id="a_node3"><a xlink:href="classPauseble.html" target="_top" xlink:title="{Pauseble\n||+ paused()\l+ paused()\l}">
<polygon fill="#ffffff" stroke="#000000" points="70.5,-221 70.5,-289 133.5,-289 133.5,-221 70.5,-221"/>
<text text-anchor="middle" x="102" y="-277" font-family="Helvetica,sans-Serif" font-size="10.00" fill="#000000">Pauseble</text>
<polyline fill="none" stroke="#000000" points="70.5,-270 133.5,-270 "/>
<text text-anchor="middle" x="102" y="-258" font-family="Helvetica,sans-Serif" font-size="10.00" fill="#000000"> </text>
<polyline fill="none" stroke="#000000" points="70.5,-251 133.5,-251 "/>
<text text-anchor="start" x="78.5" y="-239" font-family="Helvetica,sans-Serif" font-size="10.00" fill="#000000">+ paused()</text>
<text text-anchor="start" x="78.5" y="-228" font-family="Helvetica,sans-Serif" font-size="10.00" fill="#000000">+ paused()</text>
</a>
</g>
</g>
<!-- Node2&#45;&gt;Node0 -->
<g id="edge2" class="edge">
<title>Node2&#45;&gt;Node0</title>
<path fill="none" stroke="#191970" d="M91.8288,-210.7017C89.5403,-200.7348 87.0321,-189.8109 84.4881,-178.731"/>
<polygon fill="none" stroke="#191970" points="88.4772,-211.7452 94.1264,-220.7083 95.2997,-210.1786 88.4772,-211.7452"/>
</g>
</g>
</svg>
