<?xml version="1.0" encoding="UTF-8" standalone="no"?>
<!DOCTYPE svg PUBLIC "-//W3C//DTD SVG 1.1//EN"
 "http://www.w3.org/Graphics/SVG/1.1/DTD/svg11.dtd">
<!-- Generated by graphviz version 2.40.1 (20161225.0304)
 -->
<!-- Title: BlockRenderer Pages: 1 -->
<svg width="104pt" height="298pt"
 viewBox="0.00 0.00 104.00 298.00" xmlns="http://www.w3.org/2000/svg" xmlns:xlink="http://www.w3.org/1999/xlink">
<g id="graph0" class="graph" transform="scale(1 1) rotate(0) translate(4 294)">
<title>BlockRenderer</title>
<polygon fill="#ffffff" stroke="transparent" points="-4,4 -4,-294 100,-294 100,4 -4,4"/>
<!-- Node0 -->
<g id="node1" class="node">
<title>Node0</title>
<polygon fill="#bfbfbf" stroke="#000000" points="0,-.5 0,-68.5 96,-68.5 96,-.5 0,-.5"/>
<text text-anchor="middle" x="48" y="-56.5" font-family="Helvetica,sans-Serif" font-size="10.00" fill="#000000">BlockRenderer</text>
<polyline fill="none" stroke="#000000" points="0,-49.5 96,-49.5 "/>
<text text-anchor="middle" x="48" y="-37.5" font-family="Helvetica,sans-Serif" font-size="10.00" fill="#000000"> </text>
<polyline fill="none" stroke="#000000" points="0,-30.5 96,-30.5 "/>
<text text-anchor="start" x="8" y="-18.5" font-family="Helvetica,sans-Serif" font-size="10.00" fill="#000000">+ BlockRenderer()</text>
<text text-anchor="start" x="8" y="-7.5" font-family="Helvetica,sans-Serif" font-size="10.00" fill="#000000">+ render()</text>
</g>
<!-- Node1 -->
<g id="node2" class="node">
<title>Node1</title>
<g id="a_node2"><a xlink:href="classGridRenderer.html" target="_top" xlink:title="{GridRenderer\n|# d_cellTextures\l|+ GridRenderer()\l+ ~GridRenderer()\l+ render()\l# renderGrid()\l}">
<polygon fill="#ffffff" stroke="#000000" points=".5,-105.5 .5,-195.5 95.5,-195.5 95.5,-105.5 .5,-105.5"/>
<text text-anchor="middle" x="48" y="-183.5" font-family="Helvetica,sans-Serif" font-size="10.00" fill="#000000">GridRenderer</text>
<polyline fill="none" stroke="#000000" points=".5,-176.5 95.5,-176.5 "/>
<text text-anchor="start" x="8.5" y="-164.5" font-family="Helvetica,sans-Serif" font-size="10.00" fill="#000000"># d_cellTextures</text>
<polyline fill="none" stroke="#000000" points=".5,-157.5 95.5,-157.5 "/>
<text text-anchor="start" x="8.5" y="-145.5" font-family="Helvetica,sans-Serif" font-size="10.00" fill="#000000">+ GridRenderer()</text>
<text text-anchor="start" x="8.5" y="-134.5" font-family="Helvetica,sans-Serif" font-size="10.00" fill="#000000">+ ~GridRenderer()</text>
<text text-anchor="start" x="8.5" y="-123.5" font-family="Helvetica,sans-Serif" font-size="10.00" fill="#000000">+ render()</text>
<text text-anchor="start" x="8.5" y="-112.5" font-family="Helvetica,sans-Serif" font-size="10.00" fill="#000000"># renderGrid()</text>
</a>
</g>
</g>
<!-- Node1&#45;&gt;Node0 -->
<g id="edge1" class="edge">
<title>Node1&#45;&gt;Node0</title>
<path fill="none" stroke="#191970" d="M48,-95.1681C48,-86.1024 48,-76.9497 48,-68.5982"/>
<polygon fill="none" stroke="#191970" points="44.5001,-95.3192 48,-105.3192 51.5001,-95.3192 44.5001,-95.3192"/>
</g>
<!-- Node2 -->
<g id="node3" class="node">
<title>Node2</title>
<g id="a_node3"><a xlink:href="classGameRenderer.html" target="_top" xlink:title="{GameRenderer\n||+ render()\l}">
<polygon fill="#ffffff" stroke="#000000" points="6.5,-232.5 6.5,-289.5 89.5,-289.5 89.5,-232.5 6.5,-232.5"/>
<text text-anchor="middle" x="48" y="-277.5" font-family="Helvetica,sans-Serif" font-size="10.00" fill="#000000">GameRenderer</text>
<polyline fill="none" stroke="#000000" points="6.5,-270.5 89.5,-270.5 "/>
<text text-anchor="middle" x="48" y="-258.5" font-family="Helvetica,sans-Serif" font-size="10.00" fill="#000000"> </text>
<polyline fill="none" stroke="#000000" points="6.5,-251.5 89.5,-251.5 "/>
<text text-anchor="start" x="14.5" y="-239.5" font-family="Helvetica,sans-Serif" font-size="10.00" fill="#000000">+ render()</text>
</a>
</g>
</g>
<!-- Node2&#45;&gt;Node1 -->
<g id="edge2" class="edge">
<title>Node2&#45;&gt;Node1</title>
<path fill="none" stroke="#191970" d="M48,-222.1977C48,-213.667 48,-204.5607 48,-195.7995"/>
<polygon fill="none" stroke="#191970" points="44.5001,-222.2559 48,-232.2559 51.5001,-222.2559 44.5001,-222.2559"/>
</g>
</g>
</svg>
