<?xml version="1.0" encoding="UTF-8" standalone="no"?>
<!DOCTYPE svg PUBLIC "-//W3C//DTD SVG 1.1//EN"
 "http://www.w3.org/Graphics/SVG/1.1/DTD/svg11.dtd">
<!-- Generated by graphviz version 2.40.1 (20161225.0304)
 -->
<!-- Title: TextureFactory::texture Pages: 1 -->
<svg width="320pt" height="165pt"
 viewBox="0.00 0.00 320.00 165.00" xmlns="http://www.w3.org/2000/svg" xmlns:xlink="http://www.w3.org/1999/xlink">
<g id="graph0" class="graph" transform="scale(1 1) rotate(0) translate(4 161)">
<title>TextureFactory::texture</title>
<polygon fill="#ffffff" stroke="transparent" points="-4,4 -4,-161 316,-161 316,4 -4,4"/>
<!-- Node10 -->
<g id="node1" class="node">
<title>Node10</title>
<polygon fill="#bfbfbf" stroke="#000000" points="0,-68.5 0,-87.5 119,-87.5 119,-68.5 0,-68.5"/>
<text text-anchor="middle" x="59.5" y="-75.5" font-family="Helvetica,sans-Serif" font-size="10.00" fill="#000000">TextureFactory::texture</text>
</g>
<!-- Node11 -->
<g id="node2" class="node">
<title>Node11</title>
<g id="a_node2"><a xlink:href="classBlockRenderer.html#a80718e09fdef7008b8575bbcee2c8fde" target="_top" xlink:title="BlockRenderer::BlockRenderer">
<polygon fill="#ffffff" stroke="#000000" points="157.5,-137.5 157.5,-156.5 309.5,-156.5 309.5,-137.5 157.5,-137.5"/>
<text text-anchor="middle" x="233.5" y="-144.5" font-family="Helvetica,sans-Serif" font-size="10.00" fill="#000000">BlockRenderer::BlockRenderer</text>
</a>
</g>
</g>
<!-- Node10&#45;&gt;Node11 -->
<g id="edge1" class="edge">
<title>Node10&#45;&gt;Node11</title>
<path fill="none" stroke="#191970" d="M83.635,-92.7558C102.4974,-103.7584 129.6766,-118.4713 155,-128 164.8427,-131.7036 175.656,-134.868 186.0262,-137.4911"/>
<polygon fill="#191970" stroke="#191970" points="85.2228,-89.6283 74.8358,-87.5398 81.6532,-95.6498 85.2228,-89.6283"/>
</g>
<!-- Node12 -->
<g id="node3" class="node">
<title>Node12</title>
<g id="a_node3"><a xlink:href="classGameOverRenderer.html#a706fcd507b45abd1658720fee5c41c47" target="_top" xlink:title="GameOverRenderer::GameOver\lRenderer">
<polygon fill="#ffffff" stroke="#000000" points="155,-88 155,-118 312,-118 312,-88 155,-88"/>
<text text-anchor="start" x="163" y="-106" font-family="Helvetica,sans-Serif" font-size="10.00" fill="#000000">GameOverRenderer::GameOver</text>
<text text-anchor="middle" x="233.5" y="-95" font-family="Helvetica,sans-Serif" font-size="10.00" fill="#000000">Renderer</text>
</a>
</g>
</g>
<!-- Node10&#45;&gt;Node12 -->
<g id="edge2" class="edge">
<title>Node10&#45;&gt;Node12</title>
<path fill="none" stroke="#191970" d="M129.4212,-88.0461C137.7588,-89.2441 146.3142,-90.4733 154.7646,-91.6874"/>
<polygon fill="#191970" stroke="#191970" points="129.7771,-84.5614 119.3809,-86.6036 128.7815,-91.4903 129.7771,-84.5614"/>
</g>
<!-- Node13 -->
<g id="node4" class="node">
<title>Node13</title>
<g id="a_node4"><a xlink:href="classPauseMenuRenderer.html#a28d42a4298497f60a0116375796feae4" target="_top" xlink:title="PauseMenuRenderer::\lPauseMenuRenderer">
<polygon fill="#ffffff" stroke="#000000" points="176.5,-39 176.5,-69 290.5,-69 290.5,-39 176.5,-39"/>
<text text-anchor="start" x="184.5" y="-57" font-family="Helvetica,sans-Serif" font-size="10.00" fill="#000000">PauseMenuRenderer::</text>
<text text-anchor="middle" x="233.5" y="-46" font-family="Helvetica,sans-Serif" font-size="10.00" fill="#000000">PauseMenuRenderer</text>
</a>
</g>
</g>
<!-- Node10&#45;&gt;Node13 -->
<g id="edge3" class="edge">
<title>Node10&#45;&gt;Node13</title>
<path fill="none" stroke="#191970" d="M129.497,-68.3452C145.091,-66.1943 161.4433,-63.9389 176.4431,-61.8699"/>
<polygon fill="#191970" stroke="#191970" points="128.8089,-64.9069 119.3809,-69.7406 129.7654,-71.8413 128.8089,-64.9069"/>
</g>
<!-- Node14 -->
<g id="node5" class="node">
<title>Node14</title>
<g id="a_node5"><a xlink:href="classTetrisRenderer.html#a340e1e2628836cd25ef09c2d8b8eaed5" target="_top" xlink:title="TetrisRenderer::TetrisRenderer">
<polygon fill="#ffffff" stroke="#000000" points="157.5,-.5 157.5,-19.5 309.5,-19.5 309.5,-.5 157.5,-.5"/>
<text text-anchor="middle" x="233.5" y="-7.5" font-family="Helvetica,sans-Serif" font-size="10.00" fill="#000000">TetrisRenderer::TetrisRenderer</text>
</a>
</g>
</g>
<!-- Node10&#45;&gt;Node14 -->
<g id="edge4" class="edge">
<title>Node10&#45;&gt;Node14</title>
<path fill="none" stroke="#191970" d="M84.76,-63.4106C103.6305,-52.9846 130.3156,-39.2238 155,-30 165.8028,-25.9633 177.7391,-22.4606 188.9745,-19.564"/>
<polygon fill="#191970" stroke="#191970" points="82.9228,-60.4279 75.912,-68.3714 86.3463,-66.5337 82.9228,-60.4279"/>
</g>
</g>
</svg>
