<?xml version="1.0" encoding="UTF-8" standalone="no"?>
<!DOCTYPE svg PUBLIC "-//W3C//DTD SVG 1.1//EN"
 "http://www.w3.org/Graphics/SVG/1.1/DTD/svg11.dtd">
<!-- Generated by graphviz version 2.40.1 (20161225.0304)
 -->
<!-- Title: GridRenderer Pages: 1 -->
<svg width="224pt" height="309pt"
 viewBox="0.00 0.00 224.00 309.00" xmlns="http://www.w3.org/2000/svg" xmlns:xlink="http://www.w3.org/1999/xlink">
<g id="graph0" class="graph" transform="scale(1 1) rotate(0) translate(4 305)">
<title>GridRenderer</title>
<polygon fill="#ffffff" stroke="transparent" points="-4,4 -4,-305 220,-305 220,4 -4,4"/>
<!-- Node0 -->
<g id="node1" class="node">
<title>Node0</title>
<polygon fill="#bfbfbf" stroke="#000000" points="58.5,-116.5 58.5,-206.5 153.5,-206.5 153.5,-116.5 58.5,-116.5"/>
<text text-anchor="middle" x="106" y="-194.5" font-family="Helvetica,sans-Serif" font-size="10.00" fill="#000000">GridRenderer</text>
<polyline fill="none" stroke="#000000" points="58.5,-187.5 153.5,-187.5 "/>
<text text-anchor="start" x="66.5" y="-175.5" font-family="Helvetica,sans-Serif" font-size="10.00" fill="#000000"># d_cellTextures</text>
<polyline fill="none" stroke="#000000" points="58.5,-168.5 153.5,-168.5 "/>
<text text-anchor="start" x="66.5" y="-156.5" font-family="Helvetica,sans-Serif" font-size="10.00" fill="#000000">+ GridRenderer()</text>
<text text-anchor="start" x="66.5" y="-145.5" font-family="Helvetica,sans-Serif" font-size="10.00" fill="#000000">+ ~GridRenderer()</text>
<text text-anchor="start" x="66.5" y="-134.5" font-family="Helvetica,sans-Serif" font-size="10.00" fill="#000000">+ render()</text>
<text text-anchor="start" x="66.5" y="-123.5" font-family="Helvetica,sans-Serif" font-size="10.00" fill="#000000"># renderGrid()</text>
</g>
<!-- Node2 -->
<g id="node3" class="node">
<title>Node2</title>
<g id="a_node3"><a xlink:href="classBlockRenderer.html" target="_top" xlink:title="{BlockRenderer\n||+ BlockRenderer()\l+ render()\l}">
<polygon fill="#ffffff" stroke="#000000" points="0,-6 0,-74 96,-74 96,-6 0,-6"/>
<text text-anchor="middle" x="48" y="-62" font-family="Helvetica,sans-Serif" font-size="10.00" fill="#000000">BlockRenderer</text>
<polyline fill="none" stroke="#000000" points="0,-55 96,-55 "/>
<text text-anchor="middle" x="48" y="-43" font-family="Helvetica,sans-Serif" font-size="10.00" fill="#000000"> </text>
<polyline fill="none" stroke="#000000" points="0,-36 96,-36 "/>
<text text-anchor="start" x="8" y="-24" font-family="Helvetica,sans-Serif" font-size="10.00" fill="#000000">+ BlockRenderer()</text>
<text text-anchor="start" x="8" y="-13" font-family="Helvetica,sans-Serif" font-size="10.00" fill="#000000">+ render()</text>
</a>
</g>
</g>
<!-- Node0&#45;&gt;Node2 -->
<g id="edge2" class="edge">
<title>Node0&#45;&gt;Node2</title>
<path fill="none" stroke="#191970" d="M79.9853,-107.0036C74.6693,-95.8677 69.2182,-84.4484 64.3565,-74.264"/>
<polygon fill="none" stroke="#191970" points="76.9363,-108.7412 84.4029,-116.2579 83.2535,-105.7256 76.9363,-108.7412"/>
</g>
<!-- Node3 -->
<g id="node4" class="node">
<title>Node3</title>
<g id="a_node4"><a xlink:href="classTetrisRenderer.html" target="_top" xlink:title="{TetrisRenderer\n||+ TetrisRenderer()\l+ ~TetrisRenderer()\l+ render()\l}">
<polygon fill="#ffffff" stroke="#000000" points="114,-.5 114,-79.5 216,-79.5 216,-.5 114,-.5"/>
<text text-anchor="middle" x="165" y="-67.5" font-family="Helvetica,sans-Serif" font-size="10.00" fill="#000000">TetrisRenderer</text>
<polyline fill="none" stroke="#000000" points="114,-60.5 216,-60.5 "/>
<text text-anchor="middle" x="165" y="-48.5" font-family="Helvetica,sans-Serif" font-size="10.00" fill="#000000"> </text>
<polyline fill="none" stroke="#000000" points="114,-41.5 216,-41.5 "/>
<text text-anchor="start" x="122" y="-29.5" font-family="Helvetica,sans-Serif" font-size="10.00" fill="#000000">+ TetrisRenderer()</text>
<text text-anchor="start" x="122" y="-18.5" font-family="Helvetica,sans-Serif" font-size="10.00" fill="#000000">+ ~TetrisRenderer()</text>
<text text-anchor="start" x="122" y="-7.5" font-family="Helvetica,sans-Serif" font-size="10.00" fill="#000000">+ render()</text>
</a>
</g>
</g>
<!-- Node0&#45;&gt;Node3 -->
<g id="edge3" class="edge">
<title>Node0&#45;&gt;Node3</title>
<path fill="none" stroke="#191970" d="M132.4066,-107.1204C136.8914,-97.8846 141.4727,-88.4502 145.7297,-79.6838"/>
<polygon fill="none" stroke="#191970" points="129.1892,-105.7335 127.9694,-116.2579 135.4861,-108.7913 129.1892,-105.7335"/>
</g>
<!-- Node1 -->
<g id="node2" class="node">
<title>Node1</title>
<g id="a_node2"><a xlink:href="classGameRenderer.html" target="_top" xlink:title="{GameRenderer\n||+ render()\l}">
<polygon fill="#ffffff" stroke="#000000" points="64.5,-243.5 64.5,-300.5 147.5,-300.5 147.5,-243.5 64.5,-243.5"/>
<text text-anchor="middle" x="106" y="-288.5" font-family="Helvetica,sans-Serif" font-size="10.00" fill="#000000">GameRenderer</text>
<polyline fill="none" stroke="#000000" points="64.5,-281.5 147.5,-281.5 "/>
<text text-anchor="middle" x="106" y="-269.5" font-family="Helvetica,sans-Serif" font-size="10.00" fill="#000000"> </text>
<polyline fill="none" stroke="#000000" points="64.5,-262.5 147.5,-262.5 "/>
<text text-anchor="start" x="72.5" y="-250.5" font-family="Helvetica,sans-Serif" font-size="10.00" fill="#000000">+ render()</text>
</a>
</g>
</g>
<!-- Node1&#45;&gt;Node0 -->
<g id="edge1" class="edge">
<title>Node1&#45;&gt;Node0</title>
<path fill="none" stroke="#191970" d="M106,-233.1977C106,-224.667 106,-215.5607 106,-206.7995"/>
<polygon fill="none" stroke="#191970" points="102.5001,-233.2559 106,-243.2559 109.5001,-233.2559 102.5001,-233.2559"/>
</g>
</g>
</svg>
