<?xml version="1.0" encoding="UTF-8" standalone="no"?>
<!DOCTYPE svg PUBLIC "-//W3C//DTD SVG 1.1//EN"
 "http://www.w3.org/Graphics/SVG/1.1/DTD/svg11.dtd">
<!-- Generated by graphviz version 2.40.1 (20161225.0304)
 -->
<!-- Title: TetrisRenderer Pages: 1 -->
<svg width="110pt" height="309pt"
 viewBox="0.00 0.00 110.00 309.00" xmlns="http://www.w3.org/2000/svg" xmlns:xlink="http://www.w3.org/1999/xlink">
<g id="graph0" class="graph" transform="scale(1 1) rotate(0) translate(4 305)">
<title>TetrisRenderer</title>
<polygon fill="#ffffff" stroke="transparent" points="-4,4 -4,-305 106,-305 106,4 -4,4"/>
<!-- Node3 -->
<g id="node1" class="node">
<title>Node3</title>
<polygon fill="#bfbfbf" stroke="#000000" points="0,-.5 0,-79.5 102,-79.5 102,-.5 0,-.5"/>
<text text-anchor="middle" x="51" y="-67.5" font-family="Helvetica,sans-Serif" font-size="10.00" fill="#000000">TetrisRenderer</text>
<polyline fill="none" stroke="#000000" points="0,-60.5 102,-60.5 "/>
<text text-anchor="middle" x="51" y="-48.5" font-family="Helvetica,sans-Serif" font-size="10.00" fill="#000000"> </text>
<polyline fill="none" stroke="#000000" points="0,-41.5 102,-41.5 "/>
<text text-anchor="start" x="8" y="-29.5" font-family="Helvetica,sans-Serif" font-size="10.00" fill="#000000">+ TetrisRenderer()</text>
<text text-anchor="start" x="8" y="-18.5" font-family="Helvetica,sans-Serif" font-size="10.00" fill="#000000">+ ~TetrisRenderer()</text>
<text text-anchor="start" x="8" y="-7.5" font-family="Helvetica,sans-Serif" font-size="10.00" fill="#000000">+ render()</text>
</g>
<!-- Node4 -->
<g id="node2" class="node">
<title>Node4</title>
<g id="a_node2"><a xlink:href="classGridRenderer.html" target="_top" xlink:title="{GridRenderer\n|# d_cellTextures\l|+ GridRenderer()\l+ ~GridRenderer()\l+ render()\l# renderGrid()\l}">
<polygon fill="#ffffff" stroke="#000000" points="3.5,-116.5 3.5,-206.5 98.5,-206.5 98.5,-116.5 3.5,-116.5"/>
<text text-anchor="middle" x="51" y="-194.5" font-family="Helvetica,sans-Serif" font-size="10.00" fill="#000000">GridRenderer</text>
<polyline fill="none" stroke="#000000" points="3.5,-187.5 98.5,-187.5 "/>
<text text-anchor="start" x="11.5" y="-175.5" font-family="Helvetica,sans-Serif" font-size="10.00" fill="#000000"># d_cellTextures</text>
<polyline fill="none" stroke="#000000" points="3.5,-168.5 98.5,-168.5 "/>
<text text-anchor="start" x="11.5" y="-156.5" font-family="Helvetica,sans-Serif" font-size="10.00" fill="#000000">+ GridRenderer()</text>
<text text-anchor="start" x="11.5" y="-145.5" font-family="Helvetica,sans-Serif" font-size="10.00" fill="#000000">+ ~GridRenderer()</text>
<text text-anchor="start" x="11.5" y="-134.5" font-family="Helvetica,sans-Serif" font-size="10.00" fill="#000000">+ render()</text>
<text text-anchor="start" x="11.5" y="-123.5" font-family="Helvetica,sans-Serif" font-size="10.00" fill="#000000"># renderGrid()</text>
</a>
</g>
</g>
<!-- Node4&#45;&gt;Node3 -->
<g id="edge1" class="edge">
<title>Node4&#45;&gt;Node3</title>
<path fill="none" stroke="#191970" d="M51,-106.254C51,-97.2956 51,-88.1763 51,-79.6838"/>
<polygon fill="none" stroke="#191970" points="47.5001,-106.2578 51,-116.2579 54.5001,-106.2579 47.5001,-106.2578"/>
</g>
<!-- Node5 -->
<g id="node3" class="node">
<title>Node5</title>
<g id="a_node3"><a xlink:href="classGameRenderer.html" target="_top" xlink:title="{GameRenderer\n||+ render()\l}">
<polygon fill="#ffffff" stroke="#000000" points="9.5,-243.5 9.5,-300.5 92.5,-300.5 92.5,-243.5 9.5,-243.5"/>
<text text-anchor="middle" x="51" y="-288.5" font-family="Helvetica,sans-Serif" font-size="10.00" fill="#000000">GameRenderer</text>
<polyline fill="none" stroke="#000000" points="9.5,-281.5 92.5,-281.5 "/>
<text text-anchor="middle" x="51" y="-269.5" font-family="Helvetica,sans-Serif" font-size="10.00" fill="#000000"> </text>
<polyline fill="none" stroke="#000000" points="9.5,-262.5 92.5,-262.5 "/>
<text text-anchor="start" x="17.5" y="-250.5" font-family="Helvetica,sans-Serif" font-size="10.00" fill="#000000">+ render()</text>
</a>
</g>
</g>
<!-- Node5&#45;&gt;Node4 -->
<g id="edge2" class="edge">
<title>Node5&#45;&gt;Node4</title>
<path fill="none" stroke="#191970" d="M51,-233.1977C51,-224.667 51,-215.5607 51,-206.7995"/>
<polygon fill="none" stroke="#191970" points="47.5001,-233.2559 51,-243.2559 54.5001,-233.2559 47.5001,-233.2559"/>
</g>
</g>
</svg>
