<?xml version="1.0" encoding="UTF-8" standalone="no"?>
<!DOCTYPE svg PUBLIC "-//W3C//DTD SVG 1.1//EN"
 "http://www.w3.org/Graphics/SVG/1.1/DTD/svg11.dtd">
<!-- Generated by graphviz version 2.40.1 (20161225.0304)
 -->
<!-- Title: PauseMenuAudio::PauseMenuAudio Pages: 1 -->
<svg width="302pt" height="66pt"
 viewBox="0.00 0.00 302.00 66.00" xmlns="http://www.w3.org/2000/svg" xmlns:xlink="http://www.w3.org/1999/xlink">
<g id="graph0" class="graph" transform="scale(1 1) rotate(0) translate(4 62)">
<title>PauseMenuAudio::PauseMenuAudio</title>
<polygon fill="#ffffff" stroke="transparent" points="-4,4 -4,-62 298,-62 298,4 -4,4"/>
<!-- Node0 -->
<g id="node1" class="node">
<title>Node0</title>
<polygon fill="#bfbfbf" stroke="#000000" points="0,-14 0,-44 151,-44 151,-14 0,-14"/>
<text text-anchor="start" x="8" y="-32" font-family="Helvetica,sans-Serif" font-size="10.00" fill="#000000">PauseMenuAudio::PauseMenu</text>
<text text-anchor="middle" x="75.5" y="-21" font-family="Helvetica,sans-Serif" font-size="10.00" fill="#000000">Audio</text>
</g>
<!-- Node1 -->
<g id="node2" class="node">
<title>Node1</title>
<g id="a_node2"><a xlink:href="classAudioFactory.html#acc5f2af0d163be9c98631ded22a9bb11" target="_top" xlink:title="AudioFactory::music">
<polygon fill="#ffffff" stroke="#000000" points="187,-38.5 187,-57.5 294,-57.5 294,-38.5 187,-38.5"/>
<text text-anchor="middle" x="240.5" y="-45.5" font-family="Helvetica,sans-Serif" font-size="10.00" fill="#000000">AudioFactory::music</text>
</a>
</g>
</g>
<!-- Node0&#45;&gt;Node1 -->
<g id="edge1" class="edge">
<title>Node0&#45;&gt;Node1</title>
<path fill="none" stroke="#191970" d="M151.2392,-37.7215C159.7917,-38.7063 168.4419,-39.7024 176.8186,-40.667"/>
<polygon fill="#191970" stroke="#191970" points="176.541,-44.1581 186.8758,-41.8251 177.3419,-37.204 176.541,-44.1581"/>
</g>
<!-- Node2 -->
<g id="node3" class="node">
<title>Node2</title>
<g id="a_node3"><a xlink:href="classAudioFactory.html#aa0a8e27e7b5bb5e5d4d629d47f9068b6" target="_top" xlink:title="AudioFactory::sound">
<polygon fill="#ffffff" stroke="#000000" points="187,-.5 187,-19.5 294,-19.5 294,-.5 187,-.5"/>
<text text-anchor="middle" x="240.5" y="-7.5" font-family="Helvetica,sans-Serif" font-size="10.00" fill="#000000">AudioFactory::sound</text>
</a>
</g>
</g>
<!-- Node0&#45;&gt;Node2 -->
<g id="edge2" class="edge">
<title>Node0&#45;&gt;Node2</title>
<path fill="none" stroke="#191970" d="M151.2392,-20.2785C159.7917,-19.2937 168.4419,-18.2976 176.8186,-17.333"/>
<polygon fill="#191970" stroke="#191970" points="177.3419,-20.796 186.8758,-16.1749 176.541,-13.8419 177.3419,-20.796"/>
</g>
</g>
</svg>
