<?xml version="1.0" encoding="UTF-8" standalone="no"?>
<!DOCTYPE svg PUBLIC "-//W3C//DTD SVG 1.1//EN"
 "http://www.w3.org/Graphics/SVG/1.1/DTD/svg11.dtd">
<!-- Generated by graphviz version 2.40.1 (20161225.0304)
 -->
<!-- Title: LevelModel::step Pages: 1 -->
<svg width="229pt" height="66pt"
 viewBox="0.00 0.00 229.00 66.00" xmlns="http://www.w3.org/2000/svg" xmlns:xlink="http://www.w3.org/1999/xlink">
<g id="graph0" class="graph" transform="scale(1 1) rotate(0) translate(4 62)">
<title>LevelModel::step</title>
<polygon fill="#ffffff" stroke="transparent" points="-4,4 -4,-62 225,-62 225,4 -4,4"/>
<!-- Node7 -->
<g id="node1" class="node">
<title>Node7</title>
<polygon fill="#bfbfbf" stroke="#000000" points="0,-19.5 0,-38.5 91,-38.5 91,-19.5 0,-19.5"/>
<text text-anchor="middle" x="45.5" y="-26.5" font-family="Helvetica,sans-Serif" font-size="10.00" fill="#000000">LevelModel::step</text>
</g>
<!-- Node8 -->
<g id="node2" class="node">
<title>Node8</title>
<g id="a_node2"><a xlink:href="classLevelModel.html#a0775359725eaa215ebd9237a8bf31014" target="_top" xlink:title="LevelModel::level">
<polygon fill="#ffffff" stroke="#000000" points="128,-38.5 128,-57.5 220,-57.5 220,-38.5 128,-38.5"/>
<text text-anchor="middle" x="174" y="-45.5" font-family="Helvetica,sans-Serif" font-size="10.00" fill="#000000">LevelModel::level</text>
</a>
</g>
</g>
<!-- Node7&#45;&gt;Node8 -->
<g id="edge1" class="edge">
<title>Node7&#45;&gt;Node8</title>
<path fill="none" stroke="#191970" d="M91.1661,-35.7522C99.7618,-37.0231 108.843,-38.3659 117.7182,-39.6782"/>
<polygon fill="#191970" stroke="#191970" points="117.2098,-43.141 127.6142,-41.1414 118.2338,-36.2163 117.2098,-43.141"/>
</g>
<!-- Node9 -->
<g id="node3" class="node">
<title>Node9</title>
<g id="a_node3"><a xlink:href="classTetrisModel.html#a2f3a2654fc3db92a247223bf631e24f5" target="_top" xlink:title="TetrisModel::level">
<polygon fill="#ffffff" stroke="#000000" points="127,-.5 127,-19.5 221,-19.5 221,-.5 127,-.5"/>
<text text-anchor="middle" x="174" y="-7.5" font-family="Helvetica,sans-Serif" font-size="10.00" fill="#000000">TetrisModel::level</text>
</a>
</g>
</g>
<!-- Node7&#45;&gt;Node9 -->
<g id="edge2" class="edge">
<title>Node7&#45;&gt;Node9</title>
<path fill="none" stroke="#191970" d="M91.1661,-22.2478C99.462,-21.0212 108.2101,-19.7277 116.7888,-18.4592"/>
<polygon fill="#191970" stroke="#191970" points="117.3639,-21.9124 126.7444,-16.9872 116.3399,-14.9876 117.3639,-21.9124"/>
</g>
</g>
</svg>
