<?xml version="1.0" encoding="UTF-8" standalone="no"?>
<!DOCTYPE svg PUBLIC "-//W3C//DTD SVG 1.1//EN"
 "http://www.w3.org/Graphics/SVG/1.1/DTD/svg11.dtd">
<!-- Generated by graphviz version 2.40.1 (20161225.0304)
 -->
<!-- Title: TetrisModel::grid Pages: 1 -->
<svg width="708pt" height="123pt"
 viewBox="0.00 0.00 708.00 123.00" xmlns="http://www.w3.org/2000/svg" xmlns:xlink="http://www.w3.org/1999/xlink">
<g id="graph0" class="graph" transform="scale(1 1) rotate(0) translate(4 119)">
<title>TetrisModel::grid</title>
<polygon fill="#ffffff" stroke="transparent" points="-4,4 -4,-119 704,-119 704,4 -4,4"/>
<!-- Node6 -->
<g id="node1" class="node">
<title>Node6</title>
<polygon fill="#bfbfbf" stroke="#000000" points="0,-76.5 0,-95.5 89,-95.5 89,-76.5 0,-76.5"/>
<text text-anchor="middle" x="44.5" y="-83.5" font-family="Helvetica,sans-Serif" font-size="10.00" fill="#000000">TetrisModel::grid</text>
</g>
<!-- Node7 -->
<g id="node2" class="node">
<title>Node7</title>
<g id="a_node2"><a xlink:href="classTetrisRenderer.html#a37f71d197e635739aab54abb576f1876" target="_top" xlink:title="TetrisRenderer::render">
<polygon fill="#ffffff" stroke="#000000" points="125,-95.5 125,-114.5 239,-114.5 239,-95.5 125,-95.5"/>
<text text-anchor="middle" x="182" y="-102.5" font-family="Helvetica,sans-Serif" font-size="10.00" fill="#000000">TetrisRenderer::render</text>
</a>
</g>
</g>
<!-- Node6&#45;&gt;Node7 -->
<g id="edge1" class="edge">
<title>Node6&#45;&gt;Node7</title>
<path fill="none" stroke="#191970" d="M99.1485,-93.5514C107.4984,-94.7052 116.1384,-95.8991 124.5465,-97.061"/>
<polygon fill="#191970" stroke="#191970" points="99.5273,-90.0706 89.1423,-92.1688 98.5691,-97.0047 99.5273,-90.0706"/>
</g>
<!-- Node8 -->
<g id="node3" class="node">
<title>Node8</title>
<g id="a_node3"><a xlink:href="classBlockModel.html#aa74c33064430c5f566d009c6bab1c848" target="_top" xlink:title="BlockModel::grid">
<polygon fill="#ffffff" stroke="#000000" points="137.5,-57.5 137.5,-76.5 226.5,-76.5 226.5,-57.5 137.5,-57.5"/>
<text text-anchor="middle" x="182" y="-64.5" font-family="Helvetica,sans-Serif" font-size="10.00" fill="#000000">BlockModel::grid</text>
</a>
</g>
</g>
<!-- Node6&#45;&gt;Node8 -->
<g id="edge2" class="edge">
<title>Node6&#45;&gt;Node8</title>
<path fill="none" stroke="#191970" d="M99.0797,-78.4581C111.6914,-76.7154 124.9682,-74.8808 137.1112,-73.2028"/>
<polygon fill="#191970" stroke="#191970" points="98.5691,-74.9953 89.1423,-79.8312 99.5273,-81.9294 98.5691,-74.9953"/>
</g>
<!-- Node9 -->
<g id="node4" class="node">
<title>Node9</title>
<g id="a_node4"><a xlink:href="classBlockRenderer.html#af959dba7928a2b271c1fb6771653269c" target="_top" xlink:title="BlockRenderer::render">
<polygon fill="#ffffff" stroke="#000000" points="275,-76.5 275,-95.5 389,-95.5 389,-76.5 275,-76.5"/>
<text text-anchor="middle" x="332" y="-83.5" font-family="Helvetica,sans-Serif" font-size="10.00" fill="#000000">BlockRenderer::render</text>
</a>
</g>
</g>
<!-- Node8&#45;&gt;Node9 -->
<g id="edge3" class="edge">
<title>Node8&#45;&gt;Node9</title>
<path fill="none" stroke="#191970" d="M236.7686,-73.9374C249.1364,-75.5039 262.2976,-77.171 274.764,-78.7501"/>
<polygon fill="#191970" stroke="#191970" points="236.9594,-70.4336 226.5988,-72.6492 236.0797,-77.3782 236.9594,-70.4336"/>
</g>
<!-- Node10 -->
<g id="node5" class="node">
<title>Node10</title>
<g id="a_node5"><a xlink:href="classBlockModel.html#a67f5cc853ab4ace6e8ade706bd2f400e" target="_top" xlink:title="BlockModel::reset">
<polygon fill="#ffffff" stroke="#000000" points="284.5,-38.5 284.5,-57.5 379.5,-57.5 379.5,-38.5 284.5,-38.5"/>
<text text-anchor="middle" x="332" y="-45.5" font-family="Helvetica,sans-Serif" font-size="10.00" fill="#000000">BlockModel::reset</text>
</a>
</g>
</g>
<!-- Node8&#45;&gt;Node10 -->
<g id="edge4" class="edge">
<title>Node8&#45;&gt;Node10</title>
<path fill="none" stroke="#191970" d="M236.6689,-60.0753C252.3212,-58.0926 269.2514,-55.9482 284.4401,-54.0243"/>
<polygon fill="#191970" stroke="#191970" points="236.0797,-56.6218 226.5988,-61.3508 236.9594,-63.5664 236.0797,-56.6218"/>
</g>
<!-- Node11 -->
<g id="node6" class="node">
<title>Node11</title>
<g id="a_node6"><a xlink:href="classBlockModel.html#a74ed46be84a8763f44f921b4a6343b0f" target="_top" xlink:title="BlockModel::BlockModel">
<polygon fill="#ffffff" stroke="#000000" points="425,-76.5 425,-95.5 550,-95.5 550,-76.5 425,-76.5"/>
<text text-anchor="middle" x="487.5" y="-83.5" font-family="Helvetica,sans-Serif" font-size="10.00" fill="#000000">BlockModel::BlockModel</text>
</a>
</g>
</g>
<!-- Node10&#45;&gt;Node11 -->
<g id="edge5" class="edge">
<title>Node10&#45;&gt;Node11</title>
<path fill="none" stroke="#191970" d="M380.9742,-59.968C402.7652,-65.2931 428.0672,-71.4762 448.543,-76.4799"/>
<polygon fill="#191970" stroke="#191970" points="381.7843,-56.563 371.2392,-57.589 380.1225,-63.3629 381.7843,-56.563"/>
</g>
<!-- Node12 -->
<g id="node7" class="node">
<title>Node12</title>
<g id="a_node7"><a xlink:href="classGameOverModel.html#a8bb33eb63f79b3f729c9479f109850fc" target="_top" xlink:title="GameOverModel::reset">
<polygon fill="#ffffff" stroke="#000000" points="428.5,-38.5 428.5,-57.5 546.5,-57.5 546.5,-38.5 428.5,-38.5"/>
<text text-anchor="middle" x="487.5" y="-45.5" font-family="Helvetica,sans-Serif" font-size="10.00" fill="#000000">GameOverModel::reset</text>
</a>
</g>
</g>
<!-- Node10&#45;&gt;Node12 -->
<g id="edge6" class="edge">
<title>Node10&#45;&gt;Node12</title>
<path fill="none" stroke="#191970" d="M389.5016,-48C402.2158,-48 415.7065,-48 428.48,-48"/>
<polygon fill="#191970" stroke="#191970" points="389.5001,-44.5001 379.5001,-48 389.5,-51.5001 389.5001,-44.5001"/>
</g>
<!-- Node14 -->
<g id="node9" class="node">
<title>Node14</title>
<g id="a_node9"><a xlink:href="classBlockModel.html#a8a06f9b921847069818e06a97d585266" target="_top" xlink:title="BlockModel::step">
<polygon fill="#ffffff" stroke="#000000" points="441.5,-.5 441.5,-19.5 533.5,-19.5 533.5,-.5 441.5,-.5"/>
<text text-anchor="middle" x="487.5" y="-7.5" font-family="Helvetica,sans-Serif" font-size="10.00" fill="#000000">BlockModel::step</text>
</a>
</g>
</g>
<!-- Node10&#45;&gt;Node14 -->
<g id="edge8" class="edge">
<title>Node10&#45;&gt;Node14</title>
<path fill="none" stroke="#191970" d="M380.9742,-36.032C402.7652,-30.7069 428.0672,-24.5238 448.543,-19.5201"/>
<polygon fill="#191970" stroke="#191970" points="380.1225,-32.6371 371.2392,-38.411 381.7843,-39.437 380.1225,-32.6371"/>
</g>
<!-- Node13 -->
<g id="node8" class="node">
<title>Node13</title>
<g id="a_node8"><a xlink:href="classGameOverInputParser.html#afaef411b5b3382381e4698c9bbac4e7b" target="_top" xlink:title="GameOverInputParser\l::parse">
<polygon fill="#ffffff" stroke="#000000" points="586,-33 586,-63 700,-63 700,-33 586,-33"/>
<text text-anchor="start" x="594" y="-51" font-family="Helvetica,sans-Serif" font-size="10.00" fill="#000000">GameOverInputParser</text>
<text text-anchor="middle" x="643" y="-40" font-family="Helvetica,sans-Serif" font-size="10.00" fill="#000000">::parse</text>
</a>
</g>
</g>
<!-- Node12&#45;&gt;Node13 -->
<g id="edge7" class="edge">
<title>Node12&#45;&gt;Node13</title>
<path fill="none" stroke="#191970" d="M556.8062,-48C566.5613,-48 576.4958,-48 585.9857,-48"/>
<polygon fill="#191970" stroke="#191970" points="556.7315,-44.5001 546.7315,-48 556.7314,-51.5001 556.7315,-44.5001"/>
</g>
</g>
</svg>
