<?xml version="1.0" encoding="UTF-8" standalone="no"?>
<!DOCTYPE svg PUBLIC "-//W3C//DTD SVG 1.1//EN"
 "http://www.w3.org/Graphics/SVG/1.1/DTD/svg11.dtd">
<!-- Generated by graphviz version 2.40.1 (20161225.0304)
 -->
<!-- Title: GameOverModel Pages: 1 -->
<svg width="127pt" height="226pt"
 viewBox="0.00 0.00 127.00 226.00" xmlns="http://www.w3.org/2000/svg" xmlns:xlink="http://www.w3.org/1999/xlink">
<g id="graph0" class="graph" transform="scale(1 1) rotate(0) translate(4 222)">
<title>GameOverModel</title>
<polygon fill="#ffffff" stroke="transparent" points="-4,4 -4,-222 123,-222 123,4 -4,4"/>
<!-- Node0 -->
<g id="node1" class="node">
<title>Node0</title>
<polygon fill="#bfbfbf" stroke="#000000" points="0,-.5 0,-101.5 119,-101.5 119,-.5 0,-.5"/>
<text text-anchor="middle" x="59.5" y="-89.5" font-family="Helvetica,sans-Serif" font-size="10.00" fill="#000000">GameOverModel</text>
<polyline fill="none" stroke="#000000" points="0,-82.5 119,-82.5 "/>
<text text-anchor="middle" x="59.5" y="-70.5" font-family="Helvetica,sans-Serif" font-size="10.00" fill="#000000"> </text>
<polyline fill="none" stroke="#000000" points="0,-63.5 119,-63.5 "/>
<text text-anchor="start" x="8" y="-51.5" font-family="Helvetica,sans-Serif" font-size="10.00" fill="#000000">+ GameOverModel()</text>
<text text-anchor="start" x="8" y="-40.5" font-family="Helvetica,sans-Serif" font-size="10.00" fill="#000000">+ step()</text>
<text text-anchor="start" x="8" y="-29.5" font-family="Helvetica,sans-Serif" font-size="10.00" fill="#000000">+ gameOver()</text>
<text text-anchor="start" x="8" y="-18.5" font-family="Helvetica,sans-Serif" font-size="10.00" fill="#000000">+ reset()</text>
<text text-anchor="start" x="8" y="-7.5" font-family="Helvetica,sans-Serif" font-size="10.00" fill="#000000">+ gameOverTransition()</text>
</g>
<!-- Node1 -->
<g id="node2" class="node">
<title>Node1</title>
<g id="a_node2"><a xlink:href="classModel.html" target="_top" xlink:title="{Model\n||+ step()\l+ alive()\l+ kill()\l}">
<polygon fill="#ffffff" stroke="#000000" points="33.5,-138.5 33.5,-217.5 85.5,-217.5 85.5,-138.5 33.5,-138.5"/>
<text text-anchor="middle" x="59.5" y="-205.5" font-family="Helvetica,sans-Serif" font-size="10.00" fill="#000000">Model</text>
<polyline fill="none" stroke="#000000" points="33.5,-198.5 85.5,-198.5 "/>
<text text-anchor="middle" x="59.5" y="-186.5" font-family="Helvetica,sans-Serif" font-size="10.00" fill="#000000"> </text>
<polyline fill="none" stroke="#000000" points="33.5,-179.5 85.5,-179.5 "/>
<text text-anchor="start" x="41.5" y="-167.5" font-family="Helvetica,sans-Serif" font-size="10.00" fill="#000000">+ step()</text>
<text text-anchor="start" x="41.5" y="-156.5" font-family="Helvetica,sans-Serif" font-size="10.00" fill="#000000">+ alive()</text>
<text text-anchor="start" x="41.5" y="-145.5" font-family="Helvetica,sans-Serif" font-size="10.00" fill="#000000">+ kill()</text>
</a>
</g>
</g>
<!-- Node1&#45;&gt;Node0 -->
<g id="edge1" class="edge">
<title>Node1&#45;&gt;Node0</title>
<path fill="none" stroke="#191970" d="M59.5,-127.9396C59.5,-119.3816 59.5,-110.4823 59.5,-101.9026"/>
<polygon fill="none" stroke="#191970" points="56.0001,-128.1648 59.5,-138.1649 63.0001,-128.1649 56.0001,-128.1648"/>
</g>
</g>
</svg>
