<?xml version="1.0" encoding="UTF-8" standalone="no"?>
<!DOCTYPE svg PUBLIC "-//W3C//DTD SVG 1.1//EN"
 "http://www.w3.org/Graphics/SVG/1.1/DTD/svg11.dtd">
<!-- Generated by graphviz version 2.40.1 (20161225.0304)
 -->
<!-- Title: GameOverModel::reset Pages: 1 -->
<svg width="546pt" height="104pt"
 viewBox="0.00 0.00 546.00 104.00" xmlns="http://www.w3.org/2000/svg" xmlns:xlink="http://www.w3.org/1999/xlink">
<g id="graph0" class="graph" transform="scale(1 1) rotate(0) translate(4 100)">
<title>GameOverModel::reset</title>
<polygon fill="#ffffff" stroke="transparent" points="-4,4 -4,-100 542,-100 542,4 -4,4"/>
<!-- Node13 -->
<g id="node1" class="node">
<title>Node13</title>
<polygon fill="#bfbfbf" stroke="#000000" points="0,-57.5 0,-76.5 118,-76.5 118,-57.5 0,-57.5"/>
<text text-anchor="middle" x="59" y="-64.5" font-family="Helvetica,sans-Serif" font-size="10.00" fill="#000000">GameOverModel::reset</text>
</g>
<!-- Node14 -->
<g id="node2" class="node">
<title>Node14</title>
<g id="a_node2"><a xlink:href="classTetrisModel.html#aedd30dbf21c6d24a3e861caf4b33e6f8" target="_top" xlink:title="TetrisModel::reset">
<polygon fill="#ffffff" stroke="#000000" points="154,-76.5 154,-95.5 249,-95.5 249,-76.5 154,-76.5"/>
<text text-anchor="middle" x="201.5" y="-83.5" font-family="Helvetica,sans-Serif" font-size="10.00" fill="#000000">TetrisModel::reset</text>
</a>
</g>
</g>
<!-- Node13&#45;&gt;Node14 -->
<g id="edge1" class="edge">
<title>Node13&#45;&gt;Node14</title>
<path fill="none" stroke="#191970" d="M118.1949,-74.8926C126.6757,-76.0234 135.3911,-77.1855 143.8417,-78.3122"/>
<polygon fill="#191970" stroke="#191970" points="143.6097,-81.8122 153.9846,-79.6646 144.5349,-74.8736 143.6097,-81.8122"/>
</g>
<!-- Node15 -->
<g id="node3" class="node">
<title>Node15</title>
<g id="a_node3"><a xlink:href="classBlockModel.html#a67f5cc853ab4ace6e8ade706bd2f400e" target="_top" xlink:title="BlockModel::reset">
<polygon fill="#ffffff" stroke="#000000" points="154,-38.5 154,-57.5 249,-57.5 249,-38.5 154,-38.5"/>
<text text-anchor="middle" x="201.5" y="-45.5" font-family="Helvetica,sans-Serif" font-size="10.00" fill="#000000">BlockModel::reset</text>
</a>
</g>
</g>
<!-- Node13&#45;&gt;Node15 -->
<g id="edge2" class="edge">
<title>Node13&#45;&gt;Node15</title>
<path fill="none" stroke="#191970" d="M118.1949,-59.1074C126.6757,-57.9766 135.3911,-56.8145 143.8417,-55.6878"/>
<polygon fill="#191970" stroke="#191970" points="144.5349,-59.1264 153.9846,-54.3354 143.6097,-52.1878 144.5349,-59.1264"/>
</g>
<!-- Node16 -->
<g id="node4" class="node">
<title>Node16</title>
<g id="a_node4"><a xlink:href="classBlockModel.html#af908d87b67d152ceb5a65696a02cea54" target="_top" xlink:title="BlockModel::currentBlock">
<polygon fill="#ffffff" stroke="#000000" points="285,-76.5 285,-95.5 413,-95.5 413,-76.5 285,-76.5"/>
<text text-anchor="middle" x="349" y="-83.5" font-family="Helvetica,sans-Serif" font-size="10.00" fill="#000000">BlockModel::currentBlock</text>
</a>
</g>
</g>
<!-- Node15&#45;&gt;Node16 -->
<g id="edge3" class="edge">
<title>Node15&#45;&gt;Node16</title>
<path fill="none" stroke="#191970" d="M238.7205,-57.589C258.0093,-62.5583 281.7584,-68.6767 302.271,-73.9613"/>
<polygon fill="#191970" stroke="#191970" points="301.4902,-77.3744 312.0472,-76.4799 303.2366,-70.5957 301.4902,-77.3744"/>
</g>
<!-- Node17 -->
<g id="node5" class="node">
<title>Node17</title>
<g id="a_node5"><a xlink:href="classGrid.html#a48a0cbb4dee8eb8e1c56f4d85d1f971b" target="_top" xlink:title="Grid::width">
<polygon fill="#ffffff" stroke="#000000" points="317,-38.5 317,-57.5 381,-57.5 381,-38.5 317,-38.5"/>
<text text-anchor="middle" x="349" y="-45.5" font-family="Helvetica,sans-Serif" font-size="10.00" fill="#000000">Grid::width</text>
</a>
</g>
</g>
<!-- Node15&#45;&gt;Node17 -->
<g id="edge4" class="edge">
<title>Node15&#45;&gt;Node17</title>
<path fill="none" stroke="#191970" d="M249.389,-48C267.8124,-48 288.7012,-48 306.5749,-48"/>
<polygon fill="#191970" stroke="#191970" points="306.7089,-51.5001 316.7089,-48 306.7088,-44.5001 306.7089,-51.5001"/>
</g>
<!-- Node18 -->
<g id="node6" class="node">
<title>Node18</title>
<g id="a_node6"><a xlink:href="classBlockModel.html#aa74c33064430c5f566d009c6bab1c848" target="_top" xlink:title="BlockModel::grid">
<polygon fill="#ffffff" stroke="#000000" points="304.5,-.5 304.5,-19.5 393.5,-19.5 393.5,-.5 304.5,-.5"/>
<text text-anchor="middle" x="349" y="-7.5" font-family="Helvetica,sans-Serif" font-size="10.00" fill="#000000">BlockModel::grid</text>
</a>
</g>
</g>
<!-- Node15&#45;&gt;Node18 -->
<g id="edge5" class="edge">
<title>Node15&#45;&gt;Node18</title>
<path fill="none" stroke="#191970" d="M238.7205,-38.411C258.0093,-33.4417 281.7584,-27.3233 302.271,-22.0387"/>
<polygon fill="#191970" stroke="#191970" points="303.2366,-25.4043 312.0472,-19.5201 301.4902,-18.6256 303.2366,-25.4043"/>
</g>
<!-- Node19 -->
<g id="node7" class="node">
<title>Node19</title>
<g id="a_node7"><a xlink:href="classTetrisModel.html#af5e86770c46ef2669e26babca6b08e8c" target="_top" xlink:title="TetrisModel::grid">
<polygon fill="#ffffff" stroke="#000000" points="449,-.5 449,-19.5 538,-19.5 538,-.5 449,-.5"/>
<text text-anchor="middle" x="493.5" y="-7.5" font-family="Helvetica,sans-Serif" font-size="10.00" fill="#000000">TetrisModel::grid</text>
</a>
</g>
</g>
<!-- Node18&#45;&gt;Node19 -->
<g id="edge6" class="edge">
<title>Node18&#45;&gt;Node19</title>
<path fill="none" stroke="#191970" d="M393.5338,-10C407.8176,-10 423.805,-10 438.7329,-10"/>
<polygon fill="#191970" stroke="#191970" points="438.8645,-13.5001 448.8645,-10 438.8644,-6.5001 438.8645,-13.5001"/>
</g>
</g>
</svg>
