<?xml version="1.0" encoding="UTF-8" standalone="no"?>
<!DOCTYPE svg PUBLIC "-//W3C//DTD SVG 1.1//EN"
 "http://www.w3.org/Graphics/SVG/1.1/DTD/svg11.dtd">
<!-- Generated by graphviz version 2.40.1 (20161225.0304)
 -->
<!-- Title: Pauseble::paused Pages: 1 -->
<svg width="231pt" height="66pt"
 viewBox="0.00 0.00 231.00 66.00" xmlns="http://www.w3.org/2000/svg" xmlns:xlink="http://www.w3.org/1999/xlink">
<g id="graph0" class="graph" transform="scale(1 1) rotate(0) translate(4 62)">
<title>Pauseble::paused</title>
<polygon fill="#ffffff" stroke="transparent" points="-4,4 -4,-62 227,-62 227,4 -4,4"/>
<!-- Node3 -->
<g id="node1" class="node">
<title>Node3</title>
<polygon fill="#bfbfbf" stroke="#000000" points="0,-19.5 0,-38.5 95,-38.5 95,-19.5 0,-19.5"/>
<text text-anchor="middle" x="47.5" y="-26.5" font-family="Helvetica,sans-Serif" font-size="10.00" fill="#000000">Pauseble::paused</text>
</g>
<!-- Node4 -->
<g id="node2" class="node">
<title>Node4</title>
<g id="a_node2"><a xlink:href="classBlockModel.html#a8a06f9b921847069818e06a97d585266" target="_top" xlink:title="BlockModel::step">
<polygon fill="#ffffff" stroke="#000000" points="131,-38.5 131,-57.5 223,-57.5 223,-38.5 131,-38.5"/>
<text text-anchor="middle" x="177" y="-45.5" font-family="Helvetica,sans-Serif" font-size="10.00" fill="#000000">BlockModel::step</text>
</a>
</g>
</g>
<!-- Node3&#45;&gt;Node4 -->
<g id="edge1" class="edge">
<title>Node3&#45;&gt;Node4</title>
<path fill="none" stroke="#191970" d="M105.5039,-37.5102C113.92,-38.745 122.4897,-40.0024 130.6361,-41.1976"/>
<polygon fill="#191970" stroke="#191970" points="105.7553,-34.0097 95.3531,-36.0209 104.7391,-40.9356 105.7553,-34.0097"/>
</g>
<!-- Node5 -->
<g id="node3" class="node">
<title>Node5</title>
<g id="a_node3"><a xlink:href="classTetrisModel.html#a3ca9bd1a26a36b367ba2021f754dace7" target="_top" xlink:title="TetrisModel::step">
<polygon fill="#ffffff" stroke="#000000" points="131,-.5 131,-19.5 223,-19.5 223,-.5 131,-.5"/>
<text text-anchor="middle" x="177" y="-7.5" font-family="Helvetica,sans-Serif" font-size="10.00" fill="#000000">TetrisModel::step</text>
</a>
</g>
</g>
<!-- Node3&#45;&gt;Node5 -->
<g id="edge2" class="edge">
<title>Node3&#45;&gt;Node5</title>
<path fill="none" stroke="#191970" d="M105.5039,-20.4898C113.92,-19.255 122.4897,-17.9976 130.6361,-16.8024"/>
<polygon fill="#191970" stroke="#191970" points="104.7391,-17.0644 95.3531,-21.9791 105.7553,-23.9903 104.7391,-17.0644"/>
</g>
</g>
</svg>
