<?xml version="1.0" encoding="UTF-8" standalone="no"?>
<!DOCTYPE svg PUBLIC "-//W3C//DTD SVG 1.1//EN"
 "http://www.w3.org/Graphics/SVG/1.1/DTD/svg11.dtd">
<!-- Generated by graphviz version 2.40.1 (20161225.0304)
 -->
<!-- Title: LevelRenderer::render Pages: 1 -->
<svg width="312pt" height="66pt"
 viewBox="0.00 0.00 312.00 66.00" xmlns="http://www.w3.org/2000/svg" xmlns:xlink="http://www.w3.org/1999/xlink">
<g id="graph0" class="graph" transform="scale(1 1) rotate(0) translate(4 62)">
<title>LevelRenderer::render</title>
<polygon fill="#ffffff" stroke="transparent" points="-4,4 -4,-62 308,-62 308,4 -4,4"/>
<!-- Node2 -->
<g id="node1" class="node">
<title>Node2</title>
<polygon fill="#bfbfbf" stroke="#000000" points="0,-19.5 0,-38.5 113,-38.5 113,-19.5 0,-19.5"/>
<text text-anchor="middle" x="56.5" y="-26.5" font-family="Helvetica,sans-Serif" font-size="10.00" fill="#000000">LevelRenderer::render</text>
</g>
<!-- Node3 -->
<g id="node2" class="node">
<title>Node3</title>
<g id="a_node2"><a xlink:href="classLevelModel.html#a0775359725eaa215ebd9237a8bf31014" target="_top" xlink:title="LevelModel::level">
<polygon fill="#ffffff" stroke="#000000" points="180.5,-38.5 180.5,-57.5 272.5,-57.5 272.5,-38.5 180.5,-38.5"/>
<text text-anchor="middle" x="226.5" y="-45.5" font-family="Helvetica,sans-Serif" font-size="10.00" fill="#000000">LevelModel::level</text>
</a>
</g>
</g>
<!-- Node2&#45;&gt;Node3 -->
<g id="edge1" class="edge">
<title>Node2&#45;&gt;Node3</title>
<path fill="none" stroke="#191970" d="M113.1075,-35.3267C131.5257,-37.3852 151.9532,-39.6683 170.3386,-41.7231"/>
<polygon fill="#191970" stroke="#191970" points="169.99,-45.2059 180.3169,-42.8384 170.7675,-38.2492 169.99,-45.2059"/>
</g>
<!-- Node4 -->
<g id="node3" class="node">
<title>Node4</title>
<g id="a_node3"><a xlink:href="classScreenNormalizer.html#a0a54874b29eb58cf1be8251ca2525c60" target="_top" xlink:title="ScreenNormalizer::deNormalize">
<polygon fill="#ffffff" stroke="#000000" points="149,-.5 149,-19.5 304,-19.5 304,-.5 149,-.5"/>
<text text-anchor="middle" x="226.5" y="-7.5" font-family="Helvetica,sans-Serif" font-size="10.00" fill="#000000">ScreenNormalizer::deNormalize</text>
</a>
</g>
</g>
<!-- Node2&#45;&gt;Node4 -->
<g id="edge2" class="edge">
<title>Node2&#45;&gt;Node4</title>
<path fill="none" stroke="#191970" d="M113.1075,-22.6733C121.3688,-21.75 130.0344,-20.7814 138.7386,-19.8086"/>
<polygon fill="#191970" stroke="#191970" points="139.4031,-23.2562 148.9525,-18.6671 138.6256,-16.2996 139.4031,-23.2562"/>
</g>
</g>
</svg>
