<?xml version="1.0" encoding="UTF-8" standalone="no"?>
<!DOCTYPE svg PUBLIC "-//W3C//DTD SVG 1.1//EN"
 "http://www.w3.org/Graphics/SVG/1.1/DTD/svg11.dtd">
<!-- Generated by graphviz version 2.40.1 (20161225.0304)
 -->
<!-- Title: GameOverInputParser Pages: 1 -->
<svg width="137pt" height="171pt"
 viewBox="0.00 0.00 137.00 171.00" xmlns="http://www.w3.org/2000/svg" xmlns:xlink="http://www.w3.org/1999/xlink">
<g id="graph0" class="graph" transform="scale(1 1) rotate(0) translate(4 167)">
<title>GameOverInputParser</title>
<polygon fill="#ffffff" stroke="transparent" points="-4,4 -4,-167 133,-167 133,4 -4,4"/>
<!-- Node0 -->
<g id="node1" class="node">
<title>Node0</title>
<polygon fill="#bfbfbf" stroke="#000000" points="0,-.5 0,-68.5 129,-68.5 129,-.5 0,-.5"/>
<text text-anchor="middle" x="64.5" y="-56.5" font-family="Helvetica,sans-Serif" font-size="10.00" fill="#000000">GameOverInputParser</text>
<polyline fill="none" stroke="#000000" points="0,-49.5 129,-49.5 "/>
<text text-anchor="middle" x="64.5" y="-37.5" font-family="Helvetica,sans-Serif" font-size="10.00" fill="#000000"> </text>
<polyline fill="none" stroke="#000000" points="0,-30.5 129,-30.5 "/>
<text text-anchor="start" x="8" y="-18.5" font-family="Helvetica,sans-Serif" font-size="10.00" fill="#000000">+ GameOverInputParser()</text>
<text text-anchor="start" x="8" y="-7.5" font-family="Helvetica,sans-Serif" font-size="10.00" fill="#000000">+ parse()</text>
</g>
<!-- Node1 -->
<g id="node2" class="node">
<title>Node1</title>
<g id="a_node2"><a xlink:href="classInputParser.html" target="_top" xlink:title="{InputParser\n||+ parse()\l}">
<polygon fill="#ffffff" stroke="#000000" points="31,-105.5 31,-162.5 98,-162.5 98,-105.5 31,-105.5"/>
<text text-anchor="middle" x="64.5" y="-150.5" font-family="Helvetica,sans-Serif" font-size="10.00" fill="#000000">InputParser</text>
<polyline fill="none" stroke="#000000" points="31,-143.5 98,-143.5 "/>
<text text-anchor="middle" x="64.5" y="-131.5" font-family="Helvetica,sans-Serif" font-size="10.00" fill="#000000"> </text>
<polyline fill="none" stroke="#000000" points="31,-124.5 98,-124.5 "/>
<text text-anchor="start" x="39" y="-112.5" font-family="Helvetica,sans-Serif" font-size="10.00" fill="#000000">+ parse()</text>
</a>
</g>
</g>
<!-- Node1&#45;&gt;Node0 -->
<g id="edge1" class="edge">
<title>Node1&#45;&gt;Node0</title>
<path fill="none" stroke="#191970" d="M64.5,-95.4268C64.5,-86.6025 64.5,-77.2834 64.5,-68.6596"/>
<polygon fill="none" stroke="#191970" points="61.0001,-95.4873 64.5,-105.4873 68.0001,-95.4873 61.0001,-95.4873"/>
</g>
</g>
</svg>
