<?xml version="1.0" encoding="UTF-8" standalone="no"?>
<!DOCTYPE svg PUBLIC "-//W3C//DTD SVG 1.1//EN"
 "http://www.w3.org/Graphics/SVG/1.1/DTD/svg11.dtd">
<!-- Generated by graphviz version 2.40.1 (20161225.0304)
 -->
<!-- Title: Grid::Grid Pages: 1 -->
<svg width="170pt" height="66pt"
 viewBox="0.00 0.00 170.00 66.00" xmlns="http://www.w3.org/2000/svg" xmlns:xlink="http://www.w3.org/1999/xlink">
<g id="graph0" class="graph" transform="scale(1 1) rotate(0) translate(4 62)">
<title>Grid::Grid</title>
<polygon fill="#ffffff" stroke="transparent" points="-4,4 -4,-62 166,-62 166,4 -4,4"/>
<!-- Node0 -->
<g id="node1" class="node">
<title>Node0</title>
<polygon fill="#bfbfbf" stroke="#000000" points="0,-19.5 0,-38.5 59,-38.5 59,-19.5 0,-19.5"/>
<text text-anchor="middle" x="29.5" y="-26.5" font-family="Helvetica,sans-Serif" font-size="10.00" fill="#000000">Grid::Grid</text>
</g>
<!-- Node1 -->
<g id="node2" class="node">
<title>Node1</title>
<g id="a_node2"><a xlink:href="classGrid.html#a48a0cbb4dee8eb8e1c56f4d85d1f971b" target="_top" xlink:title="Grid::width">
<polygon fill="#ffffff" stroke="#000000" points="96.5,-38.5 96.5,-57.5 160.5,-57.5 160.5,-38.5 96.5,-38.5"/>
<text text-anchor="middle" x="128.5" y="-45.5" font-family="Helvetica,sans-Serif" font-size="10.00" fill="#000000">Grid::width</text>
</a>
</g>
</g>
<!-- Node0&#45;&gt;Node1 -->
<g id="edge1" class="edge">
<title>Node0&#45;&gt;Node1</title>
<path fill="none" stroke="#191970" d="M59.2033,-34.7006C67.7279,-36.3367 77.1903,-38.1527 86.3138,-39.9037"/>
<polygon fill="#191970" stroke="#191970" points="85.9219,-43.3923 96.4024,-41.8399 87.2413,-36.5177 85.9219,-43.3923"/>
</g>
<!-- Node2 -->
<g id="node3" class="node">
<title>Node2</title>
<g id="a_node3"><a xlink:href="classGrid.html#a35b4576216863c321adb15e38ed2804b" target="_top" xlink:title="Grid::height">
<polygon fill="#ffffff" stroke="#000000" points="95,-.5 95,-19.5 162,-19.5 162,-.5 95,-.5"/>
<text text-anchor="middle" x="128.5" y="-7.5" font-family="Helvetica,sans-Serif" font-size="10.00" fill="#000000">Grid::height</text>
</a>
</g>
</g>
<!-- Node0&#45;&gt;Node2 -->
<g id="edge2" class="edge">
<title>Node0&#45;&gt;Node2</title>
<path fill="none" stroke="#191970" d="M59.2033,-23.2994C67.2268,-21.7595 76.0812,-20.0602 84.7018,-18.4057"/>
<polygon fill="#191970" stroke="#191970" points="85.4894,-21.8185 94.6505,-16.4964 84.17,-14.944 85.4894,-21.8185"/>
</g>
</g>
</svg>
