<?xml version="1.0" encoding="UTF-8" standalone="no"?>
<!DOCTYPE svg PUBLIC "-//W3C//DTD SVG 1.1//EN"
 "http://www.w3.org/Graphics/SVG/1.1/DTD/svg11.dtd">
<!-- Generated by graphviz version 2.40.1 (20161225.0304)
 -->
<!-- Title: GameOverRenderer::render Pages: 1 -->
<svg width="520pt" height="203pt"
 viewBox="0.00 0.00 520.00 202.50" xmlns="http://www.w3.org/2000/svg" xmlns:xlink="http://www.w3.org/1999/xlink">
<g id="graph0" class="graph" transform="scale(1 1) rotate(0) translate(4 198.5)">
<title>GameOverRenderer::render</title>
<polygon fill="#ffffff" stroke="transparent" points="-4,4 -4,-198.5 516,-198.5 516,4 -4,4"/>
<!-- Node3 -->
<g id="node1" class="node">
<title>Node3</title>
<polygon fill="#bfbfbf" stroke="#000000" points="0,-99 0,-118 137,-118 137,-99 0,-99"/>
<text text-anchor="middle" x="68.5" y="-106" font-family="Helvetica,sans-Serif" font-size="10.00" fill="#000000">GameOverRenderer::render</text>
</g>
<!-- Node4 -->
<g id="node2" class="node">
<title>Node4</title>
<g id="a_node2"><a xlink:href="classGameOverModel.html#ae35b062d76b100f5646a1a68f696f34a" target="_top" xlink:title="GameOverModel::gameOver">
<polygon fill="#ffffff" stroke="#000000" points="194.5,-175 194.5,-194 335.5,-194 335.5,-175 194.5,-175"/>
<text text-anchor="middle" x="265" y="-182" font-family="Helvetica,sans-Serif" font-size="10.00" fill="#000000">GameOverModel::gameOver</text>
</a>
</g>
</g>
<!-- Node3&#45;&gt;Node4 -->
<g id="edge1" class="edge">
<title>Node3&#45;&gt;Node4</title>
<path fill="none" stroke="#191970" d="M82.7328,-118.0513C102.265,-130.7317 138.8522,-152.9769 173,-165.5 180.3211,-168.1849 188.1166,-170.5296 195.9541,-172.5676"/>
<polygon fill="#191970" stroke="#191970" points="195.3266,-176.0171 205.8713,-174.9876 196.9861,-169.2167 195.3266,-176.0171"/>
</g>
<!-- Node6 -->
<g id="node4" class="node">
<title>Node6</title>
<g id="a_node4"><a xlink:href="classGameOverModel.html#a0465152699df5912a99c15f24c2f354d" target="_top" xlink:title="GameOverModel::gameOverTransition">
<polygon fill="#ffffff" stroke="#000000" points="173,-137 173,-156 357,-156 357,-137 173,-137"/>
<text text-anchor="middle" x="265" y="-144" font-family="Helvetica,sans-Serif" font-size="10.00" fill="#000000">GameOverModel::gameOverTransition</text>
</a>
</g>
</g>
<!-- Node3&#45;&gt;Node6 -->
<g id="edge3" class="edge">
<title>Node3&#45;&gt;Node6</title>
<path fill="none" stroke="#191970" d="M117.8316,-118.04C144.4607,-123.1896 177.5266,-129.584 205.5663,-135.0065"/>
<polygon fill="#191970" stroke="#191970" points="205.1654,-138.4937 215.6481,-136.9561 206.4946,-131.621 205.1654,-138.4937"/>
</g>
<!-- Node7 -->
<g id="node5" class="node">
<title>Node7</title>
<g id="a_node5"><a xlink:href="classScreenNormalizer.html#a0a54874b29eb58cf1be8251ca2525c60" target="_top" xlink:title="ScreenNormalizer::deNormalize">
<polygon fill="#ffffff" stroke="#000000" points="187.5,-99 187.5,-118 342.5,-118 342.5,-99 187.5,-99"/>
<text text-anchor="middle" x="265" y="-106" font-family="Helvetica,sans-Serif" font-size="10.00" fill="#000000">ScreenNormalizer::deNormalize</text>
</a>
</g>
</g>
<!-- Node3&#45;&gt;Node7 -->
<g id="edge4" class="edge">
<title>Node3&#45;&gt;Node7</title>
<path fill="none" stroke="#191970" d="M137.2262,-108.5C150.1024,-108.5 163.7244,-108.5 177.0884,-108.5"/>
<polygon fill="#191970" stroke="#191970" points="177.241,-112.0001 187.241,-108.5 177.241,-105.0001 177.241,-112.0001"/>
</g>
<!-- Node8 -->
<g id="node6" class="node">
<title>Node8</title>
<g id="a_node6"><a xlink:href="classScreenNormalizer.html#a880cf16e9dab0a4b41e338b9f76aa6b4" target="_top" xlink:title="ScreenNormalizer::normalize\lHeight">
<polygon fill="#ffffff" stroke="#000000" points="193.5,-49.5 193.5,-79.5 336.5,-79.5 336.5,-49.5 193.5,-49.5"/>
<text text-anchor="start" x="201.5" y="-67.5" font-family="Helvetica,sans-Serif" font-size="10.00" fill="#000000">ScreenNormalizer::normalize</text>
<text text-anchor="middle" x="265" y="-56.5" font-family="Helvetica,sans-Serif" font-size="10.00" fill="#000000">Height</text>
</a>
</g>
</g>
<!-- Node3&#45;&gt;Node8 -->
<g id="edge5" class="edge">
<title>Node3&#45;&gt;Node8</title>
<path fill="none" stroke="#191970" d="M111.1376,-98.9527C133.5575,-93.9324 161.7381,-87.6223 187.8356,-81.7785"/>
<polygon fill="#191970" stroke="#191970" points="188.7259,-85.1659 197.7195,-79.5654 187.1963,-78.3351 188.7259,-85.1659"/>
</g>
<!-- Node9 -->
<g id="node7" class="node">
<title>Node9</title>
<g id="a_node7"><a xlink:href="classScreenNormalizer.html#a1b5825ddbf41f0bff4dfb06e988430b7" target="_top" xlink:title="ScreenNormalizer::normalize\lWidth">
<polygon fill="#ffffff" stroke="#000000" points="193.5,-.5 193.5,-30.5 336.5,-30.5 336.5,-.5 193.5,-.5"/>
<text text-anchor="start" x="201.5" y="-18.5" font-family="Helvetica,sans-Serif" font-size="10.00" fill="#000000">ScreenNormalizer::normalize</text>
<text text-anchor="middle" x="265" y="-7.5" font-family="Helvetica,sans-Serif" font-size="10.00" fill="#000000">Width</text>
</a>
</g>
</g>
<!-- Node3&#45;&gt;Node9 -->
<g id="edge6" class="edge">
<title>Node3&#45;&gt;Node9</title>
<path fill="none" stroke="#191970" d="M80.6348,-98.7758C99.3972,-84.1791 137.0473,-56.6032 173,-40.5 178.3223,-38.1161 183.9223,-35.9149 189.6228,-33.8912"/>
<polygon fill="#191970" stroke="#191970" points="190.9119,-37.1505 199.2798,-30.6521 188.6859,-30.5139 190.9119,-37.1505"/>
</g>
<!-- Node5 -->
<g id="node3" class="node">
<title>Node5</title>
<g id="a_node3"><a xlink:href="classBlockModel.html#aef547dbab9302cd2263f847386044bc5" target="_top" xlink:title="BlockModel::gameOver">
<polygon fill="#ffffff" stroke="#000000" points="393,-175 393,-194 512,-194 512,-175 393,-175"/>
<text text-anchor="middle" x="452.5" y="-182" font-family="Helvetica,sans-Serif" font-size="10.00" fill="#000000">BlockModel::gameOver</text>
</a>
</g>
</g>
<!-- Node4&#45;&gt;Node5 -->
<g id="edge2" class="edge">
<title>Node4&#45;&gt;Node5</title>
<path fill="none" stroke="#191970" d="M335.6185,-184.5C351.117,-184.5 367.5151,-184.5 382.9703,-184.5"/>
<polygon fill="#191970" stroke="#191970" points="382.9716,-188.0001 392.9716,-184.5 382.9715,-181.0001 382.9716,-188.0001"/>
</g>
</g>
</svg>
