<?xml version="1.0" encoding="UTF-8" standalone="no"?>
<!DOCTYPE svg PUBLIC "-//W3C//DTD SVG 1.1//EN"
 "http://www.w3.org/Graphics/SVG/1.1/DTD/svg11.dtd">
<!-- Generated by graphviz version 2.40.1 (20161225.0304)
 -->
<!-- Title: TetrisAudio::TetrisAudio Pages: 1 -->
<svg width="273pt" height="66pt"
 viewBox="0.00 0.00 273.00 66.00" xmlns="http://www.w3.org/2000/svg" xmlns:xlink="http://www.w3.org/1999/xlink">
<g id="graph0" class="graph" transform="scale(1 1) rotate(0) translate(4 62)">
<title>TetrisAudio::TetrisAudio</title>
<polygon fill="#ffffff" stroke="transparent" points="-4,4 -4,-62 269,-62 269,4 -4,4"/>
<!-- Node0 -->
<g id="node1" class="node">
<title>Node0</title>
<polygon fill="#bfbfbf" stroke="#000000" points="0,-19.5 0,-38.5 122,-38.5 122,-19.5 0,-19.5"/>
<text text-anchor="middle" x="61" y="-26.5" font-family="Helvetica,sans-Serif" font-size="10.00" fill="#000000">TetrisAudio::TetrisAudio</text>
</g>
<!-- Node1 -->
<g id="node2" class="node">
<title>Node1</title>
<g id="a_node2"><a xlink:href="classTetrisModel.html#aeb902ac5d978cc9249e98640b014054a" target="_top" xlink:title="TetrisModel::score">
<polygon fill="#ffffff" stroke="#000000" points="162.5,-38.5 162.5,-57.5 260.5,-57.5 260.5,-38.5 162.5,-38.5"/>
<text text-anchor="middle" x="211.5" y="-45.5" font-family="Helvetica,sans-Serif" font-size="10.00" fill="#000000">TetrisModel::score</text>
</a>
</g>
</g>
<!-- Node0&#45;&gt;Node1 -->
<g id="edge1" class="edge">
<title>Node0&#45;&gt;Node1</title>
<path fill="none" stroke="#191970" d="M122.2141,-36.728C132.1196,-37.9786 142.3616,-39.2716 152.2201,-40.5162"/>
<polygon fill="#191970" stroke="#191970" points="151.9652,-44.0117 162.3248,-41.7918 152.842,-37.0668 151.9652,-44.0117"/>
</g>
<!-- Node2 -->
<g id="node3" class="node">
<title>Node2</title>
<g id="a_node3"><a xlink:href="classAudioFactory.html#aa0a8e27e7b5bb5e5d4d629d47f9068b6" target="_top" xlink:title="AudioFactory::sound">
<polygon fill="#ffffff" stroke="#000000" points="158,-.5 158,-19.5 265,-19.5 265,-.5 158,-.5"/>
<text text-anchor="middle" x="211.5" y="-7.5" font-family="Helvetica,sans-Serif" font-size="10.00" fill="#000000">AudioFactory::sound</text>
</a>
</g>
</g>
<!-- Node0&#45;&gt;Node2 -->
<g id="edge2" class="edge">
<title>Node0&#45;&gt;Node2</title>
<path fill="none" stroke="#191970" d="M122.2141,-21.272C130.5454,-20.2202 139.1147,-19.1383 147.4937,-18.0805"/>
<polygon fill="#191970" stroke="#191970" points="148.1083,-21.5308 157.5911,-16.8058 147.2315,-14.5859 148.1083,-21.5308"/>
</g>
</g>
</svg>
