<?xml version="1.0" encoding="UTF-8" standalone="no"?>
<!DOCTYPE svg PUBLIC "-//W3C//DTD SVG 1.1//EN"
 "http://www.w3.org/Graphics/SVG/1.1/DTD/svg11.dtd">
<!-- Generated by graphviz version 2.40.1 (20161225.0304)
 -->
<!-- Title: ScreenNormalizer::deNormalize Pages: 1 -->
<svg width="336pt" height="104pt"
 viewBox="0.00 0.00 336.00 104.00" xmlns="http://www.w3.org/2000/svg" xmlns:xlink="http://www.w3.org/1999/xlink">
<g id="graph0" class="graph" transform="scale(1 1) rotate(0) translate(4 100)">
<title>ScreenNormalizer::deNormalize</title>
<polygon fill="#ffffff" stroke="transparent" points="-4,4 -4,-100 332,-100 332,4 -4,4"/>
<!-- Node3 -->
<g id="node1" class="node">
<title>Node3</title>
<polygon fill="#bfbfbf" stroke="#000000" points="0,-38.5 0,-57.5 155,-57.5 155,-38.5 0,-38.5"/>
<text text-anchor="middle" x="77.5" y="-45.5" font-family="Helvetica,sans-Serif" font-size="10.00" fill="#000000">ScreenNormalizer::deNormalize</text>
</g>
<!-- Node4 -->
<g id="node2" class="node">
<title>Node4</title>
<g id="a_node2"><a xlink:href="classBlockRenderer.html#af959dba7928a2b271c1fb6771653269c" target="_top" xlink:title="BlockRenderer::render">
<polygon fill="#ffffff" stroke="#000000" points="202.5,-76.5 202.5,-95.5 316.5,-95.5 316.5,-76.5 202.5,-76.5"/>
<text text-anchor="middle" x="259.5" y="-83.5" font-family="Helvetica,sans-Serif" font-size="10.00" fill="#000000">BlockRenderer::render</text>
</a>
</g>
</g>
<!-- Node3&#45;&gt;Node4 -->
<g id="edge1" class="edge">
<title>Node3&#45;&gt;Node4</title>
<path fill="none" stroke="#191970" d="M133.4458,-59.681C159.2558,-65.0699 189.5069,-71.3861 213.904,-76.4799"/>
<polygon fill="#191970" stroke="#191970" points="133.9306,-56.2068 123.4263,-57.589 132.4998,-63.059 133.9306,-56.2068"/>
</g>
<!-- Node5 -->
<g id="node3" class="node">
<title>Node5</title>
<g id="a_node3"><a xlink:href="classGameOverRenderer.html#a4da5ed1252530ed382d3a5e2cda26c38" target="_top" xlink:title="GameOverRenderer::render">
<polygon fill="#ffffff" stroke="#000000" points="191,-38.5 191,-57.5 328,-57.5 328,-38.5 191,-38.5"/>
<text text-anchor="middle" x="259.5" y="-45.5" font-family="Helvetica,sans-Serif" font-size="10.00" fill="#000000">GameOverRenderer::render</text>
</a>
</g>
</g>
<!-- Node3&#45;&gt;Node5 -->
<g id="edge2" class="edge">
<title>Node3&#45;&gt;Node5</title>
<path fill="none" stroke="#191970" d="M165.2939,-48C173.9128,-48 182.5701,-48 190.956,-48"/>
<polygon fill="#191970" stroke="#191970" points="165.2123,-44.5001 155.2123,-48 165.2123,-51.5001 165.2123,-44.5001"/>
</g>
<!-- Node6 -->
<g id="node4" class="node">
<title>Node6</title>
<g id="a_node4"><a xlink:href="classLevelRenderer.html#af34399598a6aca3acbaebc681bb688ca" target="_top" xlink:title="LevelRenderer::render">
<polygon fill="#ffffff" stroke="#000000" points="203,-.5 203,-19.5 316,-19.5 316,-.5 203,-.5"/>
<text text-anchor="middle" x="259.5" y="-7.5" font-family="Helvetica,sans-Serif" font-size="10.00" fill="#000000">LevelRenderer::render</text>
</a>
</g>
</g>
<!-- Node3&#45;&gt;Node6 -->
<g id="edge3" class="edge">
<title>Node3&#45;&gt;Node6</title>
<path fill="none" stroke="#191970" d="M133.4458,-36.319C159.2558,-30.9301 189.5069,-24.6139 213.904,-19.5201"/>
<polygon fill="#191970" stroke="#191970" points="132.4998,-32.941 123.4263,-38.411 133.9306,-39.7932 132.4998,-32.941"/>
</g>
</g>
</svg>
