<?xml version="1.0" encoding="UTF-8" standalone="no"?>
<!DOCTYPE svg PUBLIC "-//W3C//DTD SVG 1.1//EN"
 "http://www.w3.org/Graphics/SVG/1.1/DTD/svg11.dtd">
<!-- Generated by graphviz version 2.40.1 (20161225.0304)
 -->
<!-- Title: Grid::height Pages: 1 -->
<svg width="386pt" height="218pt"
 viewBox="0.00 0.00 386.00 218.00" xmlns="http://www.w3.org/2000/svg" xmlns:xlink="http://www.w3.org/1999/xlink">
<g id="graph0" class="graph" transform="scale(1 1) rotate(0) translate(4 214)">
<title>Grid::height</title>
<polygon fill="#ffffff" stroke="transparent" points="-4,4 -4,-214 382,-214 382,4 -4,4"/>
<!-- Node16 -->
<g id="node1" class="node">
<title>Node16</title>
<polygon fill="#bfbfbf" stroke="#000000" points="0,-95.5 0,-114.5 67,-114.5 67,-95.5 0,-95.5"/>
<text text-anchor="middle" x="33.5" y="-102.5" font-family="Helvetica,sans-Serif" font-size="10.00" fill="#000000">Grid::height</text>
</g>
<!-- Node17 -->
<g id="node2" class="node">
<title>Node17</title>
<g id="a_node2"><a xlink:href="classGrid.html#ae824c60ddeaa43654af30d61f1c06240" target="_top" xlink:title="Grid::Grid">
<polygon fill="#ffffff" stroke="#000000" points="136,-190.5 136,-209.5 195,-209.5 195,-190.5 136,-190.5"/>
<text text-anchor="middle" x="165.5" y="-197.5" font-family="Helvetica,sans-Serif" font-size="10.00" fill="#000000">Grid::Grid</text>
</a>
</g>
</g>
<!-- Node16&#45;&gt;Node17 -->
<g id="edge1" class="edge">
<title>Node16&#45;&gt;Node17</title>
<path fill="none" stroke="#191970" d="M46.9218,-122.5016C59.8243,-138.3127 80.6202,-161.2941 103,-176 113.0051,-182.5745 125.0768,-187.7437 135.9324,-191.5741"/>
<polygon fill="#191970" stroke="#191970" points="49.5675,-120.2052 40.606,-114.5535 44.0871,-124.5601 49.5675,-120.2052"/>
</g>
<!-- Node18 -->
<g id="node3" class="node">
<title>Node18</title>
<g id="a_node3"><a xlink:href="classBlockRenderer.html#af959dba7928a2b271c1fb6771653269c" target="_top" xlink:title="BlockRenderer::render">
<polygon fill="#ffffff" stroke="#000000" points="264,-142.5 264,-161.5 378,-161.5 378,-142.5 264,-142.5"/>
<text text-anchor="middle" x="321" y="-149.5" font-family="Helvetica,sans-Serif" font-size="10.00" fill="#000000">BlockRenderer::render</text>
</a>
</g>
</g>
<!-- Node16&#45;&gt;Node18 -->
<g id="edge2" class="edge">
<title>Node16&#45;&gt;Node18</title>
<path fill="none" stroke="#191970" d="M54.9169,-120.0792C68.1212,-128.4932 85.7742,-138.2177 103,-143 156.106,-157.7437 219.2665,-158.6352 263.8973,-156.658"/>
<polygon fill="#191970" stroke="#191970" points="56.8171,-117.1397 46.5461,-114.5403 52.9543,-122.9775 56.8171,-117.1397"/>
</g>
<!-- Node19 -->
<g id="node4" class="node">
<title>Node19</title>
<g id="a_node4"><a xlink:href="classTetrisRenderer.html#a37f71d197e635739aab54abb576f1876" target="_top" xlink:title="TetrisRenderer::render">
<polygon fill="#ffffff" stroke="#000000" points="264,-95.5 264,-114.5 378,-114.5 378,-95.5 264,-95.5"/>
<text text-anchor="middle" x="321" y="-102.5" font-family="Helvetica,sans-Serif" font-size="10.00" fill="#000000">TetrisRenderer::render</text>
</a>
</g>
</g>
<!-- Node16&#45;&gt;Node19 -->
<g id="edge3" class="edge">
<title>Node16&#45;&gt;Node19</title>
<path fill="none" stroke="#191970" d="M77.1899,-105C127.1149,-105 208.9914,-105 263.9227,-105"/>
<polygon fill="#191970" stroke="#191970" points="77.0426,-101.5001 67.0426,-105 77.0425,-108.5001 77.0426,-101.5001"/>
</g>
<!-- Node20 -->
<g id="node5" class="node">
<title>Node20</title>
<g id="a_node5"><a xlink:href="classGridRenderer.html#a0febcbbb5a20019d0afdca8c98f1a485" target="_top" xlink:title="GridRenderer::renderGrid">
<polygon fill="#ffffff" stroke="#000000" points="103,-114.5 103,-133.5 228,-133.5 228,-114.5 103,-114.5"/>
<text text-anchor="middle" x="165.5" y="-121.5" font-family="Helvetica,sans-Serif" font-size="10.00" fill="#000000">GridRenderer::renderGrid</text>
</a>
</g>
</g>
<!-- Node16&#45;&gt;Node20 -->
<g id="edge4" class="edge">
<title>Node16&#45;&gt;Node20</title>
<path fill="none" stroke="#191970" d="M77.2489,-111.2972C85.4774,-112.4816 94.2287,-113.7412 102.9013,-114.9896"/>
<polygon fill="#191970" stroke="#191970" points="77.5474,-107.8042 67.1507,-109.8437 76.55,-114.7328 77.5474,-107.8042"/>
</g>
<!-- Node21 -->
<g id="node6" class="node">
<title>Node21</title>
<g id="a_node6"><a xlink:href="classTetrisModel.html#a3ca9bd1a26a36b367ba2021f754dace7" target="_top" xlink:title="TetrisModel::step">
<polygon fill="#ffffff" stroke="#000000" points="119.5,-38.5 119.5,-57.5 211.5,-57.5 211.5,-38.5 119.5,-38.5"/>
<text text-anchor="middle" x="165.5" y="-45.5" font-family="Helvetica,sans-Serif" font-size="10.00" fill="#000000">TetrisModel::step</text>
</a>
</g>
</g>
<!-- Node16&#45;&gt;Node21 -->
<g id="edge7" class="edge">
<title>Node16&#45;&gt;Node21</title>
<path fill="none" stroke="#191970" d="M61.5593,-91.0755C74.1323,-84.9925 89.206,-77.913 103,-72 114.7514,-66.9626 127.9433,-61.8231 139.1683,-57.5992"/>
<polygon fill="#191970" stroke="#191970" points="59.9481,-87.9672 52.4949,-95.4972 63.0171,-94.2586 59.9481,-87.9672"/>
</g>
<!-- Node22 -->
<g id="node7" class="node">
<title>Node22</title>
<g id="a_node7"><a xlink:href="classTetrisModel.html#ada645766baccde5cbe9635474a55c7ce" target="_top" xlink:title="TetrisModel::stamp">
<polygon fill="#ffffff" stroke="#000000" points="115,-.5 115,-19.5 216,-19.5 216,-.5 115,-.5"/>
<text text-anchor="middle" x="165.5" y="-7.5" font-family="Helvetica,sans-Serif" font-size="10.00" fill="#000000">TetrisModel::stamp</text>
</a>
</g>
</g>
<!-- Node16&#45;&gt;Node22 -->
<g id="edge8" class="edge">
<title>Node16&#45;&gt;Node22</title>
<path fill="none" stroke="#191970" d="M45.8032,-86.6673C58.2885,-69.4158 79.1371,-44.0468 103,-29 109.0437,-25.1891 115.8979,-22.1033 122.7976,-19.6163"/>
<polygon fill="#191970" stroke="#191970" points="42.6283,-85.0997 39.7614,-95.2993 48.3631,-89.1138 42.6283,-85.0997"/>
</g>
<!-- Node20&#45;&gt;Node18 -->
<g id="edge5" class="edge">
<title>Node20&#45;&gt;Node18</title>
<path fill="none" stroke="#191970" d="M228.5037,-135.3447C241.6653,-137.7146 255.412,-140.19 268.1599,-142.4854"/>
<polygon fill="#191970" stroke="#191970" points="229.0414,-131.8853 218.5794,-133.5577 227.8008,-138.7745 229.0414,-131.8853"/>
</g>
<!-- Node20&#45;&gt;Node19 -->
<g id="edge6" class="edge">
<title>Node20&#45;&gt;Node19</title>
<path fill="none" stroke="#191970" d="M238.3443,-115.0994C246.9541,-114.0474 255.6445,-112.9856 263.9908,-111.9657"/>
<polygon fill="#191970" stroke="#191970" points="237.8012,-111.6396 228.2996,-116.3267 238.6503,-118.588 237.8012,-111.6396"/>
</g>
<!-- Node23 -->
<g id="node8" class="node">
<title>Node23</title>
<g id="a_node8"><a xlink:href="classBlockModel.html#a8a06f9b921847069818e06a97d585266" target="_top" xlink:title="BlockModel::step">
<polygon fill="#ffffff" stroke="#000000" points="275,-.5 275,-19.5 367,-19.5 367,-.5 275,-.5"/>
<text text-anchor="middle" x="321" y="-7.5" font-family="Helvetica,sans-Serif" font-size="10.00" fill="#000000">BlockModel::step</text>
</a>
</g>
</g>
<!-- Node22&#45;&gt;Node23 -->
<g id="edge9" class="edge">
<title>Node22&#45;&gt;Node23</title>
<path fill="none" stroke="#191970" d="M226.7889,-10C242.8342,-10 259.8597,-10 274.9596,-10"/>
<polygon fill="#191970" stroke="#191970" points="226.4165,-6.5001 216.4165,-10 226.4165,-13.5001 226.4165,-6.5001"/>
</g>
</g>
</svg>
