<?xml version="1.0" encoding="UTF-8" standalone="no"?>
<!DOCTYPE svg PUBLIC "-//W3C//DTD SVG 1.1//EN"
 "http://www.w3.org/Graphics/SVG/1.1/DTD/svg11.dtd">
<!-- Generated by graphviz version 2.40.1 (20161225.0304)
 -->
<!-- Title: LerpSeries::reset Pages: 1 -->
<svg width="249pt" height="78pt"
 viewBox="0.00 0.00 249.00 77.50" xmlns="http://www.w3.org/2000/svg" xmlns:xlink="http://www.w3.org/1999/xlink">
<g id="graph0" class="graph" transform="scale(1 1) rotate(0) translate(4 73.5)">
<title>LerpSeries::reset</title>
<polygon fill="#ffffff" stroke="transparent" points="-4,4 -4,-73.5 245,-73.5 245,4 -4,4"/>
<!-- Node13 -->
<g id="node1" class="node">
<title>Node13</title>
<polygon fill="#bfbfbf" stroke="#000000" points="0,-22.5 0,-41.5 91,-41.5 91,-22.5 0,-22.5"/>
<text text-anchor="middle" x="45.5" y="-29.5" font-family="Helvetica,sans-Serif" font-size="10.00" fill="#000000">LerpSeries::reset</text>
</g>
<!-- Node14 -->
<g id="node2" class="node">
<title>Node14</title>
<g id="a_node2"><a xlink:href="classPauseMenuRenderer.html#ac01a84b10b42bce394419ebe02175065" target="_top" xlink:title="PauseMenuRenderer::\lrender">
<polygon fill="#ffffff" stroke="#000000" points="127,-39 127,-69 241,-69 241,-39 127,-39"/>
<text text-anchor="start" x="135" y="-57" font-family="Helvetica,sans-Serif" font-size="10.00" fill="#000000">PauseMenuRenderer::</text>
<text text-anchor="middle" x="184" y="-46" font-family="Helvetica,sans-Serif" font-size="10.00" fill="#000000">render</text>
</a>
</g>
</g>
<!-- Node13&#45;&gt;Node14 -->
<g id="edge1" class="edge">
<title>Node13&#45;&gt;Node14</title>
<path fill="none" stroke="#191970" d="M101.2781,-40.8601C109.6521,-42.1902 118.2994,-43.5638 126.7045,-44.8989"/>
<polygon fill="#191970" stroke="#191970" points="101.6592,-37.3768 91.2339,-39.2646 100.561,-44.2901 101.6592,-37.3768"/>
</g>
<!-- Node15 -->
<g id="node3" class="node">
<title>Node15</title>
<g id="a_node3"><a xlink:href="classLerpSeries.html#ae686197a636a9f9636224fb69cc38f6e" target="_top" xlink:title="LerpSeries::get">
<polygon fill="#ffffff" stroke="#000000" points="142.5,-.5 142.5,-19.5 225.5,-19.5 225.5,-.5 142.5,-.5"/>
<text text-anchor="middle" x="184" y="-7.5" font-family="Helvetica,sans-Serif" font-size="10.00" fill="#000000">LerpSeries::get</text>
</a>
</g>
</g>
<!-- Node13&#45;&gt;Node15 -->
<g id="edge2" class="edge">
<title>Node13&#45;&gt;Node15</title>
<path fill="none" stroke="#191970" d="M101.4315,-23.1156C114.9948,-20.9611 129.2664,-18.6942 142.0578,-16.6623"/>
<polygon fill="#191970" stroke="#191970" points="100.561,-19.7099 91.2339,-24.7354 101.6592,-26.6232 100.561,-19.7099"/>
</g>
</g>
</svg>
