<?xml version="1.0" encoding="UTF-8" standalone="no"?>
<!DOCTYPE svg PUBLIC "-//W3C//DTD SVG 1.1//EN"
 "http://www.w3.org/Graphics/SVG/1.1/DTD/svg11.dtd">
<!-- Generated by graphviz version 2.40.1 (20161225.0304)
 -->
<!-- Title: BlockModel::currentBlock Pages: 1 -->
<svg width="597pt" height="104pt"
 viewBox="0.00 0.00 597.00 104.00" xmlns="http://www.w3.org/2000/svg" xmlns:xlink="http://www.w3.org/1999/xlink">
<g id="graph0" class="graph" transform="scale(1 1) rotate(0) translate(4 100)">
<title>BlockModel::currentBlock</title>
<polygon fill="#ffffff" stroke="transparent" points="-4,4 -4,-100 593,-100 593,4 -4,4"/>
<!-- Node8 -->
<g id="node1" class="node">
<title>Node8</title>
<polygon fill="#bfbfbf" stroke="#000000" points="0,-38.5 0,-57.5 128,-57.5 128,-38.5 0,-38.5"/>
<text text-anchor="middle" x="64" y="-45.5" font-family="Helvetica,sans-Serif" font-size="10.00" fill="#000000">BlockModel::currentBlock</text>
</g>
<!-- Node9 -->
<g id="node2" class="node">
<title>Node9</title>
<g id="a_node2"><a xlink:href="classBlockRenderer.html#af959dba7928a2b271c1fb6771653269c" target="_top" xlink:title="BlockRenderer::render">
<polygon fill="#ffffff" stroke="#000000" points="164,-76.5 164,-95.5 278,-95.5 278,-76.5 164,-76.5"/>
<text text-anchor="middle" x="221" y="-83.5" font-family="Helvetica,sans-Serif" font-size="10.00" fill="#000000">BlockRenderer::render</text>
</a>
</g>
</g>
<!-- Node8&#45;&gt;Node9 -->
<g id="edge1" class="edge">
<title>Node8&#45;&gt;Node9</title>
<path fill="none" stroke="#191970" d="M113.4467,-59.968C135.4478,-65.2931 160.9938,-71.4762 181.6672,-76.4799"/>
<polygon fill="#191970" stroke="#191970" points="114.1605,-56.5398 103.6177,-57.589 112.5137,-63.3433 114.1605,-56.5398"/>
</g>
<!-- Node10 -->
<g id="node3" class="node">
<title>Node10</title>
<g id="a_node3"><a xlink:href="classBlockModel.html#a67f5cc853ab4ace6e8ade706bd2f400e" target="_top" xlink:title="BlockModel::reset">
<polygon fill="#ffffff" stroke="#000000" points="173.5,-38.5 173.5,-57.5 268.5,-57.5 268.5,-38.5 173.5,-38.5"/>
<text text-anchor="middle" x="221" y="-45.5" font-family="Helvetica,sans-Serif" font-size="10.00" fill="#000000">BlockModel::reset</text>
</a>
</g>
</g>
<!-- Node8&#45;&gt;Node10 -->
<g id="edge2" class="edge">
<title>Node8&#45;&gt;Node10</title>
<path fill="none" stroke="#191970" d="M138.6404,-48C150.4596,-48 162.3958,-48 173.3738,-48"/>
<polygon fill="#191970" stroke="#191970" points="138.3109,-44.5001 128.3109,-48 138.3109,-51.5001 138.3109,-44.5001"/>
</g>
<!-- Node14 -->
<g id="node7" class="node">
<title>Node14</title>
<g id="a_node7"><a xlink:href="classBlockModel.html#a8a06f9b921847069818e06a97d585266" target="_top" xlink:title="BlockModel::step">
<polygon fill="#ffffff" stroke="#000000" points="330.5,-.5 330.5,-19.5 422.5,-19.5 422.5,-.5 330.5,-.5"/>
<text text-anchor="middle" x="376.5" y="-7.5" font-family="Helvetica,sans-Serif" font-size="10.00" fill="#000000">BlockModel::step</text>
</a>
</g>
</g>
<!-- Node8&#45;&gt;Node14 -->
<g id="edge7" class="edge">
<title>Node8&#45;&gt;Node14</title>
<path fill="none" stroke="#191970" d="M119.0187,-36.5383C133.5951,-33.7784 149.3525,-31.0413 164,-29 221.0452,-21.0502 287.1937,-15.7479 330.3389,-12.81"/>
<polygon fill="#191970" stroke="#191970" points="118.2995,-33.1124 109.1441,-38.4444 119.6263,-39.9855 118.2995,-33.1124"/>
</g>
<!-- Node11 -->
<g id="node4" class="node">
<title>Node11</title>
<g id="a_node4"><a xlink:href="classBlockModel.html#a74ed46be84a8763f44f921b4a6343b0f" target="_top" xlink:title="BlockModel::BlockModel">
<polygon fill="#ffffff" stroke="#000000" points="314,-76.5 314,-95.5 439,-95.5 439,-76.5 314,-76.5"/>
<text text-anchor="middle" x="376.5" y="-83.5" font-family="Helvetica,sans-Serif" font-size="10.00" fill="#000000">BlockModel::BlockModel</text>
</a>
</g>
</g>
<!-- Node10&#45;&gt;Node11 -->
<g id="edge3" class="edge">
<title>Node10&#45;&gt;Node11</title>
<path fill="none" stroke="#191970" d="M269.9742,-59.968C291.7652,-65.2931 317.0672,-71.4762 337.543,-76.4799"/>
<polygon fill="#191970" stroke="#191970" points="270.7843,-56.563 260.2392,-57.589 269.1225,-63.3629 270.7843,-56.563"/>
</g>
<!-- Node12 -->
<g id="node5" class="node">
<title>Node12</title>
<g id="a_node5"><a xlink:href="classGameOverModel.html#a8bb33eb63f79b3f729c9479f109850fc" target="_top" xlink:title="GameOverModel::reset">
<polygon fill="#ffffff" stroke="#000000" points="317.5,-38.5 317.5,-57.5 435.5,-57.5 435.5,-38.5 317.5,-38.5"/>
<text text-anchor="middle" x="376.5" y="-45.5" font-family="Helvetica,sans-Serif" font-size="10.00" fill="#000000">GameOverModel::reset</text>
</a>
</g>
</g>
<!-- Node10&#45;&gt;Node12 -->
<g id="edge4" class="edge">
<title>Node10&#45;&gt;Node12</title>
<path fill="none" stroke="#191970" d="M278.5016,-48C291.2158,-48 304.7065,-48 317.48,-48"/>
<polygon fill="#191970" stroke="#191970" points="278.5001,-44.5001 268.5001,-48 278.5,-51.5001 278.5001,-44.5001"/>
</g>
<!-- Node10&#45;&gt;Node14 -->
<g id="edge6" class="edge">
<title>Node10&#45;&gt;Node14</title>
<path fill="none" stroke="#191970" d="M269.9742,-36.032C291.7652,-30.7069 317.0672,-24.5238 337.543,-19.5201"/>
<polygon fill="#191970" stroke="#191970" points="269.1225,-32.6371 260.2392,-38.411 270.7843,-39.437 269.1225,-32.6371"/>
</g>
<!-- Node13 -->
<g id="node6" class="node">
<title>Node13</title>
<g id="a_node6"><a xlink:href="classGameOverInputParser.html#afaef411b5b3382381e4698c9bbac4e7b" target="_top" xlink:title="GameOverInputParser\l::parse">
<polygon fill="#ffffff" stroke="#000000" points="475,-33 475,-63 589,-63 589,-33 475,-33"/>
<text text-anchor="start" x="483" y="-51" font-family="Helvetica,sans-Serif" font-size="10.00" fill="#000000">GameOverInputParser</text>
<text text-anchor="middle" x="532" y="-40" font-family="Helvetica,sans-Serif" font-size="10.00" fill="#000000">::parse</text>
</a>
</g>
</g>
<!-- Node12&#45;&gt;Node13 -->
<g id="edge5" class="edge">
<title>Node12&#45;&gt;Node13</title>
<path fill="none" stroke="#191970" d="M445.8062,-48C455.5613,-48 465.4958,-48 474.9857,-48"/>
<polygon fill="#191970" stroke="#191970" points="445.7315,-44.5001 435.7315,-48 445.7314,-51.5001 445.7315,-44.5001"/>
</g>
</g>
</svg>
