<?xml version="1.0" encoding="UTF-8" standalone="no"?>
<!DOCTYPE svg PUBLIC "-//W3C//DTD SVG 1.1//EN"
 "http://www.w3.org/Graphics/SVG/1.1/DTD/svg11.dtd">
<!-- Generated by graphviz version 2.40.1 (20161225.0304)
 -->
<!-- Title: TetrisModel::score Pages: 1 -->
<svg width="264pt" height="66pt"
 viewBox="0.00 0.00 264.00 66.00" xmlns="http://www.w3.org/2000/svg" xmlns:xlink="http://www.w3.org/1999/xlink">
<g id="graph0" class="graph" transform="scale(1 1) rotate(0) translate(4 62)">
<title>TetrisModel::score</title>
<polygon fill="#ffffff" stroke="transparent" points="-4,4 -4,-62 260,-62 260,4 -4,4"/>
<!-- Node25 -->
<g id="node1" class="node">
<title>Node25</title>
<polygon fill="#bfbfbf" stroke="#000000" points="0,-19.5 0,-38.5 98,-38.5 98,-19.5 0,-19.5"/>
<text text-anchor="middle" x="49" y="-26.5" font-family="Helvetica,sans-Serif" font-size="10.00" fill="#000000">TetrisModel::score</text>
</g>
<!-- Node26 -->
<g id="node2" class="node">
<title>Node26</title>
<g id="a_node2"><a xlink:href="classTetrisAudio.html#a077aefd3f7ec1371b005f3ed493477ff" target="_top" xlink:title="TetrisAudio::TetrisAudio">
<polygon fill="#ffffff" stroke="#000000" points="134,-38.5 134,-57.5 256,-57.5 256,-38.5 134,-38.5"/>
<text text-anchor="middle" x="195" y="-45.5" font-family="Helvetica,sans-Serif" font-size="10.00" fill="#000000">TetrisAudio::TetrisAudio</text>
</a>
</g>
</g>
<!-- Node25&#45;&gt;Node26 -->
<g id="edge1" class="edge">
<title>Node25&#45;&gt;Node26</title>
<path fill="none" stroke="#191970" d="M108.1998,-36.7041C116.6749,-37.807 125.4076,-38.9434 133.9181,-40.051"/>
<polygon fill="#191970" stroke="#191970" points="108.3901,-33.1994 98.022,-35.3796 107.4867,-40.1409 108.3901,-33.1994"/>
</g>
<!-- Node27 -->
<g id="node3" class="node">
<title>Node27</title>
<g id="a_node3"><a xlink:href="classTetrisAudio.html#a399bcea9f7bb23618b93590a0cfe559c" target="_top" xlink:title="TetrisAudio::update">
<polygon fill="#ffffff" stroke="#000000" points="144.5,-.5 144.5,-19.5 245.5,-19.5 245.5,-.5 144.5,-.5"/>
<text text-anchor="middle" x="195" y="-7.5" font-family="Helvetica,sans-Serif" font-size="10.00" fill="#000000">TetrisAudio::update</text>
</a>
</g>
</g>
<!-- Node25&#45;&gt;Node27 -->
<g id="edge2" class="edge">
<title>Node25&#45;&gt;Node27</title>
<path fill="none" stroke="#191970" d="M107.9928,-21.3229C120.0472,-19.7541 132.631,-18.1165 144.362,-16.5899"/>
<polygon fill="#191970" stroke="#191970" points="107.4867,-17.8591 98.022,-22.6204 108.3901,-24.8006 107.4867,-17.8591"/>
</g>
</g>
</svg>
