<?xml version="1.0" encoding="UTF-8" standalone="no"?>
<!DOCTYPE svg PUBLIC "-//W3C//DTD SVG 1.1//EN"
 "http://www.w3.org/Graphics/SVG/1.1/DTD/svg11.dtd">
<!-- Generated by graphviz version 2.40.1 (20161225.0304)
 -->
<!-- Title: GameAudio Pages: 1 -->
<svg width="413pt" height="171pt"
 viewBox="0.00 0.00 413.00 171.00" xmlns="http://www.w3.org/2000/svg" xmlns:xlink="http://www.w3.org/1999/xlink">
<g id="graph0" class="graph" transform="scale(1 1) rotate(0) translate(4 167)">
<title>GameAudio</title>
<polygon fill="#ffffff" stroke="transparent" points="-4,4 -4,-167 409,-167 409,4 -4,4"/>
<!-- Node0 -->
<g id="node1" class="node">
<title>Node0</title>
<polygon fill="#bfbfbf" stroke="#000000" points="161.5,-105.5 161.5,-162.5 229.5,-162.5 229.5,-105.5 161.5,-105.5"/>
<text text-anchor="middle" x="195.5" y="-150.5" font-family="Helvetica,sans-Serif" font-size="10.00" fill="#000000">GameAudio</text>
<polyline fill="none" stroke="#000000" points="161.5,-143.5 229.5,-143.5 "/>
<text text-anchor="middle" x="195.5" y="-131.5" font-family="Helvetica,sans-Serif" font-size="10.00" fill="#000000"> </text>
<polyline fill="none" stroke="#000000" points="161.5,-124.5 229.5,-124.5 "/>
<text text-anchor="start" x="169.5" y="-112.5" font-family="Helvetica,sans-Serif" font-size="10.00" fill="#000000">+ update()</text>
</g>
<!-- Node1 -->
<g id="node2" class="node">
<title>Node1</title>
<g id="a_node2"><a xlink:href="classBlockAudio.html" target="_top" xlink:title="{BlockAudio\n||+ BlockAudio()\l+ update()\l}">
<polygon fill="#ffffff" stroke="#000000" points="0,-.5 0,-68.5 81,-68.5 81,-.5 0,-.5"/>
<text text-anchor="middle" x="40.5" y="-56.5" font-family="Helvetica,sans-Serif" font-size="10.00" fill="#000000">BlockAudio</text>
<polyline fill="none" stroke="#000000" points="0,-49.5 81,-49.5 "/>
<text text-anchor="middle" x="40.5" y="-37.5" font-family="Helvetica,sans-Serif" font-size="10.00" fill="#000000"> </text>
<polyline fill="none" stroke="#000000" points="0,-30.5 81,-30.5 "/>
<text text-anchor="start" x="8" y="-18.5" font-family="Helvetica,sans-Serif" font-size="10.00" fill="#000000">+ BlockAudio()</text>
<text text-anchor="start" x="8" y="-7.5" font-family="Helvetica,sans-Serif" font-size="10.00" fill="#000000">+ update()</text>
</a>
</g>
</g>
<!-- Node0&#45;&gt;Node1 -->
<g id="edge1" class="edge">
<title>Node0&#45;&gt;Node1</title>
<path fill="none" stroke="#191970" d="M152.3992,-107.9836C133.2977,-96.2832 110.6371,-82.1686 90.5,-69 87.4107,-66.9797 84.2315,-64.867 81.0448,-62.7249"/>
<polygon fill="none" stroke="#191970" points="150.824,-111.1226 161.1826,-113.3475 154.4724,-105.1485 150.824,-111.1226"/>
</g>
<!-- Node2 -->
<g id="node3" class="node">
<title>Node2</title>
<g id="a_node3"><a xlink:href="classLevelAudio.html" target="_top" xlink:title="{LevelAudio\n||+ LevelAudio()\l+ update()\l}">
<polygon fill="#ffffff" stroke="#000000" points="99.5,-.5 99.5,-68.5 179.5,-68.5 179.5,-.5 99.5,-.5"/>
<text text-anchor="middle" x="139.5" y="-56.5" font-family="Helvetica,sans-Serif" font-size="10.00" fill="#000000">LevelAudio</text>
<polyline fill="none" stroke="#000000" points="99.5,-49.5 179.5,-49.5 "/>
<text text-anchor="middle" x="139.5" y="-37.5" font-family="Helvetica,sans-Serif" font-size="10.00" fill="#000000"> </text>
<polyline fill="none" stroke="#000000" points="99.5,-30.5 179.5,-30.5 "/>
<text text-anchor="start" x="107.5" y="-18.5" font-family="Helvetica,sans-Serif" font-size="10.00" fill="#000000">+ LevelAudio()</text>
<text text-anchor="start" x="107.5" y="-7.5" font-family="Helvetica,sans-Serif" font-size="10.00" fill="#000000">+ update()</text>
</a>
</g>
</g>
<!-- Node0&#45;&gt;Node2 -->
<g id="edge2" class="edge">
<title>Node0&#45;&gt;Node2</title>
<path fill="none" stroke="#191970" d="M174.4366,-96.5749C169.2808,-87.4141 163.7901,-77.6583 158.7255,-68.6596"/>
<polygon fill="none" stroke="#191970" points="171.4978,-98.4894 179.4526,-105.4873 177.598,-95.056 171.4978,-98.4894"/>
</g>
<!-- Node3 -->
<g id="node4" class="node">
<title>Node3</title>
<g id="a_node4"><a xlink:href="classPauseMenuAudio.html" target="_top" xlink:title="{PauseMenuAudio\n||+ PauseMenuAudio()\l+ update()\l}">
<polygon fill="#ffffff" stroke="#000000" points="197.5,-.5 197.5,-68.5 305.5,-68.5 305.5,-.5 197.5,-.5"/>
<text text-anchor="middle" x="251.5" y="-56.5" font-family="Helvetica,sans-Serif" font-size="10.00" fill="#000000">PauseMenuAudio</text>
<polyline fill="none" stroke="#000000" points="197.5,-49.5 305.5,-49.5 "/>
<text text-anchor="middle" x="251.5" y="-37.5" font-family="Helvetica,sans-Serif" font-size="10.00" fill="#000000"> </text>
<polyline fill="none" stroke="#000000" points="197.5,-30.5 305.5,-30.5 "/>
<text text-anchor="start" x="205.5" y="-18.5" font-family="Helvetica,sans-Serif" font-size="10.00" fill="#000000">+ PauseMenuAudio()</text>
<text text-anchor="start" x="205.5" y="-7.5" font-family="Helvetica,sans-Serif" font-size="10.00" fill="#000000">+ update()</text>
</a>
</g>
</g>
<!-- Node0&#45;&gt;Node3 -->
<g id="edge3" class="edge">
<title>Node0&#45;&gt;Node3</title>
<path fill="none" stroke="#191970" d="M216.5634,-96.5749C221.7192,-87.4141 227.2099,-77.6583 232.2745,-68.6596"/>
<polygon fill="none" stroke="#191970" points="213.402,-95.056 211.5474,-105.4873 219.5022,-98.4894 213.402,-95.056"/>
</g>
<!-- Node4 -->
<g id="node5" class="node">
<title>Node4</title>
<g id="a_node5"><a xlink:href="classTetrisAudio.html" target="_top" xlink:title="{TetrisAudio\n||+ TetrisAudio()\l+ update()\l}">
<polygon fill="#ffffff" stroke="#000000" points="324,-.5 324,-68.5 405,-68.5 405,-.5 324,-.5"/>
<text text-anchor="middle" x="364.5" y="-56.5" font-family="Helvetica,sans-Serif" font-size="10.00" fill="#000000">TetrisAudio</text>
<polyline fill="none" stroke="#000000" points="324,-49.5 405,-49.5 "/>
<text text-anchor="middle" x="364.5" y="-37.5" font-family="Helvetica,sans-Serif" font-size="10.00" fill="#000000"> </text>
<polyline fill="none" stroke="#000000" points="324,-30.5 405,-30.5 "/>
<text text-anchor="start" x="332" y="-18.5" font-family="Helvetica,sans-Serif" font-size="10.00" fill="#000000">+ TetrisAudio()</text>
<text text-anchor="start" x="332" y="-7.5" font-family="Helvetica,sans-Serif" font-size="10.00" fill="#000000">+ update()</text>
</a>
</g>
</g>
<!-- Node0&#45;&gt;Node4 -->
<g id="edge4" class="edge">
<title>Node0&#45;&gt;Node4</title>
<path fill="none" stroke="#191970" d="M238.7396,-111.7747C261.5919,-99.6816 289.9234,-84.1344 314.5,-69 317.5533,-67.1198 320.6775,-65.1304 323.8,-63.0941"/>
<polygon fill="none" stroke="#191970" points="236.851,-108.8134 229.6301,-116.5664 240.1098,-115.0086 236.851,-108.8134"/>
</g>
</g>
</svg>
