<?xml version="1.0" encoding="UTF-8" standalone="no"?>
<!DOCTYPE svg PUBLIC "-//W3C//DTD SVG 1.1//EN"
 "http://www.w3.org/Graphics/SVG/1.1/DTD/svg11.dtd">
<!-- Generated by graphviz version 2.40.1 (20161225.0304)
 -->
<!-- Title: Grid::width Pages: 1 -->
<svg width="544pt" height="256pt"
 viewBox="0.00 0.00 544.00 256.00" xmlns="http://www.w3.org/2000/svg" xmlns:xlink="http://www.w3.org/1999/xlink">
<g id="graph0" class="graph" transform="scale(1 1) rotate(0) translate(4 252)">
<title>Grid::width</title>
<polygon fill="#ffffff" stroke="transparent" points="-4,4 -4,-252 540,-252 540,4 -4,4"/>
<!-- Node31 -->
<g id="node1" class="node">
<title>Node31</title>
<polygon fill="#bfbfbf" stroke="#000000" points="0,-114.5 0,-133.5 64,-133.5 64,-114.5 0,-114.5"/>
<text text-anchor="middle" x="32" y="-121.5" font-family="Helvetica,sans-Serif" font-size="10.00" fill="#000000">Grid::width</text>
</g>
<!-- Node32 -->
<g id="node2" class="node">
<title>Node32</title>
<g id="a_node2"><a xlink:href="classGrid.html#ae824c60ddeaa43654af30d61f1c06240" target="_top" xlink:title="Grid::Grid">
<polygon fill="#ffffff" stroke="#000000" points="133,-228.5 133,-247.5 192,-247.5 192,-228.5 133,-228.5"/>
<text text-anchor="middle" x="162.5" y="-235.5" font-family="Helvetica,sans-Serif" font-size="10.00" fill="#000000">Grid::Grid</text>
</a>
</g>
</g>
<!-- Node31&#45;&gt;Node32 -->
<g id="edge1" class="edge">
<title>Node31&#45;&gt;Node32</title>
<path fill="none" stroke="#191970" d="M41.7026,-142.3522C53.1805,-162.4664 74.0482,-194.4675 100,-214 109.6582,-221.2692 121.7841,-226.5931 132.7786,-230.3526"/>
<polygon fill="#191970" stroke="#191970" points="44.736,-140.605 36.8411,-133.5396 38.6068,-143.9862 44.736,-140.605"/>
</g>
<!-- Node33 -->
<g id="node3" class="node">
<title>Node33</title>
<g id="a_node3"><a xlink:href="classBlockRenderer.html#af959dba7928a2b271c1fb6771653269c" target="_top" xlink:title="BlockRenderer::render">
<polygon fill="#ffffff" stroke="#000000" points="266.5,-171.5 266.5,-190.5 380.5,-190.5 380.5,-171.5 266.5,-171.5"/>
<text text-anchor="middle" x="323.5" y="-178.5" font-family="Helvetica,sans-Serif" font-size="10.00" fill="#000000">BlockRenderer::render</text>
</a>
</g>
</g>
<!-- Node31&#45;&gt;Node33 -->
<g id="edge2" class="edge">
<title>Node31&#45;&gt;Node33</title>
<path fill="none" stroke="#191970" d="M46.3872,-141.4206C58.9164,-155.1178 78.4205,-173.1519 100,-181 156.7037,-201.6222 226.9841,-197.1916 273.4262,-190.5347"/>
<polygon fill="#191970" stroke="#191970" points="48.7494,-138.805 39.5311,-133.5825 43.4805,-143.4137 48.7494,-138.805"/>
</g>
<!-- Node34 -->
<g id="node4" class="node">
<title>Node34</title>
<g id="a_node4"><a xlink:href="classTetrisRenderer.html#a37f71d197e635739aab54abb576f1876" target="_top" xlink:title="TetrisRenderer::render">
<polygon fill="#ffffff" stroke="#000000" points="266.5,-114.5 266.5,-133.5 380.5,-133.5 380.5,-114.5 266.5,-114.5"/>
<text text-anchor="middle" x="323.5" y="-121.5" font-family="Helvetica,sans-Serif" font-size="10.00" fill="#000000">TetrisRenderer::render</text>
</a>
</g>
</g>
<!-- Node31&#45;&gt;Node34 -->
<g id="edge3" class="edge">
<title>Node31&#45;&gt;Node34</title>
<path fill="none" stroke="#191970" d="M74.2905,-124C124.9295,-124 209.9641,-124 266.4013,-124"/>
<polygon fill="#191970" stroke="#191970" points="74.0295,-120.5001 64.0294,-124 74.0294,-127.5001 74.0295,-120.5001"/>
</g>
<!-- Node35 -->
<g id="node5" class="node">
<title>Node35</title>
<g id="a_node5"><a xlink:href="classBlockModel.html#a67f5cc853ab4ace6e8ade706bd2f400e" target="_top" xlink:title="BlockModel::reset">
<polygon fill="#ffffff" stroke="#000000" points="115,-76.5 115,-95.5 210,-95.5 210,-76.5 115,-76.5"/>
<text text-anchor="middle" x="162.5" y="-83.5" font-family="Helvetica,sans-Serif" font-size="10.00" fill="#000000">BlockModel::reset</text>
</a>
</g>
</g>
<!-- Node31&#45;&gt;Node35 -->
<g id="edge4" class="edge">
<title>Node31&#45;&gt;Node35</title>
<path fill="none" stroke="#191970" d="M73.9647,-111.7804C92.0188,-106.5233 112.8102,-100.469 129.7062,-95.5491"/>
<polygon fill="#191970" stroke="#191970" points="72.8811,-108.4505 64.2584,-114.6067 74.8382,-115.1713 72.8811,-108.4505"/>
</g>
<!-- Node40 -->
<g id="node10" class="node">
<title>Node40</title>
<g id="a_node10"><a xlink:href="classGridRenderer.html#a0febcbbb5a20019d0afdca8c98f1a485" target="_top" xlink:title="GridRenderer::renderGrid">
<polygon fill="#ffffff" stroke="#000000" points="100,-152.5 100,-171.5 225,-171.5 225,-152.5 100,-152.5"/>
<text text-anchor="middle" x="162.5" y="-159.5" font-family="Helvetica,sans-Serif" font-size="10.00" fill="#000000">GridRenderer::renderGrid</text>
</a>
</g>
</g>
<!-- Node31&#45;&gt;Node40 -->
<g id="edge9" class="edge">
<title>Node31&#45;&gt;Node40</title>
<path fill="none" stroke="#191970" d="M73.9647,-136.2196C92.0188,-141.4767 112.8102,-147.531 129.7062,-152.4509"/>
<polygon fill="#191970" stroke="#191970" points="74.8382,-132.8287 64.2584,-133.3933 72.8811,-139.5495 74.8382,-132.8287"/>
</g>
<!-- Node41 -->
<g id="node11" class="node">
<title>Node41</title>
<g id="a_node11"><a xlink:href="classTetrisModel.html#a3ca9bd1a26a36b367ba2021f754dace7" target="_top" xlink:title="TetrisModel::step">
<polygon fill="#ffffff" stroke="#000000" points="116.5,-38.5 116.5,-57.5 208.5,-57.5 208.5,-38.5 116.5,-38.5"/>
<text text-anchor="middle" x="162.5" y="-45.5" font-family="Helvetica,sans-Serif" font-size="10.00" fill="#000000">TetrisModel::step</text>
</a>
</g>
</g>
<!-- Node31&#45;&gt;Node41 -->
<g id="edge12" class="edge">
<title>Node31&#45;&gt;Node41</title>
<path fill="none" stroke="#191970" d="M48.4325,-106.9067C61.3923,-94.3006 80.4819,-77.5711 100,-67 106.9806,-63.2193 114.8167,-60.0855 122.5185,-57.5276"/>
<polygon fill="#191970" stroke="#191970" points="45.8038,-104.5856 41.2064,-114.131 50.7529,-109.536 45.8038,-104.5856"/>
</g>
<!-- Node42 -->
<g id="node12" class="node">
<title>Node42</title>
<g id="a_node12"><a xlink:href="classTetrisModel.html#ada645766baccde5cbe9635474a55c7ce" target="_top" xlink:title="TetrisModel::stamp">
<polygon fill="#ffffff" stroke="#000000" points="112,-.5 112,-19.5 213,-19.5 213,-.5 112,-.5"/>
<text text-anchor="middle" x="162.5" y="-7.5" font-family="Helvetica,sans-Serif" font-size="10.00" fill="#000000">TetrisModel::stamp</text>
</a>
</g>
</g>
<!-- Node31&#45;&gt;Node42 -->
<g id="edge13" class="edge">
<title>Node31&#45;&gt;Node42</title>
<path fill="none" stroke="#191970" d="M40.7005,-105.2127C51.5968,-83.7098 72.2573,-48.9038 100,-29 105.4367,-25.0995 111.6872,-21.9876 118.0875,-19.5081"/>
<polygon fill="#191970" stroke="#191970" points="37.499,-103.7928 36.2688,-114.316 43.7929,-106.8568 37.499,-103.7928"/>
</g>
<!-- Node36 -->
<g id="node6" class="node">
<title>Node36</title>
<g id="a_node6"><a xlink:href="classBlockModel.html#a74ed46be84a8763f44f921b4a6343b0f" target="_top" xlink:title="BlockModel::BlockModel">
<polygon fill="#ffffff" stroke="#000000" points="261,-76.5 261,-95.5 386,-95.5 386,-76.5 261,-76.5"/>
<text text-anchor="middle" x="323.5" y="-83.5" font-family="Helvetica,sans-Serif" font-size="10.00" fill="#000000">BlockModel::BlockModel</text>
</a>
</g>
</g>
<!-- Node35&#45;&gt;Node36 -->
<g id="edge5" class="edge">
<title>Node35&#45;&gt;Node36</title>
<path fill="none" stroke="#191970" d="M220.6416,-86C233.7151,-86 247.6431,-86 260.8904,-86"/>
<polygon fill="#191970" stroke="#191970" points="220.3694,-82.5001 210.3694,-86 220.3694,-89.5001 220.3694,-82.5001"/>
</g>
<!-- Node37 -->
<g id="node7" class="node">
<title>Node37</title>
<g id="a_node7"><a xlink:href="classGameOverModel.html#a8bb33eb63f79b3f729c9479f109850fc" target="_top" xlink:title="GameOverModel::reset">
<polygon fill="#ffffff" stroke="#000000" points="264.5,-38.5 264.5,-57.5 382.5,-57.5 382.5,-38.5 264.5,-38.5"/>
<text text-anchor="middle" x="323.5" y="-45.5" font-family="Helvetica,sans-Serif" font-size="10.00" fill="#000000">GameOverModel::reset</text>
</a>
</g>
</g>
<!-- Node35&#45;&gt;Node37 -->
<g id="edge6" class="edge">
<title>Node35&#45;&gt;Node37</title>
<path fill="none" stroke="#191970" d="M212.9018,-74.1039C235.532,-68.7626 261.8695,-62.5463 283.165,-57.5201"/>
<polygon fill="#191970" stroke="#191970" points="212.0557,-70.7074 203.1271,-76.411 213.6637,-77.5202 212.0557,-70.7074"/>
</g>
<!-- Node39 -->
<g id="node9" class="node">
<title>Node39</title>
<g id="a_node9"><a xlink:href="classBlockModel.html#a8a06f9b921847069818e06a97d585266" target="_top" xlink:title="BlockModel::step">
<polygon fill="#ffffff" stroke="#000000" points="277.5,-.5 277.5,-19.5 369.5,-19.5 369.5,-.5 277.5,-.5"/>
<text text-anchor="middle" x="323.5" y="-7.5" font-family="Helvetica,sans-Serif" font-size="10.00" fill="#000000">BlockModel::step</text>
</a>
</g>
</g>
<!-- Node35&#45;&gt;Node39 -->
<g id="edge8" class="edge">
<title>Node35&#45;&gt;Node39</title>
<path fill="none" stroke="#191970" d="M214.2665,-72.6354C218.0027,-70.9593 221.6239,-69.0875 225,-67 244.7875,-54.7653 241.2125,-41.2347 261,-29 267.1735,-25.1829 274.1665,-22.0869 281.1834,-19.5899"/>
<polygon fill="#191970" stroke="#191970" points="212.8049,-69.4503 204.8166,-76.4101 215.4015,-75.9509 212.8049,-69.4503"/>
</g>
<!-- Node38 -->
<g id="node8" class="node">
<title>Node38</title>
<g id="a_node8"><a xlink:href="classGameOverInputParser.html#afaef411b5b3382381e4698c9bbac4e7b" target="_top" xlink:title="GameOverInputParser\l::parse">
<polygon fill="#ffffff" stroke="#000000" points="422,-33 422,-63 536,-63 536,-33 422,-33"/>
<text text-anchor="start" x="430" y="-51" font-family="Helvetica,sans-Serif" font-size="10.00" fill="#000000">GameOverInputParser</text>
<text text-anchor="middle" x="479" y="-40" font-family="Helvetica,sans-Serif" font-size="10.00" fill="#000000">::parse</text>
</a>
</g>
</g>
<!-- Node37&#45;&gt;Node38 -->
<g id="edge7" class="edge">
<title>Node37&#45;&gt;Node38</title>
<path fill="none" stroke="#191970" d="M392.8062,-48C402.5613,-48 412.4958,-48 421.9857,-48"/>
<polygon fill="#191970" stroke="#191970" points="392.7315,-44.5001 382.7315,-48 392.7314,-51.5001 392.7315,-44.5001"/>
</g>
<!-- Node40&#45;&gt;Node33 -->
<g id="edge10" class="edge">
<title>Node40&#45;&gt;Node33</title>
<path fill="none" stroke="#191970" d="M235.1889,-170.5782C245.6809,-171.8164 256.3516,-173.0757 266.479,-174.2708"/>
<polygon fill="#191970" stroke="#191970" points="235.5491,-167.0965 225.2078,-169.4003 234.7287,-174.0483 235.5491,-167.0965"/>
</g>
<!-- Node40&#45;&gt;Node34 -->
<g id="edge11" class="edge">
<title>Node40&#45;&gt;Node34</title>
<path fill="none" stroke="#191970" d="M212.9018,-150.1039C235.532,-144.7626 261.8695,-138.5463 283.165,-133.5201"/>
<polygon fill="#191970" stroke="#191970" points="212.0557,-146.7074 203.1271,-152.411 213.6637,-153.5202 212.0557,-146.7074"/>
</g>
<!-- Node42&#45;&gt;Node39 -->
<g id="edge14" class="edge">
<title>Node42&#45;&gt;Node39</title>
<path fill="none" stroke="#191970" d="M223.7179,-10C241.4809,-10 260.5747,-10 277.256,-10"/>
<polygon fill="#191970" stroke="#191970" points="223.4414,-6.5001 213.4414,-10 223.4414,-13.5001 223.4414,-6.5001"/>
</g>
</g>
</svg>
