<?xml version="1.0" encoding="UTF-8" standalone="no"?>
<!DOCTYPE svg PUBLIC "-//W3C//DTD SVG 1.1//EN"
 "http://www.w3.org/Graphics/SVG/1.1/DTD/svg11.dtd">
<!-- Generated by graphviz version 2.40.1 (20161225.0304)
 -->
<!-- Title: ShadowBrush::drawRectangle Pages: 1 -->
<svg width="468pt" height="66pt"
 viewBox="0.00 0.00 468.00 66.00" xmlns="http://www.w3.org/2000/svg" xmlns:xlink="http://www.w3.org/1999/xlink">
<g id="graph0" class="graph" transform="scale(1 1) rotate(0) translate(4 62)">
<title>ShadowBrush::drawRectangle</title>
<polygon fill="#ffffff" stroke="transparent" points="-4,4 -4,-62 464,-62 464,4 -4,4"/>
<!-- Node3 -->
<g id="node1" class="node">
<title>Node3</title>
<polygon fill="#bfbfbf" stroke="#000000" points="0,-19.5 0,-38.5 149,-38.5 149,-19.5 0,-19.5"/>
<text text-anchor="middle" x="74.5" y="-26.5" font-family="Helvetica,sans-Serif" font-size="10.00" fill="#000000">ShadowBrush::drawRectangle</text>
</g>
<!-- Node4 -->
<g id="node2" class="node">
<title>Node4</title>
<g id="a_node2"><a xlink:href="classTetrisRenderer.html#a37f71d197e635739aab54abb576f1876" target="_top" xlink:title="TetrisRenderer::render">
<polygon fill="#ffffff" stroke="#000000" points="346,-38.5 346,-57.5 460,-57.5 460,-38.5 346,-38.5"/>
<text text-anchor="middle" x="403" y="-45.5" font-family="Helvetica,sans-Serif" font-size="10.00" fill="#000000">TetrisRenderer::render</text>
</a>
</g>
</g>
<!-- Node3&#45;&gt;Node4 -->
<g id="edge1" class="edge">
<title>Node3&#45;&gt;Node4</title>
<path fill="none" stroke="#191970" d="M159.0367,-33.8895C217.711,-37.2831 294.3007,-41.713 345.8838,-44.6965"/>
<polygon fill="#191970" stroke="#191970" points="159.2272,-30.3947 149.0417,-33.3114 158.8229,-37.3831 159.2272,-30.3947"/>
</g>
<!-- Node5 -->
<g id="node3" class="node">
<title>Node5</title>
<g id="a_node3"><a xlink:href="classGridRenderer.html#a0febcbbb5a20019d0afdca8c98f1a485" target="_top" xlink:title="GridRenderer::renderGrid">
<polygon fill="#ffffff" stroke="#000000" points="185,-.5 185,-19.5 310,-19.5 310,-.5 185,-.5"/>
<text text-anchor="middle" x="247.5" y="-7.5" font-family="Helvetica,sans-Serif" font-size="10.00" fill="#000000">GridRenderer::renderGrid</text>
</a>
</g>
</g>
<!-- Node3&#45;&gt;Node5 -->
<g id="edge2" class="edge">
<title>Node3&#45;&gt;Node5</title>
<path fill="none" stroke="#191970" d="M159.2056,-19.6971C167.8214,-18.7508 176.461,-17.802 184.7822,-16.8881"/>
<polygon fill="#191970" stroke="#191970" points="158.6809,-16.2336 149.1228,-20.8044 159.4452,-23.1917 158.6809,-16.2336"/>
</g>
<!-- Node5&#45;&gt;Node4 -->
<g id="edge4" class="edge">
<title>Node5&#45;&gt;Node4</title>
<path fill="none" stroke="#191970" d="M296.4742,-21.968C318.2652,-27.2931 343.5672,-33.4762 364.043,-38.4799"/>
<polygon fill="#191970" stroke="#191970" points="297.2843,-18.563 286.7392,-19.589 295.6225,-25.3629 297.2843,-18.563"/>
</g>
<!-- Node6 -->
<g id="node4" class="node">
<title>Node6</title>
<g id="a_node4"><a xlink:href="classBlockRenderer.html#af959dba7928a2b271c1fb6771653269c" target="_top" xlink:title="BlockRenderer::render">
<polygon fill="#ffffff" stroke="#000000" points="346,-.5 346,-19.5 460,-19.5 460,-.5 346,-.5"/>
<text text-anchor="middle" x="403" y="-7.5" font-family="Helvetica,sans-Serif" font-size="10.00" fill="#000000">BlockRenderer::render</text>
</a>
</g>
</g>
<!-- Node5&#45;&gt;Node6 -->
<g id="edge3" class="edge">
<title>Node5&#45;&gt;Node6</title>
<path fill="none" stroke="#191970" d="M320.3443,-10C328.9541,-10 337.6445,-10 345.9908,-10"/>
<polygon fill="#191970" stroke="#191970" points="320.2996,-6.5001 310.2996,-10 320.2995,-13.5001 320.2996,-6.5001"/>
</g>
</g>
</svg>
