<?xml version="1.0" encoding="UTF-8" standalone="no"?>
<!DOCTYPE svg PUBLIC "-//W3C//DTD SVG 1.1//EN"
 "http://www.w3.org/Graphics/SVG/1.1/DTD/svg11.dtd">
<!-- Generated by graphviz version 2.40.1 (20161225.0304)
 -->
<!-- Title: TetrisModel::updateHighScore Pages: 1 -->
<svg width="318pt" height="66pt"
 viewBox="0.00 0.00 318.00 66.00" xmlns="http://www.w3.org/2000/svg" xmlns:xlink="http://www.w3.org/1999/xlink">
<g id="graph0" class="graph" transform="scale(1 1) rotate(0) translate(4 62)">
<title>TetrisModel::updateHighScore</title>
<polygon fill="#ffffff" stroke="transparent" points="-4,4 -4,-62 314,-62 314,4 -4,4"/>
<!-- Node46 -->
<g id="node1" class="node">
<title>Node46</title>
<polygon fill="#bfbfbf" stroke="#000000" points="0,-19.5 0,-38.5 149,-38.5 149,-19.5 0,-19.5"/>
<text text-anchor="middle" x="74.5" y="-26.5" font-family="Helvetica,sans-Serif" font-size="10.00" fill="#000000">TetrisModel::updateHighScore</text>
</g>
<!-- Node47 -->
<g id="node2" class="node">
<title>Node47</title>
<g id="a_node2"><a xlink:href="classTetrisModel.html#a2b1e1db1d900702926771b85aaea81f9" target="_top" xlink:title="TetrisModel::TetrisModel">
<polygon fill="#ffffff" stroke="#000000" points="185,-38.5 185,-57.5 310,-57.5 310,-38.5 185,-38.5"/>
<text text-anchor="middle" x="247.5" y="-45.5" font-family="Helvetica,sans-Serif" font-size="10.00" fill="#000000">TetrisModel::TetrisModel</text>
</a>
</g>
</g>
<!-- Node46&#45;&gt;Node47 -->
<g id="edge1" class="edge">
<title>Node46&#45;&gt;Node47</title>
<path fill="none" stroke="#191970" d="M159.2056,-38.3029C167.8214,-39.2492 176.461,-40.198 184.7822,-41.1119"/>
<polygon fill="#191970" stroke="#191970" points="159.4452,-34.8083 149.1228,-37.1956 158.6809,-41.7664 159.4452,-34.8083"/>
</g>
<!-- Node48 -->
<g id="node3" class="node">
<title>Node48</title>
<g id="a_node3"><a xlink:href="classTetrisModel.html#a3ca9bd1a26a36b367ba2021f754dace7" target="_top" xlink:title="TetrisModel::step">
<polygon fill="#ffffff" stroke="#000000" points="201.5,-.5 201.5,-19.5 293.5,-19.5 293.5,-.5 201.5,-.5"/>
<text text-anchor="middle" x="247.5" y="-7.5" font-family="Helvetica,sans-Serif" font-size="10.00" fill="#000000">TetrisModel::step</text>
</a>
</g>
</g>
<!-- Node46&#45;&gt;Node48 -->
<g id="edge2" class="edge">
<title>Node46&#45;&gt;Node48</title>
<path fill="none" stroke="#191970" d="M159.1537,-19.7028C173.6881,-18.1065 188.292,-16.5026 201.323,-15.0715"/>
<polygon fill="#191970" stroke="#191970" points="158.6809,-16.2336 149.1228,-20.8044 159.4452,-23.1917 158.6809,-16.2336"/>
</g>
</g>
</svg>
