<?xml version="1.0" encoding="UTF-8" standalone="no"?>
<!DOCTYPE svg PUBLIC "-//W3C//DTD SVG 1.1//EN"
 "http://www.w3.org/Graphics/SVG/1.1/DTD/svg11.dtd">
<!-- Generated by graphviz version 2.40.1 (20161225.0304)
 -->
<!-- Title: LerpSeries::add Pages: 1 -->
<svg width="245pt" height="78pt"
 viewBox="0.00 0.00 245.00 77.50" xmlns="http://www.w3.org/2000/svg" xmlns:xlink="http://www.w3.org/1999/xlink">
<g id="graph0" class="graph" transform="scale(1 1) rotate(0) translate(4 73.5)">
<title>LerpSeries::add</title>
<polygon fill="#ffffff" stroke="transparent" points="-4,4 -4,-73.5 241,-73.5 241,4 -4,4"/>
<!-- Node6 -->
<g id="node1" class="node">
<title>Node6</title>
<polygon fill="#bfbfbf" stroke="#000000" points="0,-22.5 0,-41.5 85,-41.5 85,-22.5 0,-22.5"/>
<text text-anchor="middle" x="42.5" y="-29.5" font-family="Helvetica,sans-Serif" font-size="10.00" fill="#000000">LerpSeries::add</text>
</g>
<!-- Node7 -->
<g id="node2" class="node">
<title>Node7</title>
<g id="a_node2"><a xlink:href="classPauseMenuRenderer.html#a28d42a4298497f60a0116375796feae4" target="_top" xlink:title="PauseMenuRenderer::\lPauseMenuRenderer">
<polygon fill="#ffffff" stroke="#000000" points="122,-39 122,-69 236,-69 236,-39 122,-39"/>
<text text-anchor="start" x="130" y="-57" font-family="Helvetica,sans-Serif" font-size="10.00" fill="#000000">PauseMenuRenderer::</text>
<text text-anchor="middle" x="179" y="-46" font-family="Helvetica,sans-Serif" font-size="10.00" fill="#000000">PauseMenuRenderer</text>
</a>
</g>
</g>
<!-- Node6&#45;&gt;Node7 -->
<g id="edge1" class="edge">
<title>Node6&#45;&gt;Node7</title>
<path fill="none" stroke="#191970" d="M95.3123,-40.5119C103.9971,-41.9116 113.0339,-43.3681 121.8193,-44.7841"/>
<polygon fill="#191970" stroke="#191970" points="95.7445,-37.0364 85.3149,-38.9006 94.6306,-43.9473 95.7445,-37.0364"/>
</g>
<!-- Node8 -->
<g id="node3" class="node">
<title>Node8</title>
<g id="a_node3"><a xlink:href="classLerpSeries.html#a1641f15404cb9d49bcbd9b084e21f613" target="_top" xlink:title="LerpSeries::LerpSeries">
<polygon fill="#ffffff" stroke="#000000" points="121,-.5 121,-19.5 237,-19.5 237,-.5 121,-.5"/>
<text text-anchor="middle" x="179" y="-7.5" font-family="Helvetica,sans-Serif" font-size="10.00" fill="#000000">LerpSeries::LerpSeries</text>
</a>
</g>
</g>
<!-- Node6&#45;&gt;Node8 -->
<g id="edge2" class="edge">
<title>Node6&#45;&gt;Node8</title>
<path fill="none" stroke="#191970" d="M95.3123,-23.4881C103.6706,-22.141 112.3548,-20.7414 120.8272,-19.3758"/>
<polygon fill="#191970" stroke="#191970" points="94.6306,-20.0527 85.3149,-25.0994 95.7445,-26.9636 94.6306,-20.0527"/>
</g>
</g>
</svg>
