<?xml version="1.0" encoding="UTF-8" standalone="no"?>
<!DOCTYPE svg PUBLIC "-//W3C//DTD SVG 1.1//EN"
 "http://www.w3.org/Graphics/SVG/1.1/DTD/svg11.dtd">
<!-- Generated by graphviz version 2.40.1 (20161225.0304)
 -->
<!-- Title: GridRenderer Pages: 1 -->
<svg width="103pt" height="193pt"
 viewBox="0.00 0.00 103.00 193.00" xmlns="http://www.w3.org/2000/svg" xmlns:xlink="http://www.w3.org/1999/xlink">
<g id="graph0" class="graph" transform="scale(1 1) rotate(0) translate(4 189)">
<title>GridRenderer</title>
<polygon fill="#ffffff" stroke="transparent" points="-4,4 -4,-189 99,-189 99,4 -4,4"/>
<!-- Node4 -->
<g id="node1" class="node">
<title>Node4</title>
<polygon fill="#bfbfbf" stroke="#000000" points="0,-.5 0,-90.5 95,-90.5 95,-.5 0,-.5"/>
<text text-anchor="middle" x="47.5" y="-78.5" font-family="Helvetica,sans-Serif" font-size="10.00" fill="#000000">GridRenderer</text>
<polyline fill="none" stroke="#000000" points="0,-71.5 95,-71.5 "/>
<text text-anchor="start" x="8" y="-59.5" font-family="Helvetica,sans-Serif" font-size="10.00" fill="#000000"># d_cellTextures</text>
<polyline fill="none" stroke="#000000" points="0,-52.5 95,-52.5 "/>
<text text-anchor="start" x="8" y="-40.5" font-family="Helvetica,sans-Serif" font-size="10.00" fill="#000000">+ GridRenderer()</text>
<text text-anchor="start" x="8" y="-29.5" font-family="Helvetica,sans-Serif" font-size="10.00" fill="#000000">+ ~GridRenderer()</text>
<text text-anchor="start" x="8" y="-18.5" font-family="Helvetica,sans-Serif" font-size="10.00" fill="#000000">+ render()</text>
<text text-anchor="start" x="8" y="-7.5" font-family="Helvetica,sans-Serif" font-size="10.00" fill="#000000"># renderGrid()</text>
</g>
<!-- Node5 -->
<g id="node2" class="node">
<title>Node5</title>
<g id="a_node2"><a xlink:href="classGameRenderer.html" target="_top" xlink:title="{GameRenderer\n||+ render()\l}">
<polygon fill="#ffffff" stroke="#000000" points="6,-127.5 6,-184.5 89,-184.5 89,-127.5 6,-127.5"/>
<text text-anchor="middle" x="47.5" y="-172.5" font-family="Helvetica,sans-Serif" font-size="10.00" fill="#000000">GameRenderer</text>
<polyline fill="none" stroke="#000000" points="6,-165.5 89,-165.5 "/>
<text text-anchor="middle" x="47.5" y="-153.5" font-family="Helvetica,sans-Serif" font-size="10.00" fill="#000000"> </text>
<polyline fill="none" stroke="#000000" points="6,-146.5 89,-146.5 "/>
<text text-anchor="start" x="14" y="-134.5" font-family="Helvetica,sans-Serif" font-size="10.00" fill="#000000">+ render()</text>
</a>
</g>
</g>
<!-- Node5&#45;&gt;Node4 -->
<g id="edge1" class="edge">
<title>Node5&#45;&gt;Node4</title>
<path fill="none" stroke="#191970" d="M47.5,-117.1977C47.5,-108.667 47.5,-99.5607 47.5,-90.7995"/>
<polygon fill="none" stroke="#191970" points="44.0001,-117.2559 47.5,-127.2559 51.0001,-117.2559 44.0001,-117.2559"/>
</g>
</g>
</svg>
