<?xml version="1.0" encoding="UTF-8" standalone="no"?>
<!DOCTYPE svg PUBLIC "-//W3C//DTD SVG 1.1//EN"
 "http://www.w3.org/Graphics/SVG/1.1/DTD/svg11.dtd">
<!-- Generated by graphviz version 2.40.1 (20161225.0304)
 -->
<!-- Title: Grid::cell Pages: 1 -->
<svg width="375pt" height="170pt"
 viewBox="0.00 0.00 375.00 170.00" xmlns="http://www.w3.org/2000/svg" xmlns:xlink="http://www.w3.org/1999/xlink">
<g id="graph0" class="graph" transform="scale(1 1) rotate(0) translate(4 166)">
<title>Grid::cell</title>
<polygon fill="#ffffff" stroke="transparent" points="-4,4 -4,-166 371,-166 371,4 -4,4"/>
<!-- Node5 -->
<g id="node1" class="node">
<title>Node5</title>
<polygon fill="#bfbfbf" stroke="#000000" points="0,-57.5 0,-76.5 56,-76.5 56,-57.5 0,-57.5"/>
<text text-anchor="middle" x="28" y="-64.5" font-family="Helvetica,sans-Serif" font-size="10.00" fill="#000000">Grid::cell</text>
</g>
<!-- Node6 -->
<g id="node2" class="node">
<title>Node6</title>
<g id="a_node2"><a xlink:href="classGridRenderer.html#a0febcbbb5a20019d0afdca8c98f1a485" target="_top" xlink:title="GridRenderer::renderGrid">
<polygon fill="#ffffff" stroke="#000000" points="92,-114.5 92,-133.5 217,-133.5 217,-114.5 92,-114.5"/>
<text text-anchor="middle" x="154.5" y="-121.5" font-family="Helvetica,sans-Serif" font-size="10.00" fill="#000000">GridRenderer::renderGrid</text>
</a>
</g>
</g>
<!-- Node5&#45;&gt;Node6 -->
<g id="edge1" class="edge">
<title>Node5&#45;&gt;Node6</title>
<path fill="none" stroke="#191970" d="M54.4124,-81.4439C65.8318,-87.4725 79.4336,-94.3678 92,-100 103.5612,-105.1817 116.6079,-110.3018 127.7792,-114.4734"/>
<polygon fill="#191970" stroke="#191970" points="55.8734,-78.2563 45.404,-76.6305 52.5745,-84.4302 55.8734,-78.2563"/>
</g>
<!-- Node9 -->
<g id="node5" class="node">
<title>Node9</title>
<g id="a_node5"><a xlink:href="classTetrisModel.html#a3ca9bd1a26a36b367ba2021f754dace7" target="_top" xlink:title="TetrisModel::step">
<polygon fill="#ffffff" stroke="#000000" points="264,-57.5 264,-76.5 356,-76.5 356,-57.5 264,-57.5"/>
<text text-anchor="middle" x="310" y="-64.5" font-family="Helvetica,sans-Serif" font-size="10.00" fill="#000000">TetrisModel::step</text>
</a>
</g>
</g>
<!-- Node5&#45;&gt;Node9 -->
<g id="edge4" class="edge">
<title>Node5&#45;&gt;Node9</title>
<path fill="none" stroke="#191970" d="M66.0908,-67C117.4509,-67 208.8116,-67 263.9609,-67"/>
<polygon fill="#191970" stroke="#191970" points="66.0702,-63.5001 56.0702,-67 66.0702,-70.5001 66.0702,-63.5001"/>
</g>
<!-- Node10 -->
<g id="node6" class="node">
<title>Node10</title>
<g id="a_node6"><a xlink:href="classGrid.html#a6766c64ee144373f5cec3a61db452a0c" target="_top" xlink:title="Grid::swapCells">
<polygon fill="#ffffff" stroke="#000000" points="111.5,-38.5 111.5,-57.5 197.5,-57.5 197.5,-38.5 111.5,-38.5"/>
<text text-anchor="middle" x="154.5" y="-45.5" font-family="Helvetica,sans-Serif" font-size="10.00" fill="#000000">Grid::swapCells</text>
</a>
</g>
</g>
<!-- Node5&#45;&gt;Node10 -->
<g id="edge5" class="edge">
<title>Node5&#45;&gt;Node10</title>
<path fill="none" stroke="#191970" d="M66.005,-61.2917C80.2071,-59.1586 96.4405,-56.7204 111.0931,-54.5196"/>
<polygon fill="#191970" stroke="#191970" points="65.4436,-57.8367 56.0745,-62.7833 66.4834,-64.7591 65.4436,-57.8367"/>
</g>
<!-- Node11 -->
<g id="node7" class="node">
<title>Node11</title>
<g id="a_node7"><a xlink:href="classTetrisModel.html#ada645766baccde5cbe9635474a55c7ce" target="_top" xlink:title="TetrisModel::stamp">
<polygon fill="#ffffff" stroke="#000000" points="104,-.5 104,-19.5 205,-19.5 205,-.5 104,-.5"/>
<text text-anchor="middle" x="154.5" y="-7.5" font-family="Helvetica,sans-Serif" font-size="10.00" fill="#000000">TetrisModel::stamp</text>
</a>
</g>
</g>
<!-- Node5&#45;&gt;Node11 -->
<g id="edge7" class="edge">
<title>Node5&#45;&gt;Node11</title>
<path fill="none" stroke="#191970" d="M50.6507,-51.7314C62.5831,-44.1636 77.6797,-35.3174 92,-29 100.1972,-25.3838 109.2871,-22.1902 117.9381,-19.5026"/>
<polygon fill="#191970" stroke="#191970" points="48.6939,-48.8287 42.2079,-57.2063 52.5025,-54.702 48.6939,-48.8287"/>
</g>
<!-- Node7 -->
<g id="node3" class="node">
<title>Node7</title>
<g id="a_node3"><a xlink:href="classBlockRenderer.html#af959dba7928a2b271c1fb6771653269c" target="_top" xlink:title="BlockRenderer::render">
<polygon fill="#ffffff" stroke="#000000" points="253,-142.5 253,-161.5 367,-161.5 367,-142.5 253,-142.5"/>
<text text-anchor="middle" x="310" y="-149.5" font-family="Helvetica,sans-Serif" font-size="10.00" fill="#000000">BlockRenderer::render</text>
</a>
</g>
</g>
<!-- Node6&#45;&gt;Node7 -->
<g id="edge2" class="edge">
<title>Node6&#45;&gt;Node7</title>
<path fill="none" stroke="#191970" d="M217.5037,-135.3447C230.6653,-137.7146 244.412,-140.19 257.1599,-142.4854"/>
<polygon fill="#191970" stroke="#191970" points="218.0414,-131.8853 207.5794,-133.5577 216.8008,-138.7745 218.0414,-131.8853"/>
</g>
<!-- Node8 -->
<g id="node4" class="node">
<title>Node8</title>
<g id="a_node4"><a xlink:href="classTetrisRenderer.html#a37f71d197e635739aab54abb576f1876" target="_top" xlink:title="TetrisRenderer::render">
<polygon fill="#ffffff" stroke="#000000" points="253,-104.5 253,-123.5 367,-123.5 367,-104.5 253,-104.5"/>
<text text-anchor="middle" x="310" y="-111.5" font-family="Helvetica,sans-Serif" font-size="10.00" fill="#000000">TetrisRenderer::render</text>
</a>
</g>
</g>
<!-- Node6&#45;&gt;Node8 -->
<g id="edge3" class="edge">
<title>Node6&#45;&gt;Node8</title>
<path fill="none" stroke="#191970" d="M227.3443,-119.3155C235.9541,-118.7618 244.6445,-118.2029 252.9908,-117.6662"/>
<polygon fill="#191970" stroke="#191970" points="227.0543,-115.8268 217.2996,-119.9614 227.5036,-122.8124 227.0543,-115.8268"/>
</g>
<!-- Node10&#45;&gt;Node9 -->
<g id="edge6" class="edge">
<title>Node10&#45;&gt;Node9</title>
<path fill="none" stroke="#191970" d="M207.9817,-54.5347C226.1837,-56.7588 246.3579,-59.2238 263.9284,-61.3707"/>
<polygon fill="#191970" stroke="#191970" points="208.1661,-51.0313 197.8154,-53.2926 207.3171,-57.9797 208.1661,-51.0313"/>
</g>
<!-- Node12 -->
<g id="node8" class="node">
<title>Node12</title>
<g id="a_node8"><a xlink:href="classBlockModel.html#a8a06f9b921847069818e06a97d585266" target="_top" xlink:title="BlockModel::step">
<polygon fill="#ffffff" stroke="#000000" points="264,-.5 264,-19.5 356,-19.5 356,-.5 264,-.5"/>
<text text-anchor="middle" x="310" y="-7.5" font-family="Helvetica,sans-Serif" font-size="10.00" fill="#000000">BlockModel::step</text>
</a>
</g>
</g>
<!-- Node11&#45;&gt;Node12 -->
<g id="edge8" class="edge">
<title>Node11&#45;&gt;Node12</title>
<path fill="none" stroke="#191970" d="M215.7889,-10C231.8342,-10 248.8597,-10 263.9596,-10"/>
<polygon fill="#191970" stroke="#191970" points="215.4165,-6.5001 205.4165,-10 215.4165,-13.5001 215.4165,-6.5001"/>
</g>
</g>
</svg>
