<?xml version="1.0" encoding="UTF-8" standalone="no"?>
<!DOCTYPE svg PUBLIC "-//W3C//DTD SVG 1.1//EN"
 "http://www.w3.org/Graphics/SVG/1.1/DTD/svg11.dtd">
<!-- Generated by graphviz version 2.40.1 (20161225.0304)
 -->
<!-- Title: PauseMenuAudio::update Pages: 1 -->
<svg width="310pt" height="294pt"
 viewBox="0.00 0.00 310.00 294.00" xmlns="http://www.w3.org/2000/svg" xmlns:xlink="http://www.w3.org/1999/xlink">
<g id="graph0" class="graph" transform="scale(1 1) rotate(0) translate(4 290)">
<title>PauseMenuAudio::update</title>
<polygon fill="#ffffff" stroke="transparent" points="-4,4 -4,-290 306,-290 306,4 -4,4"/>
<!-- Node4 -->
<g id="node1" class="node">
<title>Node4</title>
<polygon fill="#bfbfbf" stroke="#000000" points="0,-133.5 0,-152.5 128,-152.5 128,-133.5 0,-133.5"/>
<text text-anchor="middle" x="64" y="-140.5" font-family="Helvetica,sans-Serif" font-size="10.00" fill="#000000">PauseMenuAudio::update</text>
</g>
<!-- Node5 -->
<g id="node2" class="node">
<title>Node5</title>
<g id="a_node2"><a xlink:href="classMusic.html#acebaca4df12835a117e5a4cfa5a1621f" target="_top" xlink:title="Music::playing">
<polygon fill="#ffffff" stroke="#000000" points="193,-266.5 193,-285.5 273,-285.5 273,-266.5 193,-266.5"/>
<text text-anchor="middle" x="233" y="-273.5" font-family="Helvetica,sans-Serif" font-size="10.00" fill="#000000">Music::playing</text>
</a>
</g>
</g>
<!-- Node4&#45;&gt;Node5 -->
<g id="edge1" class="edge">
<title>Node4&#45;&gt;Node5</title>
<path fill="none" stroke="#191970" d="M69.6545,-152.6344C83.0846,-174.6498 119.1573,-228.9037 164,-257 169.8008,-260.6345 176.3007,-263.5847 182.9299,-265.9767"/>
<polygon fill="#191970" stroke="#191970" points="182.0777,-269.3788 192.6688,-269.0966 184.2134,-262.7126 182.0777,-269.3788"/>
</g>
<!-- Node6 -->
<g id="node3" class="node">
<title>Node6</title>
<g id="a_node3"><a xlink:href="classMusic.html#aa279467e462c03e9b8b1099e5cf50d28" target="_top" xlink:title="Music::play">
<polygon fill="#ffffff" stroke="#000000" points="199.5,-228.5 199.5,-247.5 266.5,-247.5 266.5,-228.5 199.5,-228.5"/>
<text text-anchor="middle" x="233" y="-235.5" font-family="Helvetica,sans-Serif" font-size="10.00" fill="#000000">Music::play</text>
</a>
</g>
</g>
<!-- Node4&#45;&gt;Node6 -->
<g id="edge2" class="edge">
<title>Node4&#45;&gt;Node6</title>
<path fill="none" stroke="#191970" d="M73.9119,-152.6476C90.938,-168.703 127.4486,-200.9231 164,-219 172.0111,-222.962 180.9677,-226.1975 189.706,-228.802"/>
<polygon fill="#191970" stroke="#191970" points="188.8465,-232.1956 199.4171,-231.4796 190.7072,-225.4474 188.8465,-232.1956"/>
</g>
<!-- Node7 -->
<g id="node4" class="node">
<title>Node7</title>
<g id="a_node4"><a xlink:href="classPauseMenuModel.html#a782b2f4f78ab15cb521c634340068308" target="_top" xlink:title="PauseMenuModel::firstStart">
<polygon fill="#ffffff" stroke="#000000" points="164,-190.5 164,-209.5 302,-209.5 302,-190.5 164,-190.5"/>
<text text-anchor="middle" x="233" y="-197.5" font-family="Helvetica,sans-Serif" font-size="10.00" fill="#000000">PauseMenuModel::firstStart</text>
</a>
</g>
</g>
<!-- Node4&#45;&gt;Node7 -->
<g id="edge3" class="edge">
<title>Node4&#45;&gt;Node7</title>
<path fill="none" stroke="#191970" d="M87.2155,-152.5366C107.3419,-160.6316 137.3437,-172.2868 164,-181 171.1442,-183.3352 178.7648,-185.6278 186.2378,-187.7673"/>
<polygon fill="#191970" stroke="#191970" points="185.3506,-191.1535 195.9242,-190.4827 187.2401,-184.4133 185.3506,-191.1535"/>
</g>
<!-- Node8 -->
<g id="node5" class="node">
<title>Node8</title>
<g id="a_node5"><a xlink:href="classMusic.html#a7fa314bc17cd96502f26c76c1315b274" target="_top" xlink:title="Music::halt">
<polygon fill="#ffffff" stroke="#000000" points="200.5,-152.5 200.5,-171.5 265.5,-171.5 265.5,-152.5 200.5,-152.5"/>
<text text-anchor="middle" x="233" y="-159.5" font-family="Helvetica,sans-Serif" font-size="10.00" fill="#000000">Music::halt</text>
</a>
</g>
</g>
<!-- Node4&#45;&gt;Node8 -->
<g id="edge4" class="edge">
<title>Node4&#45;&gt;Node8</title>
<path fill="none" stroke="#191970" d="M128.3738,-150.2373C149.1519,-152.5733 171.6538,-155.1031 190.4469,-157.2159"/>
<polygon fill="#191970" stroke="#191970" points="190.1429,-160.7037 200.4714,-158.3429 190.925,-153.7475 190.1429,-160.7037"/>
</g>
<!-- Node9 -->
<g id="node6" class="node">
<title>Node9</title>
<g id="a_node6"><a xlink:href="classPauseMenuModel.html#a95d680e91f951dac1ceb51d3ecb6a691" target="_top" xlink:title="PauseMenuModel::paused">
<polygon fill="#ffffff" stroke="#000000" points="167,-114.5 167,-133.5 299,-133.5 299,-114.5 167,-114.5"/>
<text text-anchor="middle" x="233" y="-121.5" font-family="Helvetica,sans-Serif" font-size="10.00" fill="#000000">PauseMenuModel::paused</text>
</a>
</g>
</g>
<!-- Node4&#45;&gt;Node9 -->
<g id="edge5" class="edge">
<title>Node4&#45;&gt;Node9</title>
<path fill="none" stroke="#191970" d="M128.3738,-135.7627C137.6216,-134.723 147.2109,-133.6449 156.6627,-132.5823"/>
<polygon fill="#191970" stroke="#191970" points="157.296,-136.0332 166.8423,-131.4378 156.5138,-129.0771 157.296,-136.0332"/>
</g>
<!-- Node10 -->
<g id="node7" class="node">
<title>Node10</title>
<g id="a_node7"><a xlink:href="classMusic.html#a10e5537400b6f018a8c86085751a90cb" target="_top" xlink:title="Music::pause">
<polygon fill="#ffffff" stroke="#000000" points="195.5,-76.5 195.5,-95.5 270.5,-95.5 270.5,-76.5 195.5,-76.5"/>
<text text-anchor="middle" x="233" y="-83.5" font-family="Helvetica,sans-Serif" font-size="10.00" fill="#000000">Music::pause</text>
</a>
</g>
</g>
<!-- Node4&#45;&gt;Node10 -->
<g id="edge6" class="edge">
<title>Node4&#45;&gt;Node10</title>
<path fill="none" stroke="#191970" d="M87.2155,-133.4634C107.3419,-125.3684 137.3437,-113.7132 164,-105 171.1442,-102.6648 178.7648,-100.3722 186.2378,-98.2327"/>
<polygon fill="#191970" stroke="#191970" points="187.2401,-101.5867 195.9242,-95.5173 185.3506,-94.8465 187.2401,-101.5867"/>
</g>
<!-- Node11 -->
<g id="node8" class="node">
<title>Node11</title>
<g id="a_node8"><a xlink:href="classMusic.html#a2408bf019e742d575c43ab236c4e1784" target="_top" xlink:title="Music::paused">
<polygon fill="#ffffff" stroke="#000000" points="193,-38.5 193,-57.5 273,-57.5 273,-38.5 193,-38.5"/>
<text text-anchor="middle" x="233" y="-45.5" font-family="Helvetica,sans-Serif" font-size="10.00" fill="#000000">Music::paused</text>
</a>
</g>
</g>
<!-- Node4&#45;&gt;Node11 -->
<g id="edge7" class="edge">
<title>Node4&#45;&gt;Node11</title>
<path fill="none" stroke="#191970" d="M73.9119,-133.3524C90.938,-117.297 127.4486,-85.0769 164,-67 170.0612,-64.0024 176.6636,-61.4206 183.3033,-59.2133"/>
<polygon fill="#191970" stroke="#191970" points="184.4631,-62.5186 192.999,-56.2426 182.4124,-55.8257 184.4631,-62.5186"/>
</g>
<!-- Node12 -->
<g id="node9" class="node">
<title>Node12</title>
<g id="a_node9"><a xlink:href="classMusic.html#a747b98f1b47b7eb370e0285e53d50ae8" target="_top" xlink:title="Music::resume">
<polygon fill="#ffffff" stroke="#000000" points="192.5,-.5 192.5,-19.5 273.5,-19.5 273.5,-.5 192.5,-.5"/>
<text text-anchor="middle" x="233" y="-7.5" font-family="Helvetica,sans-Serif" font-size="10.00" fill="#000000">Music::resume</text>
</a>
</g>
</g>
<!-- Node4&#45;&gt;Node12 -->
<g id="edge8" class="edge">
<title>Node4&#45;&gt;Node12</title>
<path fill="none" stroke="#191970" d="M69.6545,-133.3656C83.0846,-111.3502 119.1573,-57.0963 164,-29 169.7301,-25.4098 176.1422,-22.4874 182.6874,-20.1111"/>
<polygon fill="#191970" stroke="#191970" points="183.8665,-23.4084 192.3082,-17.0061 181.7165,-16.7467 183.8665,-23.4084"/>
</g>
</g>
</svg>
