<?xml version="1.0" encoding="UTF-8" standalone="no"?>
<!DOCTYPE svg PUBLIC "-//W3C//DTD SVG 1.1//EN"
 "http://www.w3.org/Graphics/SVG/1.1/DTD/svg11.dtd">
<!-- Generated by graphviz version 2.40.1 (20161225.0304)
 -->
<!-- Title: PauseMenuInputParser Pages: 1 -->
<svg width="142pt" height="171pt"
 viewBox="0.00 0.00 142.00 171.00" xmlns="http://www.w3.org/2000/svg" xmlns:xlink="http://www.w3.org/1999/xlink">
<g id="graph0" class="graph" transform="scale(1 1) rotate(0) translate(4 167)">
<title>PauseMenuInputParser</title>
<polygon fill="#ffffff" stroke="transparent" points="-4,4 -4,-167 138,-167 138,4 -4,4"/>
<!-- Node2 -->
<g id="node1" class="node">
<title>Node2</title>
<polygon fill="#bfbfbf" stroke="#000000" points="0,-.5 0,-68.5 134,-68.5 134,-.5 0,-.5"/>
<text text-anchor="middle" x="67" y="-56.5" font-family="Helvetica,sans-Serif" font-size="10.00" fill="#000000">PauseMenuInputParser</text>
<polyline fill="none" stroke="#000000" points="0,-49.5 134,-49.5 "/>
<text text-anchor="middle" x="67" y="-37.5" font-family="Helvetica,sans-Serif" font-size="10.00" fill="#000000"> </text>
<polyline fill="none" stroke="#000000" points="0,-30.5 134,-30.5 "/>
<text text-anchor="start" x="8" y="-18.5" font-family="Helvetica,sans-Serif" font-size="10.00" fill="#000000">+ PauseMenuInputParser()</text>
<text text-anchor="start" x="8" y="-7.5" font-family="Helvetica,sans-Serif" font-size="10.00" fill="#000000">+ parse()</text>
</g>
<!-- Node3 -->
<g id="node2" class="node">
<title>Node3</title>
<g id="a_node2"><a xlink:href="classInputParser.html" target="_top" xlink:title="{InputParser\n||+ parse()\l}">
<polygon fill="#ffffff" stroke="#000000" points="33.5,-105.5 33.5,-162.5 100.5,-162.5 100.5,-105.5 33.5,-105.5"/>
<text text-anchor="middle" x="67" y="-150.5" font-family="Helvetica,sans-Serif" font-size="10.00" fill="#000000">InputParser</text>
<polyline fill="none" stroke="#000000" points="33.5,-143.5 100.5,-143.5 "/>
<text text-anchor="middle" x="67" y="-131.5" font-family="Helvetica,sans-Serif" font-size="10.00" fill="#000000"> </text>
<polyline fill="none" stroke="#000000" points="33.5,-124.5 100.5,-124.5 "/>
<text text-anchor="start" x="41.5" y="-112.5" font-family="Helvetica,sans-Serif" font-size="10.00" fill="#000000">+ parse()</text>
</a>
</g>
</g>
<!-- Node3&#45;&gt;Node2 -->
<g id="edge1" class="edge">
<title>Node3&#45;&gt;Node2</title>
<path fill="none" stroke="#191970" d="M67,-95.4268C67,-86.6025 67,-77.2834 67,-68.6596"/>
<polygon fill="none" stroke="#191970" points="63.5001,-95.4873 67,-105.4873 70.5001,-95.4873 63.5001,-95.4873"/>
</g>
</g>
</svg>
