<?xml version="1.0" encoding="UTF-8" standalone="no"?>
<!DOCTYPE svg PUBLIC "-//W3C//DTD SVG 1.1//EN"
 "http://www.w3.org/Graphics/SVG/1.1/DTD/svg11.dtd">
<!-- Generated by graphviz version 2.40.1 (20161225.0304)
 -->
<!-- Title: BlockModel::step Pages: 1 -->
<svg width="549pt" height="218pt"
 viewBox="0.00 0.00 549.00 218.00" xmlns="http://www.w3.org/2000/svg" xmlns:xlink="http://www.w3.org/1999/xlink">
<g id="graph0" class="graph" transform="scale(1 1) rotate(0) translate(4 214)">
<title>BlockModel::step</title>
<polygon fill="#ffffff" stroke="transparent" points="-4,4 -4,-214 545,-214 545,4 -4,4"/>
<!-- Node59 -->
<g id="node1" class="node">
<title>Node59</title>
<polygon fill="#bfbfbf" stroke="#000000" points="0,-114.5 0,-133.5 92,-133.5 92,-114.5 0,-114.5"/>
<text text-anchor="middle" x="46" y="-121.5" font-family="Helvetica,sans-Serif" font-size="10.00" fill="#000000">BlockModel::step</text>
</g>
<!-- Node60 -->
<g id="node2" class="node">
<title>Node60</title>
<g id="a_node2"><a xlink:href="classPauseble.html#a835af175a9252782c6ec90972e83db6e" target="_top" xlink:title="Pauseble::paused">
<polygon fill="#ffffff" stroke="#000000" points="142.5,-190.5 142.5,-209.5 237.5,-209.5 237.5,-190.5 142.5,-190.5"/>
<text text-anchor="middle" x="190" y="-197.5" font-family="Helvetica,sans-Serif" font-size="10.00" fill="#000000">Pauseble::paused</text>
</a>
</g>
</g>
<!-- Node59&#45;&gt;Node60 -->
<g id="edge1" class="edge">
<title>Node59&#45;&gt;Node60</title>
<path fill="none" stroke="#191970" d="M59.4436,-133.6873C75.3023,-144.8356 102.7153,-163.2439 128,-176 135.7771,-179.9235 144.357,-183.6195 152.5906,-186.8812"/>
<polygon fill="#191970" stroke="#191970" points="151.4378,-190.1875 162.0281,-190.4981 153.9429,-183.6511 151.4378,-190.1875"/>
</g>
<!-- Node61 -->
<g id="node3" class="node">
<title>Node61</title>
<g id="a_node3"><a xlink:href="classBlockModel.html#a67f5cc853ab4ace6e8ade706bd2f400e" target="_top" xlink:title="BlockModel::reset">
<polygon fill="#ffffff" stroke="#000000" points="142.5,-114.5 142.5,-133.5 237.5,-133.5 237.5,-114.5 142.5,-114.5"/>
<text text-anchor="middle" x="190" y="-121.5" font-family="Helvetica,sans-Serif" font-size="10.00" fill="#000000">BlockModel::reset</text>
</a>
</g>
</g>
<!-- Node59&#45;&gt;Node61 -->
<g id="edge2" class="edge">
<title>Node59&#45;&gt;Node61</title>
<path fill="none" stroke="#191970" d="M92.3551,-124C104.941,-124 118.7294,-124 131.8762,-124"/>
<polygon fill="#191970" stroke="#191970" points="132.247,-127.5001 142.247,-124 132.2469,-120.5001 132.247,-127.5001"/>
</g>
<!-- Node62 -->
<g id="node4" class="node">
<title>Node62</title>
<g id="a_node4"><a xlink:href="classBlockModel.html#af908d87b67d152ceb5a65696a02cea54" target="_top" xlink:title="BlockModel::currentBlock">
<polygon fill="#ffffff" stroke="#000000" points="288,-152.5 288,-171.5 416,-171.5 416,-152.5 288,-152.5"/>
<text text-anchor="middle" x="352" y="-159.5" font-family="Helvetica,sans-Serif" font-size="10.00" fill="#000000">BlockModel::currentBlock</text>
</a>
</g>
</g>
<!-- Node59&#45;&gt;Node62 -->
<g id="edge7" class="edge">
<title>Node59&#45;&gt;Node62</title>
<path fill="none" stroke="#191970" d="M82.1115,-133.5423C96.3245,-136.9886 112.8428,-140.6137 128,-143 177.7169,-150.8272 234.1848,-155.59 277.9868,-158.3895"/>
<polygon fill="#191970" stroke="#191970" points="277.7857,-161.8836 287.9829,-159.0084 278.2184,-154.897 277.7857,-161.8836"/>
</g>
<!-- Node66 -->
<g id="node8" class="node">
<title>Node66</title>
<g id="a_node8"><a xlink:href="classTetrisModel.html#a54a2b9548317589e7237768e21ab8a24" target="_top" xlink:title="TetrisModel::timeToWait">
<polygon fill="#ffffff" stroke="#000000" points="128,-76.5 128,-95.5 252,-95.5 252,-76.5 128,-76.5"/>
<text text-anchor="middle" x="190" y="-83.5" font-family="Helvetica,sans-Serif" font-size="10.00" fill="#000000">TetrisModel::timeToWait</text>
</a>
</g>
</g>
<!-- Node59&#45;&gt;Node66 -->
<g id="edge8" class="edge">
<title>Node59&#45;&gt;Node66</title>
<path fill="none" stroke="#191970" d="M82.3373,-114.411C101.0829,-109.4642 124.1432,-103.3789 144.1066,-98.1108"/>
<polygon fill="#191970" stroke="#191970" points="145.1481,-101.4558 153.924,-95.5201 143.3619,-94.6875 145.1481,-101.4558"/>
</g>
<!-- Node67 -->
<g id="node9" class="node">
<title>Node67</title>
<g id="a_node9"><a xlink:href="classTetrisModel.html#ada645766baccde5cbe9635474a55c7ce" target="_top" xlink:title="TetrisModel::stamp">
<polygon fill="#ffffff" stroke="#000000" points="139.5,-38.5 139.5,-57.5 240.5,-57.5 240.5,-38.5 139.5,-38.5"/>
<text text-anchor="middle" x="190" y="-45.5" font-family="Helvetica,sans-Serif" font-size="10.00" fill="#000000">TetrisModel::stamp</text>
</a>
</g>
</g>
<!-- Node59&#45;&gt;Node67 -->
<g id="edge9" class="edge">
<title>Node59&#45;&gt;Node67</title>
<path fill="none" stroke="#191970" d="M57.237,-114.4752C72.4128,-102.0291 100.7114,-80.2629 128,-67 132.6276,-64.7509 137.579,-62.6992 142.5911,-60.8462"/>
<polygon fill="#191970" stroke="#191970" points="143.9179,-64.0912 152.2351,-57.528 141.6404,-57.472 143.9179,-64.0912"/>
</g>
<!-- Node61&#45;&gt;Node62 -->
<g id="edge3" class="edge">
<title>Node61&#45;&gt;Node62</title>
<path fill="none" stroke="#191970" d="M230.8794,-133.589C252.3534,-138.6261 278.8605,-144.8438 301.597,-150.1771"/>
<polygon fill="#191970" stroke="#191970" points="300.8795,-153.6037 311.4145,-152.4799 302.4781,-146.7887 300.8795,-153.6037"/>
</g>
<!-- Node63 -->
<g id="node5" class="node">
<title>Node63</title>
<g id="a_node5"><a xlink:href="classGrid.html#a48a0cbb4dee8eb8e1c56f4d85d1f971b" target="_top" xlink:title="Grid::width">
<polygon fill="#ffffff" stroke="#000000" points="320,-76.5 320,-95.5 384,-95.5 384,-76.5 320,-76.5"/>
<text text-anchor="middle" x="352" y="-83.5" font-family="Helvetica,sans-Serif" font-size="10.00" fill="#000000">Grid::width</text>
</a>
</g>
</g>
<!-- Node61&#45;&gt;Node63 -->
<g id="edge4" class="edge">
<title>Node61&#45;&gt;Node63</title>
<path fill="none" stroke="#191970" d="M230.8794,-114.411C254.9922,-108.7549 285.451,-101.6103 309.7917,-95.9007"/>
<polygon fill="#191970" stroke="#191970" points="310.876,-99.2414 319.8124,-93.5502 309.2774,-92.4264 310.876,-99.2414"/>
</g>
<!-- Node64 -->
<g id="node6" class="node">
<title>Node64</title>
<g id="a_node6"><a xlink:href="classBlockModel.html#aa74c33064430c5f566d009c6bab1c848" target="_top" xlink:title="BlockModel::grid">
<polygon fill="#ffffff" stroke="#000000" points="307.5,-114.5 307.5,-133.5 396.5,-133.5 396.5,-114.5 307.5,-114.5"/>
<text text-anchor="middle" x="352" y="-121.5" font-family="Helvetica,sans-Serif" font-size="10.00" fill="#000000">BlockModel::grid</text>
</a>
</g>
</g>
<!-- Node61&#45;&gt;Node64 -->
<g id="edge5" class="edge">
<title>Node61&#45;&gt;Node64</title>
<path fill="none" stroke="#191970" d="M237.7291,-124C256.3999,-124 277.9253,-124 297.2242,-124"/>
<polygon fill="#191970" stroke="#191970" points="297.3845,-127.5001 307.3844,-124 297.3844,-120.5001 297.3845,-127.5001"/>
</g>
<!-- Node65 -->
<g id="node7" class="node">
<title>Node65</title>
<g id="a_node7"><a xlink:href="classTetrisModel.html#af5e86770c46ef2669e26babca6b08e8c" target="_top" xlink:title="TetrisModel::grid">
<polygon fill="#ffffff" stroke="#000000" points="452,-114.5 452,-133.5 541,-133.5 541,-114.5 452,-114.5"/>
<text text-anchor="middle" x="496.5" y="-121.5" font-family="Helvetica,sans-Serif" font-size="10.00" fill="#000000">TetrisModel::grid</text>
</a>
</g>
</g>
<!-- Node64&#45;&gt;Node65 -->
<g id="edge6" class="edge">
<title>Node64&#45;&gt;Node65</title>
<path fill="none" stroke="#191970" d="M396.5338,-124C410.8176,-124 426.805,-124 441.7329,-124"/>
<polygon fill="#191970" stroke="#191970" points="441.8645,-127.5001 451.8645,-124 441.8644,-120.5001 441.8645,-127.5001"/>
</g>
<!-- Node67&#45;&gt;Node63 -->
<g id="edge11" class="edge">
<title>Node67&#45;&gt;Node63</title>
<path fill="none" stroke="#191970" d="M230.8794,-57.589C254.9922,-63.2451 285.451,-70.3897 309.7917,-76.0993"/>
<polygon fill="#191970" stroke="#191970" points="309.2774,-79.5736 319.8124,-78.4498 310.876,-72.7586 309.2774,-79.5736"/>
</g>
<!-- Node68 -->
<g id="node10" class="node">
<title>Node68</title>
<g id="a_node10"><a xlink:href="classGrid.html#a35b4576216863c321adb15e38ed2804b" target="_top" xlink:title="Grid::height">
<polygon fill="#ffffff" stroke="#000000" points="318.5,-38.5 318.5,-57.5 385.5,-57.5 385.5,-38.5 318.5,-38.5"/>
<text text-anchor="middle" x="352" y="-45.5" font-family="Helvetica,sans-Serif" font-size="10.00" fill="#000000">Grid::height</text>
</a>
</g>
</g>
<!-- Node67&#45;&gt;Node68 -->
<g id="edge10" class="edge">
<title>Node67&#45;&gt;Node68</title>
<path fill="none" stroke="#191970" d="M240.8133,-48C262.4048,-48 287.3356,-48 308.111,-48"/>
<polygon fill="#191970" stroke="#191970" points="308.249,-51.5001 318.249,-48 308.249,-44.5001 308.249,-51.5001"/>
</g>
<!-- Node69 -->
<g id="node11" class="node">
<title>Node69</title>
<g id="a_node11"><a xlink:href="classGrid.html#a947680e656b1eeb07e1c140437cfd3fb" target="_top" xlink:title="Grid::cell">
<polygon fill="#ffffff" stroke="#000000" points="324,-.5 324,-19.5 380,-19.5 380,-.5 324,-.5"/>
<text text-anchor="middle" x="352" y="-7.5" font-family="Helvetica,sans-Serif" font-size="10.00" fill="#000000">Grid::cell</text>
</a>
</g>
</g>
<!-- Node67&#45;&gt;Node69 -->
<g id="edge12" class="edge">
<title>Node67&#45;&gt;Node69</title>
<path fill="none" stroke="#191970" d="M230.8794,-38.411C256.418,-32.4205 289.0752,-24.7601 314.0426,-18.9036"/>
<polygon fill="#191970" stroke="#191970" points="314.9494,-22.286 323.8858,-16.5947 313.3508,-15.4709 314.9494,-22.286"/>
</g>
</g>
</svg>
