<?xml version="1.0" encoding="UTF-8" standalone="no"?>
<!DOCTYPE svg PUBLIC "-//W3C//DTD SVG 1.1//EN"
 "http://www.w3.org/Graphics/SVG/1.1/DTD/svg11.dtd">
<!-- Generated by graphviz version 2.40.1 (20161225.0304)
 -->
<!-- Title: GameOverModel::step Pages: 1 -->
<svg width="455pt" height="28pt"
 viewBox="0.00 0.00 455.00 28.00" xmlns="http://www.w3.org/2000/svg" xmlns:xlink="http://www.w3.org/1999/xlink">
<g id="graph0" class="graph" transform="scale(1 1) rotate(0) translate(4 24)">
<title>GameOverModel::step</title>
<polygon fill="#ffffff" stroke="transparent" points="-4,4 -4,-24 451,-24 451,4 -4,4"/>
<!-- Node22 -->
<g id="node1" class="node">
<title>Node22</title>
<polygon fill="#bfbfbf" stroke="#000000" points="0,-.5 0,-19.5 115,-19.5 115,-.5 0,-.5"/>
<text text-anchor="middle" x="57.5" y="-7.5" font-family="Helvetica,sans-Serif" font-size="10.00" fill="#000000">GameOverModel::step</text>
</g>
<!-- Node23 -->
<g id="node2" class="node">
<title>Node23</title>
<g id="a_node2"><a xlink:href="classGameOverModel.html#ae35b062d76b100f5646a1a68f696f34a" target="_top" xlink:title="GameOverModel::gameOver">
<polygon fill="#ffffff" stroke="#000000" points="151,-.5 151,-19.5 292,-19.5 292,-.5 151,-.5"/>
<text text-anchor="middle" x="221.5" y="-7.5" font-family="Helvetica,sans-Serif" font-size="10.00" fill="#000000">GameOverModel::gameOver</text>
</a>
</g>
</g>
<!-- Node22&#45;&gt;Node23 -->
<g id="edge1" class="edge">
<title>Node22&#45;&gt;Node23</title>
<path fill="none" stroke="#191970" d="M115.3203,-10C123.6056,-10 132.2527,-10 140.8794,-10"/>
<polygon fill="#191970" stroke="#191970" points="140.9742,-13.5001 150.9742,-10 140.9742,-6.5001 140.9742,-13.5001"/>
</g>
<!-- Node24 -->
<g id="node3" class="node">
<title>Node24</title>
<g id="a_node3"><a xlink:href="classBlockModel.html#aef547dbab9302cd2263f847386044bc5" target="_top" xlink:title="BlockModel::gameOver">
<polygon fill="#ffffff" stroke="#000000" points="328,-.5 328,-19.5 447,-19.5 447,-.5 328,-.5"/>
<text text-anchor="middle" x="387.5" y="-7.5" font-family="Helvetica,sans-Serif" font-size="10.00" fill="#000000">BlockModel::gameOver</text>
</a>
</g>
</g>
<!-- Node23&#45;&gt;Node24 -->
<g id="edge2" class="edge">
<title>Node23&#45;&gt;Node24</title>
<path fill="none" stroke="#191970" d="M292.3804,-10C300.7754,-10 309.3394,-10 317.719,-10"/>
<polygon fill="#191970" stroke="#191970" points="317.8249,-13.5001 327.8249,-10 317.8248,-6.5001 317.8249,-13.5001"/>
</g>
</g>
</svg>
