<?xml version="1.0" encoding="UTF-8" standalone="no"?>
<!DOCTYPE svg PUBLIC "-//W3C//DTD SVG 1.1//EN"
 "http://www.w3.org/Graphics/SVG/1.1/DTD/svg11.dtd">
<!-- Generated by graphviz version 2.40.1 (20161225.0304)
 -->
<!-- Title: LevelModel Pages: 1 -->
<svg width="142pt" height="204pt"
 viewBox="0.00 0.00 141.50 204.00" xmlns="http://www.w3.org/2000/svg" xmlns:xlink="http://www.w3.org/1999/xlink">
<g id="graph0" class="graph" transform="scale(1 1) rotate(0) translate(4 200)">
<title>LevelModel</title>
<polygon fill="#ffffff" stroke="transparent" points="-4,4 -4,-200 137.5,-200 137.5,4 -4,4"/>
<!-- Node0 -->
<g id="node1" class="node">
<title>Node0</title>
<polygon fill="#bfbfbf" stroke="#000000" points="23.5,-.5 23.5,-79.5 104.5,-79.5 104.5,-.5 23.5,-.5"/>
<text text-anchor="middle" x="64" y="-67.5" font-family="Helvetica,sans-Serif" font-size="10.00" fill="#000000">LevelModel</text>
<polyline fill="none" stroke="#000000" points="23.5,-60.5 104.5,-60.5 "/>
<text text-anchor="middle" x="64" y="-48.5" font-family="Helvetica,sans-Serif" font-size="10.00" fill="#000000"> </text>
<polyline fill="none" stroke="#000000" points="23.5,-41.5 104.5,-41.5 "/>
<text text-anchor="start" x="31.5" y="-29.5" font-family="Helvetica,sans-Serif" font-size="10.00" fill="#000000">+ LevelModel()</text>
<text text-anchor="start" x="31.5" y="-18.5" font-family="Helvetica,sans-Serif" font-size="10.00" fill="#000000">+ step()</text>
<text text-anchor="start" x="31.5" y="-7.5" font-family="Helvetica,sans-Serif" font-size="10.00" fill="#000000">+ level()</text>
</g>
<!-- Node1 -->
<g id="node2" class="node">
<title>Node1</title>
<g id="a_node2"><a xlink:href="classModel.html" target="_top" xlink:title="{Model\n||+ step()\l+ alive()\l+ kill()\l}">
<polygon fill="#ffffff" stroke="#000000" points="0,-116.5 0,-195.5 52,-195.5 52,-116.5 0,-116.5"/>
<text text-anchor="middle" x="26" y="-183.5" font-family="Helvetica,sans-Serif" font-size="10.00" fill="#000000">Model</text>
<polyline fill="none" stroke="#000000" points="0,-176.5 52,-176.5 "/>
<text text-anchor="middle" x="26" y="-164.5" font-family="Helvetica,sans-Serif" font-size="10.00" fill="#000000"> </text>
<polyline fill="none" stroke="#000000" points="0,-157.5 52,-157.5 "/>
<text text-anchor="start" x="8" y="-145.5" font-family="Helvetica,sans-Serif" font-size="10.00" fill="#000000">+ step()</text>
<text text-anchor="start" x="8" y="-134.5" font-family="Helvetica,sans-Serif" font-size="10.00" fill="#000000">+ alive()</text>
<text text-anchor="start" x="8" y="-123.5" font-family="Helvetica,sans-Serif" font-size="10.00" fill="#000000">+ kill()</text>
</a>
</g>
</g>
<!-- Node1&#45;&gt;Node0 -->
<g id="edge1" class="edge">
<title>Node1&#45;&gt;Node0</title>
<path fill="none" stroke="#191970" d="M42.1201,-106.7913C45.0691,-97.7891 48.1129,-88.4976 50.9583,-79.8116"/>
<polygon fill="none" stroke="#191970" points="38.7582,-105.8111 38.9712,-116.4038 45.4104,-107.9903 38.7582,-105.8111"/>
</g>
<!-- Node2 -->
<g id="node3" class="node">
<title>Node2</title>
<g id="a_node3"><a xlink:href="classPauseble.html" target="_top" xlink:title="{Pauseble\n||+ paused()\l+ paused()\l}">
<polygon fill="#ffffff" stroke="#000000" points="70.5,-122 70.5,-190 133.5,-190 133.5,-122 70.5,-122"/>
<text text-anchor="middle" x="102" y="-178" font-family="Helvetica,sans-Serif" font-size="10.00" fill="#000000">Pauseble</text>
<polyline fill="none" stroke="#000000" points="70.5,-171 133.5,-171 "/>
<text text-anchor="middle" x="102" y="-159" font-family="Helvetica,sans-Serif" font-size="10.00" fill="#000000"> </text>
<polyline fill="none" stroke="#000000" points="70.5,-152 133.5,-152 "/>
<text text-anchor="start" x="78.5" y="-140" font-family="Helvetica,sans-Serif" font-size="10.00" fill="#000000">+ paused()</text>
<text text-anchor="start" x="78.5" y="-129" font-family="Helvetica,sans-Serif" font-size="10.00" fill="#000000">+ paused()</text>
</a>
</g>
</g>
<!-- Node2&#45;&gt;Node0 -->
<g id="edge2" class="edge">
<title>Node2&#45;&gt;Node0</title>
<path fill="none" stroke="#191970" d="M87.6632,-112.235C84.1576,-101.5336 80.4262,-90.1432 76.9878,-79.6468"/>
<polygon fill="none" stroke="#191970" points="84.365,-113.4101 90.8043,-121.8236 91.0172,-111.2309 84.365,-113.4101"/>
</g>
</g>
</svg>
