<?xml version="1.0" encoding="UTF-8" standalone="no"?>
<!DOCTYPE svg PUBLIC "-//W3C//DTD SVG 1.1//EN"
 "http://www.w3.org/Graphics/SVG/1.1/DTD/svg11.dtd">
<!-- Generated by graphviz version 2.40.1 (20161225.0304)
 -->
<!-- Title: TetrisModel::stamp Pages: 1 -->
<svg width="212pt" height="104pt"
 viewBox="0.00 0.00 212.00 104.00" xmlns="http://www.w3.org/2000/svg" xmlns:xlink="http://www.w3.org/1999/xlink">
<g id="graph0" class="graph" transform="scale(1 1) rotate(0) translate(4 100)">
<title>TetrisModel::stamp</title>
<polygon fill="#ffffff" stroke="transparent" points="-4,4 -4,-100 208,-100 208,4 -4,4"/>
<!-- Node28 -->
<g id="node1" class="node">
<title>Node28</title>
<polygon fill="#bfbfbf" stroke="#000000" points="0,-38.5 0,-57.5 101,-57.5 101,-38.5 0,-38.5"/>
<text text-anchor="middle" x="50.5" y="-45.5" font-family="Helvetica,sans-Serif" font-size="10.00" fill="#000000">TetrisModel::stamp</text>
</g>
<!-- Node29 -->
<g id="node2" class="node">
<title>Node29</title>
<g id="a_node2"><a xlink:href="classGrid.html#a35b4576216863c321adb15e38ed2804b" target="_top" xlink:title="Grid::height">
<polygon fill="#ffffff" stroke="#000000" points="137,-76.5 137,-95.5 204,-95.5 204,-76.5 137,-76.5"/>
<text text-anchor="middle" x="170.5" y="-83.5" font-family="Helvetica,sans-Serif" font-size="10.00" fill="#000000">Grid::height</text>
</a>
</g>
</g>
<!-- Node28&#45;&gt;Node29 -->
<g id="edge1" class="edge">
<title>Node28&#45;&gt;Node29</title>
<path fill="none" stroke="#191970" d="M80.7811,-57.589C95.8456,-62.3594 114.254,-68.1888 130.467,-73.3229"/>
<polygon fill="#191970" stroke="#191970" points="129.6385,-76.7318 140.2286,-76.4141 131.7518,-70.0584 129.6385,-76.7318"/>
</g>
<!-- Node30 -->
<g id="node3" class="node">
<title>Node30</title>
<g id="a_node3"><a xlink:href="classGrid.html#a48a0cbb4dee8eb8e1c56f4d85d1f971b" target="_top" xlink:title="Grid::width">
<polygon fill="#ffffff" stroke="#000000" points="138.5,-38.5 138.5,-57.5 202.5,-57.5 202.5,-38.5 138.5,-38.5"/>
<text text-anchor="middle" x="170.5" y="-45.5" font-family="Helvetica,sans-Serif" font-size="10.00" fill="#000000">Grid::width</text>
</a>
</g>
</g>
<!-- Node28&#45;&gt;Node30 -->
<g id="edge2" class="edge">
<title>Node28&#45;&gt;Node30</title>
<path fill="none" stroke="#191970" d="M101.043,-48C110.1586,-48 119.5728,-48 128.4155,-48"/>
<polygon fill="#191970" stroke="#191970" points="128.4814,-51.5001 138.4814,-48 128.4813,-44.5001 128.4814,-51.5001"/>
</g>
<!-- Node31 -->
<g id="node4" class="node">
<title>Node31</title>
<g id="a_node4"><a xlink:href="classGrid.html#a947680e656b1eeb07e1c140437cfd3fb" target="_top" xlink:title="Grid::cell">
<polygon fill="#ffffff" stroke="#000000" points="142.5,-.5 142.5,-19.5 198.5,-19.5 198.5,-.5 142.5,-.5"/>
<text text-anchor="middle" x="170.5" y="-7.5" font-family="Helvetica,sans-Serif" font-size="10.00" fill="#000000">Grid::cell</text>
</a>
</g>
</g>
<!-- Node28&#45;&gt;Node31 -->
<g id="edge3" class="edge">
<title>Node28&#45;&gt;Node31</title>
<path fill="none" stroke="#191970" d="M80.7811,-38.411C96.4205,-33.4585 115.6641,-27.3647 132.3135,-22.0924"/>
<polygon fill="#191970" stroke="#191970" points="133.8127,-25.289 142.2895,-18.9333 131.6994,-18.6156 133.8127,-25.289"/>
</g>
</g>
</svg>
