<?xml version="1.0" encoding="UTF-8" standalone="no"?>
<!DOCTYPE svg PUBLIC "-//W3C//DTD SVG 1.1//EN"
 "http://www.w3.org/Graphics/SVG/1.1/DTD/svg11.dtd">
<!-- Generated by graphviz version 2.40.1 (20161225.0304)
 -->
<!-- Title: LevelModel::level Pages: 1 -->
<svg width="249pt" height="104pt"
 viewBox="0.00 0.00 249.00 104.00" xmlns="http://www.w3.org/2000/svg" xmlns:xlink="http://www.w3.org/1999/xlink">
<g id="graph0" class="graph" transform="scale(1 1) rotate(0) translate(4 100)">
<title>LevelModel::level</title>
<polygon fill="#ffffff" stroke="transparent" points="-4,4 -4,-100 245,-100 245,4 -4,4"/>
<!-- Node3 -->
<g id="node1" class="node">
<title>Node3</title>
<polygon fill="#bfbfbf" stroke="#000000" points="0,-38.5 0,-57.5 92,-57.5 92,-38.5 0,-38.5"/>
<text text-anchor="middle" x="46" y="-45.5" font-family="Helvetica,sans-Serif" font-size="10.00" fill="#000000">LevelModel::level</text>
</g>
<!-- Node4 -->
<g id="node2" class="node">
<title>Node4</title>
<g id="a_node2"><a xlink:href="classLevelRenderer.html#af34399598a6aca3acbaebc681bb688ca" target="_top" xlink:title="LevelRenderer::render">
<polygon fill="#ffffff" stroke="#000000" points="128,-76.5 128,-95.5 241,-95.5 241,-76.5 128,-76.5"/>
<text text-anchor="middle" x="184.5" y="-83.5" font-family="Helvetica,sans-Serif" font-size="10.00" fill="#000000">LevelRenderer::render</text>
</a>
</g>
</g>
<!-- Node3&#45;&gt;Node4 -->
<g id="edge1" class="edge">
<title>Node3&#45;&gt;Node4</title>
<path fill="none" stroke="#191970" d="M90.6342,-60.2462C109.7247,-65.484 131.6845,-71.5091 149.5618,-76.4141"/>
<polygon fill="#191970" stroke="#191970" points="91.5191,-56.8597 80.9494,-57.589 89.6669,-63.6102 91.5191,-56.8597"/>
</g>
<!-- Node5 -->
<g id="node3" class="node">
<title>Node5</title>
<g id="a_node3"><a xlink:href="classLevelAudio.html#acf24e8bb1b23ead172663859220e6cab" target="_top" xlink:title="LevelAudio::update">
<polygon fill="#ffffff" stroke="#000000" points="134.5,-38.5 134.5,-57.5 234.5,-57.5 234.5,-38.5 134.5,-38.5"/>
<text text-anchor="middle" x="184.5" y="-45.5" font-family="Helvetica,sans-Serif" font-size="10.00" fill="#000000">LevelAudio::update</text>
</a>
</g>
</g>
<!-- Node3&#45;&gt;Node5 -->
<g id="edge2" class="edge">
<title>Node3&#45;&gt;Node5</title>
<path fill="none" stroke="#191970" d="M102.1524,-48C112.7904,-48 123.8565,-48 134.2964,-48"/>
<polygon fill="#191970" stroke="#191970" points="102.1185,-44.5001 92.1185,-48 102.1185,-51.5001 102.1185,-44.5001"/>
</g>
<!-- Node6 -->
<g id="node4" class="node">
<title>Node6</title>
<g id="a_node4"><a xlink:href="classLevelModel.html#ae747d35c0d254c6ec8eebbacf0846a10" target="_top" xlink:title="LevelModel::step">
<polygon fill="#ffffff" stroke="#000000" points="139,-.5 139,-19.5 230,-19.5 230,-.5 139,-.5"/>
<text text-anchor="middle" x="184.5" y="-7.5" font-family="Helvetica,sans-Serif" font-size="10.00" fill="#000000">LevelModel::step</text>
</a>
</g>
</g>
<!-- Node3&#45;&gt;Node6 -->
<g id="edge3" class="edge">
<title>Node3&#45;&gt;Node6</title>
<path fill="none" stroke="#191970" d="M90.6342,-35.7538C109.7247,-30.516 131.6845,-24.4909 149.5618,-19.5859"/>
<polygon fill="#191970" stroke="#191970" points="89.6669,-32.3898 80.9494,-38.411 91.5191,-39.1403 89.6669,-32.3898"/>
</g>
</g>
</svg>
