<?xml version="1.0" encoding="UTF-8" standalone="no"?>
<!DOCTYPE svg PUBLIC "-//W3C//DTD SVG 1.1//EN"
 "http://www.w3.org/Graphics/SVG/1.1/DTD/svg11.dtd">
<!-- Generated by graphviz version 2.40.1 (20161225.0304)
 -->
<!-- Title: TetrisModel::step Pages: 1 -->
<svg width="377pt" height="218pt"
 viewBox="0.00 0.00 377.00 218.00" xmlns="http://www.w3.org/2000/svg" xmlns:xlink="http://www.w3.org/1999/xlink">
<g id="graph0" class="graph" transform="scale(1 1) rotate(0) translate(4 214)">
<title>TetrisModel::step</title>
<polygon fill="#ffffff" stroke="transparent" points="-4,4 -4,-214 373,-214 373,4 -4,4"/>
<!-- Node34 -->
<g id="node1" class="node">
<title>Node34</title>
<polygon fill="#bfbfbf" stroke="#000000" points="0,-95.5 0,-114.5 92,-114.5 92,-95.5 0,-95.5"/>
<text text-anchor="middle" x="46" y="-102.5" font-family="Helvetica,sans-Serif" font-size="10.00" fill="#000000">TetrisModel::step</text>
</g>
<!-- Node35 -->
<g id="node2" class="node">
<title>Node35</title>
<g id="a_node2"><a xlink:href="classPauseble.html#a835af175a9252782c6ec90972e83db6e" target="_top" xlink:title="Pauseble::paused">
<polygon fill="#ffffff" stroke="#000000" points="155,-190.5 155,-209.5 250,-209.5 250,-190.5 155,-190.5"/>
<text text-anchor="middle" x="202.5" y="-197.5" font-family="Helvetica,sans-Serif" font-size="10.00" fill="#000000">Pauseble::paused</text>
</a>
</g>
</g>
<!-- Node34&#45;&gt;Node35 -->
<g id="edge1" class="edge">
<title>Node34&#45;&gt;Node35</title>
<path fill="none" stroke="#191970" d="M53.4995,-114.5447C66.7508,-130.7428 95.9509,-163.5507 128,-181 133.2571,-183.8622 138.9584,-186.3047 144.787,-188.3867"/>
<polygon fill="#191970" stroke="#191970" points="144.069,-191.8322 154.6604,-191.5606 146.2113,-185.1681 144.069,-191.8322"/>
</g>
<!-- Node36 -->
<g id="node3" class="node">
<title>Node36</title>
<g id="a_node3"><a xlink:href="classGrid.html#a35b4576216863c321adb15e38ed2804b" target="_top" xlink:title="Grid::height">
<polygon fill="#ffffff" stroke="#000000" points="169,-152.5 169,-171.5 236,-171.5 236,-152.5 169,-152.5"/>
<text text-anchor="middle" x="202.5" y="-159.5" font-family="Helvetica,sans-Serif" font-size="10.00" fill="#000000">Grid::height</text>
</a>
</g>
</g>
<!-- Node34&#45;&gt;Node36 -->
<g id="edge2" class="edge">
<title>Node34&#45;&gt;Node36</title>
<path fill="none" stroke="#191970" d="M64.1571,-114.5963C80.5102,-122.9511 105.3826,-134.9527 128,-143 137.8091,-146.4901 148.5569,-149.6172 158.7608,-152.2786"/>
<polygon fill="#191970" stroke="#191970" points="158.1773,-155.7407 168.7285,-154.781 159.8817,-148.9513 158.1773,-155.7407"/>
</g>
<!-- Node37 -->
<g id="node4" class="node">
<title>Node37</title>
<g id="a_node4"><a xlink:href="classGrid.html#a48a0cbb4dee8eb8e1c56f4d85d1f971b" target="_top" xlink:title="Grid::width">
<polygon fill="#ffffff" stroke="#000000" points="170.5,-114.5 170.5,-133.5 234.5,-133.5 234.5,-114.5 170.5,-114.5"/>
<text text-anchor="middle" x="202.5" y="-121.5" font-family="Helvetica,sans-Serif" font-size="10.00" fill="#000000">Grid::width</text>
</a>
</g>
</g>
<!-- Node34&#45;&gt;Node37 -->
<g id="edge3" class="edge">
<title>Node34&#45;&gt;Node37</title>
<path fill="none" stroke="#191970" d="M92.1087,-110.5979C113.6493,-113.213 139.1229,-116.3057 160.1692,-118.8608"/>
<polygon fill="#191970" stroke="#191970" points="159.7597,-122.3367 170.1087,-120.0675 160.6035,-115.3877 159.7597,-122.3367"/>
</g>
<!-- Node38 -->
<g id="node5" class="node">
<title>Node38</title>
<g id="a_node5"><a xlink:href="classGrid.html#a947680e656b1eeb07e1c140437cfd3fb" target="_top" xlink:title="Grid::cell">
<polygon fill="#ffffff" stroke="#000000" points="313,-57.5 313,-76.5 369,-76.5 369,-57.5 313,-57.5"/>
<text text-anchor="middle" x="341" y="-64.5" font-family="Helvetica,sans-Serif" font-size="10.00" fill="#000000">Grid::cell</text>
</a>
</g>
</g>
<!-- Node34&#45;&gt;Node38 -->
<g id="edge4" class="edge">
<title>Node34&#45;&gt;Node38</title>
<path fill="none" stroke="#191970" d="M92.0938,-99.0625C150.1273,-91.587 248.7532,-78.8826 302.7929,-71.9216"/>
<polygon fill="#191970" stroke="#191970" points="303.5103,-75.3582 312.9812,-70.6092 302.6159,-68.4156 303.5103,-75.3582"/>
</g>
<!-- Node39 -->
<g id="node6" class="node">
<title>Node39</title>
<g id="a_node6"><a xlink:href="classGrid.html#a6766c64ee144373f5cec3a61db452a0c" target="_top" xlink:title="Grid::swapCells">
<polygon fill="#ffffff" stroke="#000000" points="159.5,-38.5 159.5,-57.5 245.5,-57.5 245.5,-38.5 159.5,-38.5"/>
<text text-anchor="middle" x="202.5" y="-45.5" font-family="Helvetica,sans-Serif" font-size="10.00" fill="#000000">Grid::swapCells</text>
</a>
</g>
</g>
<!-- Node34&#45;&gt;Node39 -->
<g id="edge5" class="edge">
<title>Node34&#45;&gt;Node39</title>
<path fill="none" stroke="#191970" d="M68.4576,-95.4613C84.8441,-88.6243 107.6532,-79.361 128,-72 138.7615,-68.1067 150.5054,-64.1776 161.4205,-60.6576"/>
<polygon fill="#191970" stroke="#191970" points="162.6953,-63.9248 171.1597,-57.5527 160.569,-57.2555 162.6953,-63.9248"/>
</g>
<!-- Node40 -->
<g id="node7" class="node">
<title>Node40</title>
<g id="a_node7"><a xlink:href="classTetrisModel.html#a92a7b2727d0e8712ead588b35338cabd" target="_top" xlink:title="TetrisModel::updateHighScore">
<polygon fill="#ffffff" stroke="#000000" points="128,-.5 128,-19.5 277,-19.5 277,-.5 128,-.5"/>
<text text-anchor="middle" x="202.5" y="-7.5" font-family="Helvetica,sans-Serif" font-size="10.00" fill="#000000">TetrisModel::updateHighScore</text>
</a>
</g>
</g>
<!-- Node34&#45;&gt;Node40 -->
<g id="edge7" class="edge">
<title>Node34&#45;&gt;Node40</title>
<path fill="none" stroke="#191970" d="M53.4995,-95.4553C66.7508,-79.2572 95.9509,-46.4493 128,-29 132.246,-26.6883 136.7817,-24.6503 141.4403,-22.855"/>
<polygon fill="#191970" stroke="#191970" points="142.8185,-26.0817 151.1216,-19.5006 140.5268,-19.4675 142.8185,-26.0817"/>
</g>
<!-- Node39&#45;&gt;Node38 -->
<g id="edge6" class="edge">
<title>Node39&#45;&gt;Node38</title>
<path fill="none" stroke="#191970" d="M245.5631,-53.9076C263.884,-56.4209 285.0728,-59.3277 302.8245,-61.7629"/>
<polygon fill="#191970" stroke="#191970" points="302.4487,-65.2441 312.8316,-63.1357 303.4001,-58.309 302.4487,-65.2441"/>
</g>
</g>
</svg>
