<?xml version="1.0" encoding="UTF-8" standalone="no"?>
<!DOCTYPE svg PUBLIC "-//W3C//DTD SVG 1.1//EN"
 "http://www.w3.org/Graphics/SVG/1.1/DTD/svg11.dtd">
<!-- Generated by graphviz version 2.40.1 (20161225.0304)
 -->
<!-- Title: PauseMenuModel::paused Pages: 1 -->
<svg width="304pt" height="78pt"
 viewBox="0.00 0.00 304.00 77.50" xmlns="http://www.w3.org/2000/svg" xmlns:xlink="http://www.w3.org/1999/xlink">
<g id="graph0" class="graph" transform="scale(1 1) rotate(0) translate(4 73.5)">
<title>PauseMenuModel::paused</title>
<polygon fill="#ffffff" stroke="transparent" points="-4,4 -4,-73.5 300,-73.5 300,4 -4,4"/>
<!-- Node12 -->
<g id="node1" class="node">
<title>Node12</title>
<polygon fill="#bfbfbf" stroke="#000000" points="0,-22.5 0,-41.5 132,-41.5 132,-22.5 0,-22.5"/>
<text text-anchor="middle" x="66" y="-29.5" font-family="Helvetica,sans-Serif" font-size="10.00" fill="#000000">PauseMenuModel::paused</text>
</g>
<!-- Node13 -->
<g id="node2" class="node">
<title>Node13</title>
<g id="a_node2"><a xlink:href="classPauseMenuRenderer.html#ac01a84b10b42bce394419ebe02175065" target="_top" xlink:title="PauseMenuRenderer::\lrender">
<polygon fill="#ffffff" stroke="#000000" points="175,-39 175,-69 289,-69 289,-39 175,-39"/>
<text text-anchor="start" x="183" y="-57" font-family="Helvetica,sans-Serif" font-size="10.00" fill="#000000">PauseMenuRenderer::</text>
<text text-anchor="middle" x="232" y="-46" font-family="Helvetica,sans-Serif" font-size="10.00" fill="#000000">render</text>
</a>
</g>
</g>
<!-- Node12&#45;&gt;Node13 -->
<g id="edge1" class="edge">
<title>Node12&#45;&gt;Node13</title>
<path fill="none" stroke="#191970" d="M142.1564,-42.093C153.198,-43.5564 164.4022,-45.0412 174.9802,-46.4432"/>
<polygon fill="#191970" stroke="#191970" points="142.4578,-38.6024 132.0846,-40.7582 141.538,-45.5418 142.4578,-38.6024"/>
</g>
<!-- Node14 -->
<g id="node3" class="node">
<title>Node14</title>
<g id="a_node3"><a xlink:href="classPauseMenuAudio.html#a3cf3964a33c1fac2c7dc0f37a78a0acb" target="_top" xlink:title="PauseMenuAudio::update">
<polygon fill="#ffffff" stroke="#000000" points="168,-.5 168,-19.5 296,-19.5 296,-.5 168,-.5"/>
<text text-anchor="middle" x="232" y="-7.5" font-family="Helvetica,sans-Serif" font-size="10.00" fill="#000000">PauseMenuAudio::update</text>
</a>
</g>
</g>
<!-- Node12&#45;&gt;Node14 -->
<g id="edge2" class="edge">
<title>Node12&#45;&gt;Node14</title>
<path fill="none" stroke="#191970" d="M142.0918,-21.9155C150.6743,-20.7781 159.3559,-19.6275 167.7662,-18.5129"/>
<polygon fill="#191970" stroke="#191970" points="141.538,-18.4582 132.0846,-23.2418 142.4578,-25.3976 141.538,-18.4582"/>
</g>
</g>
</svg>
