<?xml version="1.0" encoding="UTF-8" standalone="no"?>
<!DOCTYPE svg PUBLIC "-//W3C//DTD SVG 1.1//EN"
 "http://www.w3.org/Graphics/SVG/1.1/DTD/svg11.dtd">
<!-- Generated by graphviz version 2.40.1 (20161225.0304)
 -->
<!-- Title: Graphical Class Hierarchy Pages: 1 -->
<svg width="196pt" height="180pt"
 viewBox="0.00 0.00 196.00 180.00" xmlns="http://www.w3.org/2000/svg" xmlns:xlink="http://www.w3.org/1999/xlink">
<g id="graph0" class="graph" transform="scale(1 1) rotate(0) translate(4 176)">
<title>Graphical Class Hierarchy</title>
<polygon fill="#ffffff" stroke="transparent" points="-4,4 -4,-176 192,-176 192,4 -4,4"/>
<!-- Node13 -->
<g id="node1" class="node">
<title>Node13</title>
<g id="a_node1"><a xlink:href="classModel.html" target="_top" xlink:title="Model">
<polygon fill="#ffffff" stroke="#000000" points="7,-76.5 7,-95.5 50,-95.5 50,-76.5 7,-76.5"/>
<text text-anchor="middle" x="28.5" y="-83.5" font-family="Helvetica,sans-Serif" font-size="10.00" fill="#000000">Model</text>
</a>
</g>
</g>
<!-- Node1 -->
<g id="node2" class="node">
<title>Node1</title>
<g id="a_node2"><a xlink:href="classBlockModel.html" target="_top" xlink:title="BlockModel">
<polygon fill="#ffffff" stroke="#000000" points="106.5,-152.5 106.5,-171.5 174.5,-171.5 174.5,-152.5 106.5,-152.5"/>
<text text-anchor="middle" x="140.5" y="-159.5" font-family="Helvetica,sans-Serif" font-size="10.00" fill="#000000">BlockModel</text>
</a>
</g>
</g>
<!-- Node13&#45;&gt;Node1 -->
<g id="edge1" class="edge">
<title>Node13&#45;&gt;Node1</title>
<path fill="none" stroke="#191970" d="M52.7923,-101.6396C54.2418,-102.7426 55.6557,-103.8672 57,-105 74.7905,-119.9911 73.7527,-129.9319 93,-143 98.4376,-146.6919 104.7006,-149.837 110.8574,-152.443"/>
<polygon fill="#191970" stroke="#191970" points="54.5209,-98.5748 44.3382,-95.6483 50.4734,-104.2861 54.5209,-98.5748"/>
</g>
<!-- Node14 -->
<g id="node3" class="node">
<title>Node14</title>
<g id="a_node3"><a xlink:href="classGameOverModel.html" target="_top" xlink:title="GameOverModel">
<polygon fill="#ffffff" stroke="#000000" points="95.5,-.5 95.5,-19.5 185.5,-19.5 185.5,-.5 95.5,-.5"/>
<text text-anchor="middle" x="140.5" y="-7.5" font-family="Helvetica,sans-Serif" font-size="10.00" fill="#000000">GameOverModel</text>
</a>
</g>
</g>
<!-- Node13&#45;&gt;Node14 -->
<g id="edge2" class="edge">
<title>Node13&#45;&gt;Node14</title>
<path fill="none" stroke="#191970" d="M44.5408,-68.9695C56.8788,-56.6193 74.8393,-40.1876 93,-29 98.8984,-25.3664 105.6121,-22.1831 112.0967,-19.5132"/>
<polygon fill="#191970" stroke="#191970" points="41.7723,-66.7954 37.2993,-76.3998 46.7854,-71.6811 41.7723,-66.7954"/>
</g>
<!-- Node2 -->
<g id="node4" class="node">
<title>Node2</title>
<g id="a_node4"><a xlink:href="classLevelModel.html" target="_top" xlink:title="LevelModel">
<polygon fill="#ffffff" stroke="#000000" points="107.5,-114.5 107.5,-133.5 173.5,-133.5 173.5,-114.5 107.5,-114.5"/>
<text text-anchor="middle" x="140.5" y="-121.5" font-family="Helvetica,sans-Serif" font-size="10.00" fill="#000000">LevelModel</text>
</a>
</g>
</g>
<!-- Node13&#45;&gt;Node2 -->
<g id="edge3" class="edge">
<title>Node13&#45;&gt;Node2</title>
<path fill="none" stroke="#191970" d="M59.8003,-96.6198C76.2332,-102.1952 96.2146,-108.9746 112.1834,-114.3926"/>
<polygon fill="#191970" stroke="#191970" points="60.6891,-93.2254 50.0947,-93.3268 58.44,-99.8542 60.6891,-93.2254"/>
</g>
<!-- Node15 -->
<g id="node5" class="node">
<title>Node15</title>
<g id="a_node5"><a xlink:href="classPauseMenuModel.html" target="_top" xlink:title="PauseMenuModel">
<polygon fill="#ffffff" stroke="#000000" points="93,-38.5 93,-57.5 188,-57.5 188,-38.5 93,-38.5"/>
<text text-anchor="middle" x="140.5" y="-45.5" font-family="Helvetica,sans-Serif" font-size="10.00" fill="#000000">PauseMenuModel</text>
</a>
</g>
</g>
<!-- Node13&#45;&gt;Node15 -->
<g id="edge4" class="edge">
<title>Node13&#45;&gt;Node15</title>
<path fill="none" stroke="#191970" d="M59.8003,-75.3802C76.2332,-69.8048 96.2146,-63.0254 112.1834,-57.6074"/>
<polygon fill="#191970" stroke="#191970" points="58.44,-72.1458 50.0947,-78.6732 60.6891,-78.7746 58.44,-72.1458"/>
</g>
<!-- Node3 -->
<g id="node6" class="node">
<title>Node3</title>
<g id="a_node6"><a xlink:href="classTetrisModel.html" target="_top" xlink:title="TetrisModel">
<polygon fill="#ffffff" stroke="#000000" points="106.5,-76.5 106.5,-95.5 174.5,-95.5 174.5,-76.5 106.5,-76.5"/>
<text text-anchor="middle" x="140.5" y="-83.5" font-family="Helvetica,sans-Serif" font-size="10.00" fill="#000000">TetrisModel</text>
</a>
</g>
</g>
<!-- Node13&#45;&gt;Node3 -->
<g id="edge5" class="edge">
<title>Node13&#45;&gt;Node3</title>
<path fill="none" stroke="#191970" d="M60.4445,-86C74.7435,-86 91.626,-86 106.1924,-86"/>
<polygon fill="#191970" stroke="#191970" points="60.0948,-82.5001 50.0947,-86 60.0947,-89.5001 60.0948,-82.5001"/>
</g>
<!-- Node0 -->
<g id="node7" class="node">
<title>Node0</title>
<g id="a_node7"><a xlink:href="classPauseble.html" target="_top" xlink:title="Pauseble">
<polygon fill="#ffffff" stroke="#000000" points="0,-114.5 0,-133.5 57,-133.5 57,-114.5 0,-114.5"/>
<text text-anchor="middle" x="28.5" y="-121.5" font-family="Helvetica,sans-Serif" font-size="10.00" fill="#000000">Pauseble</text>
</a>
</g>
</g>
<!-- Node0&#45;&gt;Node1 -->
<g id="edge6" class="edge">
<title>Node0&#45;&gt;Node1</title>
<path fill="none" stroke="#191970" d="M66.3027,-136.8259C81.3308,-141.9247 98.3205,-147.6891 112.2467,-152.4141"/>
<polygon fill="#191970" stroke="#191970" points="67.3567,-133.4876 56.7623,-133.589 65.1076,-140.1165 67.3567,-133.4876"/>
</g>
<!-- Node0&#45;&gt;Node2 -->
<g id="edge7" class="edge">
<title>Node0&#45;&gt;Node2</title>
<path fill="none" stroke="#191970" d="M67.1537,-124C80.1991,-124 94.6381,-124 107.2303,-124"/>
<polygon fill="#191970" stroke="#191970" points="67.0522,-120.5001 57.0521,-124 67.0521,-127.5001 67.0522,-120.5001"/>
</g>
<!-- Node0&#45;&gt;Node3 -->
<g id="edge8" class="edge">
<title>Node0&#45;&gt;Node3</title>
<path fill="none" stroke="#191970" d="M66.3027,-111.1741C81.3308,-106.0753 98.3205,-100.3109 112.2467,-95.5859"/>
<polygon fill="#191970" stroke="#191970" points="65.1076,-107.8835 56.7623,-114.411 67.3567,-114.5124 65.1076,-107.8835"/>
</g>
</g>
</svg>
