<?xml version="1.0" encoding="UTF-8" standalone="no"?>
<!DOCTYPE svg PUBLIC "-//W3C//DTD SVG 1.1//EN"
 "http://www.w3.org/Graphics/SVG/1.1/DTD/svg11.dtd">
<!-- Generated by graphviz version 2.40.1 (20161225.0304)
 -->
<!-- Title: Graphical Class Hierarchy Pages: 1 -->
<svg width="205pt" height="142pt"
 viewBox="0.00 0.00 205.00 142.00" xmlns="http://www.w3.org/2000/svg" xmlns:xlink="http://www.w3.org/1999/xlink">
<g id="graph0" class="graph" transform="scale(1 1) rotate(0) translate(4 138)">
<title>Graphical Class Hierarchy</title>
<polygon fill="#ffffff" stroke="transparent" points="-4,4 -4,-138 201,-138 201,4 -4,4"/>
<!-- Node0 -->
<g id="node1" class="node">
<title>Node0</title>
<g id="a_node1"><a xlink:href="classGameAudio.html" target="_top" xlink:title="GameAudio">
<polygon fill="#ffffff" stroke="#000000" points="0,-57.5 0,-76.5 68,-76.5 68,-57.5 0,-57.5"/>
<text text-anchor="middle" x="34" y="-64.5" font-family="Helvetica,sans-Serif" font-size="10.00" fill="#000000">GameAudio</text>
</a>
</g>
</g>
<!-- Node1 -->
<g id="node2" class="node">
<title>Node1</title>
<g id="a_node2"><a xlink:href="classBlockAudio.html" target="_top" xlink:title="BlockAudio">
<polygon fill="#ffffff" stroke="#000000" points="117.5,-114.5 117.5,-133.5 183.5,-133.5 183.5,-114.5 117.5,-114.5"/>
<text text-anchor="middle" x="150.5" y="-121.5" font-family="Helvetica,sans-Serif" font-size="10.00" fill="#000000">BlockAudio</text>
</a>
</g>
</g>
<!-- Node0&#45;&gt;Node1 -->
<g id="edge1" class="edge">
<title>Node0&#45;&gt;Node1</title>
<path fill="none" stroke="#191970" d="M59.3514,-81.6326C72.4962,-88.9959 88.9176,-97.8512 104,-105 110.9348,-108.287 118.5965,-111.5593 125.666,-114.4386"/>
<polygon fill="#191970" stroke="#191970" points="60.8518,-78.4601 50.425,-76.5804 57.4038,-84.552 60.8518,-78.4601"/>
</g>
<!-- Node2 -->
<g id="node3" class="node">
<title>Node2</title>
<g id="a_node3"><a xlink:href="classLevelAudio.html" target="_top" xlink:title="LevelAudio">
<polygon fill="#ffffff" stroke="#000000" points="118,-76.5 118,-95.5 183,-95.5 183,-76.5 118,-76.5"/>
<text text-anchor="middle" x="150.5" y="-83.5" font-family="Helvetica,sans-Serif" font-size="10.00" fill="#000000">LevelAudio</text>
</a>
</g>
</g>
<!-- Node0&#45;&gt;Node2 -->
<g id="edge2" class="edge">
<title>Node0&#45;&gt;Node2</title>
<path fill="none" stroke="#191970" d="M77.8918,-74.1583C91.1488,-76.3204 105.4639,-78.6551 117.8509,-80.6753"/>
<polygon fill="#191970" stroke="#191970" points="78.4428,-70.702 68.0098,-72.5467 77.316,-77.6107 78.4428,-70.702"/>
</g>
<!-- Node3 -->
<g id="node4" class="node">
<title>Node3</title>
<g id="a_node4"><a xlink:href="classPauseMenuAudio.html" target="_top" xlink:title="PauseMenuAudio">
<polygon fill="#ffffff" stroke="#000000" points="104,-38.5 104,-57.5 197,-57.5 197,-38.5 104,-38.5"/>
<text text-anchor="middle" x="150.5" y="-45.5" font-family="Helvetica,sans-Serif" font-size="10.00" fill="#000000">PauseMenuAudio</text>
</a>
</g>
</g>
<!-- Node0&#45;&gt;Node3 -->
<g id="edge3" class="edge">
<title>Node0&#45;&gt;Node3</title>
<path fill="none" stroke="#191970" d="M77.9884,-59.8259C86.382,-58.457 95.1965,-57.0195 103.6749,-55.6367"/>
<polygon fill="#191970" stroke="#191970" points="77.316,-56.3893 68.0098,-61.4533 78.4428,-63.298 77.316,-56.3893"/>
</g>
<!-- Node4 -->
<g id="node5" class="node">
<title>Node4</title>
<g id="a_node5"><a xlink:href="classTetrisAudio.html" target="_top" xlink:title="TetrisAudio">
<polygon fill="#ffffff" stroke="#000000" points="117.5,-.5 117.5,-19.5 183.5,-19.5 183.5,-.5 117.5,-.5"/>
<text text-anchor="middle" x="150.5" y="-7.5" font-family="Helvetica,sans-Serif" font-size="10.00" fill="#000000">TetrisAudio</text>
</a>
</g>
</g>
<!-- Node0&#45;&gt;Node4 -->
<g id="edge4" class="edge">
<title>Node0&#45;&gt;Node4</title>
<path fill="none" stroke="#191970" d="M59.3514,-52.3674C72.4962,-45.0041 88.9176,-36.1488 104,-29 110.9348,-25.713 118.5965,-22.4407 125.666,-19.5614"/>
<polygon fill="#191970" stroke="#191970" points="57.4038,-49.448 50.425,-57.4196 60.8518,-55.5399 57.4038,-49.448"/>
</g>
</g>
</svg>
