<?xml version="1.0" encoding="UTF-8" standalone="no"?>
<!DOCTYPE svg PUBLIC "-//W3C//DTD SVG 1.1//EN"
 "http://www.w3.org/Graphics/SVG/1.1/DTD/svg11.dtd">
<!-- Generated by graphviz version 2.40.1 (20161225.0304)
 -->
<!-- Title: Graphical Class Hierarchy Pages: 1 -->
<svg width="230pt" height="180pt"
 viewBox="0.00 0.00 230.00 180.00" xmlns="http://www.w3.org/2000/svg" xmlns:xlink="http://www.w3.org/1999/xlink">
<g id="graph0" class="graph" transform="scale(1 1) rotate(0) translate(4 176)">
<title>Graphical Class Hierarchy</title>
<polygon fill="#ffffff" stroke="transparent" points="-4,4 -4,-176 226,-176 226,4 -4,4"/>
<!-- Node0 -->
<g id="node1" class="node">
<title>Node0</title>
<g id="a_node1"><a xlink:href="classInputParser.html" target="_top" xlink:title="InputParser">
<polygon fill="#ffffff" stroke="#000000" points="0,-76.5 0,-95.5 67,-95.5 67,-76.5 0,-76.5"/>
<text text-anchor="middle" x="33.5" y="-83.5" font-family="Helvetica,sans-Serif" font-size="10.00" fill="#000000">InputParser</text>
</a>
</g>
</g>
<!-- Node1 -->
<g id="node2" class="node">
<title>Node1</title>
<g id="a_node2"><a xlink:href="classBlockInputParser.html" target="_top" xlink:title="BlockInputParser">
<polygon fill="#ffffff" stroke="#000000" points="116.5,-152.5 116.5,-171.5 208.5,-171.5 208.5,-152.5 116.5,-152.5"/>
<text text-anchor="middle" x="162.5" y="-159.5" font-family="Helvetica,sans-Serif" font-size="10.00" fill="#000000">BlockInputParser</text>
</a>
</g>
</g>
<!-- Node0&#45;&gt;Node1 -->
<g id="edge1" class="edge">
<title>Node0&#45;&gt;Node1</title>
<path fill="none" stroke="#191970" d="M50.4062,-102.996C63.7102,-115.5511 83.2453,-132.2593 103,-143 109.8592,-146.7294 117.5666,-149.8639 125.1026,-152.4432"/>
<polygon fill="#191970" stroke="#191970" points="52.6,-100.2484 42.9815,-95.806 47.7304,-105.2769 52.6,-100.2484"/>
</g>
<!-- Node2 -->
<g id="node3" class="node">
<title>Node2</title>
<g id="a_node3"><a xlink:href="classGameOverInputParser.html" target="_top" xlink:title="GameOverInputParser">
<polygon fill="#ffffff" stroke="#000000" points="105.5,-114.5 105.5,-133.5 219.5,-133.5 219.5,-114.5 105.5,-114.5"/>
<text text-anchor="middle" x="162.5" y="-121.5" font-family="Helvetica,sans-Serif" font-size="10.00" fill="#000000">GameOverInputParser</text>
</a>
</g>
</g>
<!-- Node0&#45;&gt;Node2 -->
<g id="edge2" class="edge">
<title>Node0&#45;&gt;Node2</title>
<path fill="none" stroke="#191970" d="M76.054,-98.5353C93.603,-103.7048 113.6127,-109.5991 129.9583,-114.4141"/>
<polygon fill="#191970" stroke="#191970" points="76.6336,-95.0574 66.0521,-95.589 74.6556,-101.7721 76.6336,-95.0574"/>
</g>
<!-- Node3 -->
<g id="node4" class="node">
<title>Node3</title>
<g id="a_node4"><a xlink:href="classKillInputParser.html" target="_top" xlink:title="KillInputParser">
<polygon fill="#ffffff" stroke="#000000" points="122.5,-76.5 122.5,-95.5 202.5,-95.5 202.5,-76.5 122.5,-76.5"/>
<text text-anchor="middle" x="162.5" y="-83.5" font-family="Helvetica,sans-Serif" font-size="10.00" fill="#000000">KillInputParser</text>
</a>
</g>
</g>
<!-- Node0&#45;&gt;Node3 -->
<g id="edge3" class="edge">
<title>Node0&#45;&gt;Node3</title>
<path fill="none" stroke="#191970" d="M77.3169,-86C91.8556,-86 107.9622,-86 122.2211,-86"/>
<polygon fill="#191970" stroke="#191970" points="77.0565,-82.5001 67.0565,-86 77.0564,-89.5001 77.0565,-82.5001"/>
</g>
<!-- Node4 -->
<g id="node5" class="node">
<title>Node4</title>
<g id="a_node5"><a xlink:href="classPauseMenuInputParser.html" target="_top" xlink:title="PauseMenuInputParser">
<polygon fill="#ffffff" stroke="#000000" points="103,-38.5 103,-57.5 222,-57.5 222,-38.5 103,-38.5"/>
<text text-anchor="middle" x="162.5" y="-45.5" font-family="Helvetica,sans-Serif" font-size="10.00" fill="#000000">PauseMenuInputParser</text>
</a>
</g>
</g>
<!-- Node0&#45;&gt;Node4 -->
<g id="edge4" class="edge">
<title>Node0&#45;&gt;Node4</title>
<path fill="none" stroke="#191970" d="M76.054,-73.4647C93.603,-68.2952 113.6127,-62.4009 129.9583,-57.5859"/>
<polygon fill="#191970" stroke="#191970" points="74.6556,-70.2279 66.0521,-76.411 76.6336,-76.9426 74.6556,-70.2279"/>
</g>
<!-- Node5 -->
<g id="node6" class="node">
<title>Node5</title>
<g id="a_node6"><a xlink:href="classTetrisInputParser.html" target="_top" xlink:title="TetrisInputParser">
<polygon fill="#ffffff" stroke="#000000" points="116.5,-.5 116.5,-19.5 208.5,-19.5 208.5,-.5 116.5,-.5"/>
<text text-anchor="middle" x="162.5" y="-7.5" font-family="Helvetica,sans-Serif" font-size="10.00" fill="#000000">TetrisInputParser</text>
</a>
</g>
</g>
<!-- Node0&#45;&gt;Node5 -->
<g id="edge5" class="edge">
<title>Node0&#45;&gt;Node5</title>
<path fill="none" stroke="#191970" d="M50.4062,-69.004C63.7102,-56.4489 83.2453,-39.7407 103,-29 109.8592,-25.2706 117.5666,-22.1361 125.1026,-19.5568"/>
<polygon fill="#191970" stroke="#191970" points="47.7304,-66.7231 42.9815,-76.194 52.6,-71.7516 47.7304,-66.7231"/>
</g>
</g>
</svg>
