<?xml version="1.0" encoding="UTF-8" standalone="no"?>
<!DOCTYPE svg PUBLIC "-//W3C//DTD SVG 1.1//EN"
 "http://www.w3.org/Graphics/SVG/1.1/DTD/svg11.dtd">
<!-- Generated by graphviz version 2.40.1 (20161225.0304)
 -->
<!-- Title: Graphical Class Hierarchy Pages: 1 -->
<svg width="352pt" height="142pt"
 viewBox="0.00 0.00 352.00 142.00" xmlns="http://www.w3.org/2000/svg" xmlns:xlink="http://www.w3.org/1999/xlink">
<g id="graph0" class="graph" transform="scale(1 1) rotate(0) translate(4 138)">
<title>Graphical Class Hierarchy</title>
<polygon fill="#ffffff" stroke="transparent" points="-4,4 -4,-138 348,-138 348,4 -4,4"/>
<!-- Node0 -->
<g id="node1" class="node">
<title>Node0</title>
<g id="a_node1"><a xlink:href="classGameRenderer.html" target="_top" xlink:title="GameRenderer">
<polygon fill="#ffffff" stroke="#000000" points="0,-57.5 0,-76.5 83,-76.5 83,-57.5 0,-57.5"/>
<text text-anchor="middle" x="41.5" y="-64.5" font-family="Helvetica,sans-Serif" font-size="10.00" fill="#000000">GameRenderer</text>
</a>
</g>
</g>
<!-- Node1 -->
<g id="node2" class="node">
<title>Node1</title>
<g id="a_node2"><a xlink:href="classGameOverRenderer.html" target="_top" xlink:title="GameOverRenderer">
<polygon fill="#ffffff" stroke="#000000" points="121,-114.5 121,-133.5 225,-133.5 225,-114.5 121,-114.5"/>
<text text-anchor="middle" x="173" y="-121.5" font-family="Helvetica,sans-Serif" font-size="10.00" fill="#000000">GameOverRenderer</text>
</a>
</g>
</g>
<!-- Node0&#45;&gt;Node1 -->
<g id="edge1" class="edge">
<title>Node0&#45;&gt;Node1</title>
<path fill="none" stroke="#191970" d="M68.4456,-81.1826C83.1859,-88.6931 101.8826,-97.8213 119,-105 126.9736,-108.344 135.7643,-111.6094 143.8958,-114.4636"/>
<polygon fill="#191970" stroke="#191970" points="69.8797,-77.9843 59.3869,-76.5175 66.6747,-84.2075 69.8797,-77.9843"/>
</g>
<!-- Node2 -->
<g id="node3" class="node">
<title>Node2</title>
<g id="a_node3"><a xlink:href="classGridRenderer.html" target="_top" xlink:title="GridRenderer">
<polygon fill="#ffffff" stroke="#000000" points="136,-76.5 136,-95.5 210,-95.5 210,-76.5 136,-76.5"/>
<text text-anchor="middle" x="173" y="-83.5" font-family="Helvetica,sans-Serif" font-size="10.00" fill="#000000">GridRenderer</text>
</a>
</g>
</g>
<!-- Node0&#45;&gt;Node2 -->
<g id="edge2" class="edge">
<title>Node0&#45;&gt;Node2</title>
<path fill="none" stroke="#191970" d="M93.2246,-74.4735C107.395,-76.521 122.4771,-78.7001 135.6691,-80.6062"/>
<polygon fill="#191970" stroke="#191970" points="93.5052,-70.9778 83.1074,-73.0117 92.5041,-77.9058 93.5052,-70.9778"/>
</g>
<!-- Node5 -->
<g id="node6" class="node">
<title>Node5</title>
<g id="a_node6"><a xlink:href="classLevelRenderer.html" target="_top" xlink:title="LevelRenderer">
<polygon fill="#ffffff" stroke="#000000" points="133,-38.5 133,-57.5 213,-57.5 213,-38.5 133,-38.5"/>
<text text-anchor="middle" x="173" y="-45.5" font-family="Helvetica,sans-Serif" font-size="10.00" fill="#000000">LevelRenderer</text>
</a>
</g>
</g>
<!-- Node0&#45;&gt;Node5 -->
<g id="edge5" class="edge">
<title>Node0&#45;&gt;Node5</title>
<path fill="none" stroke="#191970" d="M93.3536,-59.5079C106.3855,-57.6249 120.1806,-55.6317 132.5624,-53.8427"/>
<polygon fill="#191970" stroke="#191970" points="92.5041,-56.0942 83.1074,-60.9883 93.5052,-63.0222 92.5041,-56.0942"/>
</g>
<!-- Node6 -->
<g id="node7" class="node">
<title>Node6</title>
<g id="a_node7"><a xlink:href="classPauseMenuRenderer.html" target="_top" xlink:title="PauseMenuRenderer">
<polygon fill="#ffffff" stroke="#000000" points="119,-.5 119,-19.5 227,-19.5 227,-.5 119,-.5"/>
<text text-anchor="middle" x="173" y="-7.5" font-family="Helvetica,sans-Serif" font-size="10.00" fill="#000000">PauseMenuRenderer</text>
</a>
</g>
</g>
<!-- Node0&#45;&gt;Node6 -->
<g id="edge6" class="edge">
<title>Node0&#45;&gt;Node6</title>
<path fill="none" stroke="#191970" d="M68.4456,-52.8174C83.1859,-45.3069 101.8826,-36.1787 119,-29 126.9736,-25.656 135.7643,-22.3906 143.8958,-19.5364"/>
<polygon fill="#191970" stroke="#191970" points="66.6747,-49.7925 59.3869,-57.4825 69.8797,-56.0157 66.6747,-49.7925"/>
</g>
<!-- Node3 -->
<g id="node4" class="node">
<title>Node3</title>
<g id="a_node4"><a xlink:href="classBlockRenderer.html" target="_top" xlink:title="BlockRenderer">
<polygon fill="#ffffff" stroke="#000000" points="263,-95.5 263,-114.5 344,-114.5 344,-95.5 263,-95.5"/>
<text text-anchor="middle" x="303.5" y="-102.5" font-family="Helvetica,sans-Serif" font-size="10.00" fill="#000000">BlockRenderer</text>
</a>
</g>
</g>
<!-- Node2&#45;&gt;Node3 -->
<g id="edge3" class="edge">
<title>Node2&#45;&gt;Node3</title>
<path fill="none" stroke="#191970" d="M219.9694,-92.8385C233.9479,-94.8736 249.144,-97.0861 262.6955,-99.0591"/>
<polygon fill="#191970" stroke="#191970" points="220.447,-89.3712 210.047,-91.3938 219.4384,-96.2981 220.447,-89.3712"/>
</g>
<!-- Node4 -->
<g id="node5" class="node">
<title>Node4</title>
<g id="a_node5"><a xlink:href="classTetrisRenderer.html" target="_top" xlink:title="TetrisRenderer">
<polygon fill="#ffffff" stroke="#000000" points="263,-57.5 263,-76.5 344,-76.5 344,-57.5 263,-57.5"/>
<text text-anchor="middle" x="303.5" y="-64.5" font-family="Helvetica,sans-Serif" font-size="10.00" fill="#000000">TetrisRenderer</text>
</a>
</g>
</g>
<!-- Node2&#45;&gt;Node4 -->
<g id="edge4" class="edge">
<title>Node2&#45;&gt;Node4</title>
<path fill="none" stroke="#191970" d="M219.9694,-79.1615C233.9479,-77.1264 249.144,-74.9139 262.6955,-72.9409"/>
<polygon fill="#191970" stroke="#191970" points="219.4384,-75.7019 210.047,-80.6062 220.447,-82.6288 219.4384,-75.7019"/>
</g>
</g>
</svg>
